<svg width="183" height="118" viewBox="0 0 183 118" fill="none" xmlns="http://www.w3.org/2000/svg">
<ellipse cx="91.5" cy="106.5" rx="91.5" ry="11.5" fill="#FF9BAF"/>
<path d="M123.943 15.8984H115.521V80.3569H123.943V15.8984Z" fill="#FF9BAF"/>
<path d="M122.836 15.8984H160.729C161.801 15.8984 162.744 16.5999 163.049 17.6243L176.192 61.671C176.292 62.0062 176.342 62.3535 176.342 62.7036V80.5637H122.836V15.8984Z" fill="#FFD1D4"/>
<path d="M129.087 24.2969H157.889C158.431 24.2969 158.908 24.6577 159.054 25.1794L166.082 50.3105C166.298 51.0809 165.718 51.8418 164.917 51.8418H129.087C128.419 51.8418 127.877 51.3025 127.877 50.6349V25.5038C127.877 24.8361 128.419 24.2969 129.087 24.2969Z" fill="white"/>
<path d="M177.446 80.3555H8.58008C7.24359 80.3555 6.16016 81.4362 6.16016 82.7693V86.894C6.16016 88.2271 7.24359 89.3078 8.58008 89.3078H177.446C178.782 89.3078 179.866 88.2271 179.866 86.894V82.7693C179.866 81.4362 178.782 80.3555 177.446 80.3555Z" fill="#FF9BAF"/>
<path d="M117.075 3.15597C117.075 1.82339 115.992 0.742188 114.655 0.742188H11.7705C10.4345 0.742188 9.35059 1.82339 9.35059 3.15597V80.4036H117.075V3.15597Z" fill="#FFD1D4"/>
<path d="M175.379 66.8594C174.044 66.8594 172.963 67.9379 172.963 69.2691V74.5035C172.963 75.8347 174.044 76.9132 175.379 76.9132C176.713 76.9132 177.795 75.8347 177.795 74.5035V69.2691C177.795 67.9379 176.713 66.8594 175.379 66.8594Z" fill="#FFF2B1"/>
<path d="M46.9449 97.4138C52.2156 92.1565 52.2157 83.6326 46.9449 78.3753C41.6742 73.1179 33.1287 73.1179 27.8579 78.3753C22.5872 83.6326 22.5872 92.1565 27.8579 97.4138C33.1287 102.671 41.6742 102.671 46.9449 97.4138Z" fill="#1E1E1E"/>
<path d="M37.3677 95.3148C41.4669 95.3148 44.79 92.0002 44.79 87.9113C44.79 83.8225 41.4669 80.5078 37.3677 80.5078C33.2684 80.5078 29.9453 83.8225 29.9453 87.9113C29.9453 92.0002 33.2684 95.3148 37.3677 95.3148Z" fill="#626262"/>
<path d="M37.3723 92.2887C39.7945 92.2887 41.7582 90.33 41.7582 87.9139C41.7582 85.4977 39.7945 83.5391 37.3723 83.5391C34.95 83.5391 32.9863 85.4977 32.9863 87.9139C32.9863 90.33 34.95 92.2887 37.3723 92.2887Z" fill="#242424"/>
<path d="M148.46 101.358C155.914 101.358 161.957 95.3309 161.957 87.8959C161.957 80.4609 155.914 74.4336 148.46 74.4336C141.006 74.4336 134.964 80.4609 134.964 87.8959C134.964 95.3309 141.006 101.358 148.46 101.358Z" fill="#1E1E1E"/>
<path d="M148.426 95.3148C152.526 95.3148 155.849 92.0002 155.849 87.9113C155.849 83.8225 152.526 80.5078 148.426 80.5078C144.327 80.5078 141.004 83.8225 141.004 87.9113C141.004 92.0002 144.327 95.3148 148.426 95.3148Z" fill="#626262"/>
<path d="M148.428 92.2887C150.85 92.2887 152.814 90.33 152.814 87.9139C152.814 85.4977 150.85 83.5391 148.428 83.5391C146.006 83.5391 144.042 85.4977 144.042 87.9139C144.042 90.33 146.006 92.2887 148.428 92.2887Z" fill="#242424"/>
</svg>
