<svg width="1728" height="1117" viewBox="0 0 1728 1117" fill="none" xmlns="http://www.w3.org/2000/svg">
<g clip-path="url(#clip0_762_216)">
<rect width="1728" height="1117" fill="#FBFBF6"/>
<path d="M1101 127C1141.87 127 1175 160.131 1175 201V320C1175 317.791 1176.79 316 1179 316H1180C1182.21 316 1184 317.791 1184 320V364C1184 366.209 1182.21 368 1180 368H1179C1176.79 368 1175 366.209 1175 364V383C1175 380.791 1176.79 379 1179 379H1180C1182.21 379 1184 380.791 1184 383V427C1184 429.209 1182.21 431 1180 431H1179C1176.79 431 1175 429.209 1175 427V1144C1175 1184.87 1141.87 1218 1101 1218H628C587.131 1218 554 1184.87 554 1144V405C554 407.209 552.209 409 550 409H549C546.791 409 545 407.209 545 405V361C545 358.791 546.791 357 549 357H550C552.209 357 554 358.791 554 361V201C554 160.131 587.131 127 628 127H1101Z" fill="url(#paint0_radial_762_216)"/>
<rect x="800" y="161" width="130" height="37" rx="18.5" fill="#FBFBF6"/>
<circle cx="961" cy="180" r="17" fill="#FBFBF6"/>
<path d="M355.18 674.191C356.992 671.701 358.419 669.007 359.542 666.375C359.208 669.218 359.107 672.264 359.442 675.326C360.767 687.441 369.582 695.295 374.998 693.823C380.414 692.352 384.042 681.118 379.056 669.998C377.876 667.367 376.372 664.941 374.768 662.768C376.941 664.372 379.367 665.876 381.998 667.056C393.118 672.043 404.352 668.414 405.823 662.998C407.295 657.582 399.441 648.768 387.325 647.443C384.264 647.108 381.218 647.209 378.375 647.542C381.008 646.419 383.701 644.992 386.191 643.18C396.045 636.009 398.48 624.457 394.511 620.489C390.542 616.52 378.99 618.954 371.819 628.809C370.007 631.298 368.58 633.992 367.457 636.624C367.791 633.782 367.892 630.735 367.557 627.674C366.232 615.559 357.418 607.705 352.002 609.177C346.586 610.648 342.957 621.882 347.944 633.002C349.124 635.634 350.628 638.059 352.232 640.232C350.059 638.628 347.634 637.124 345.002 635.944C333.882 630.957 322.647 634.586 321.177 640.002C319.705 645.418 327.559 654.233 339.674 655.557C342.735 655.893 345.782 655.792 348.624 655.458C345.992 656.581 343.298 658.008 340.809 659.82C330.954 666.991 328.52 678.543 332.489 682.512C336.457 686.48 348.009 684.046 355.18 674.192L355.18 674.191Z" fill="url(#paint1_radial_762_216)"/>
<path d="M390.095 296.513C391.054 295.195 391.81 293.769 392.404 292.375C392.228 293.88 392.174 295.493 392.352 297.114C393.053 303.528 397.72 307.685 400.587 306.906C403.454 306.128 405.375 300.18 402.735 294.293C402.111 292.9 401.314 291.616 400.465 290.465C401.616 291.315 402.9 292.111 404.293 292.735C410.18 295.376 416.128 293.454 416.906 290.587C417.685 287.72 413.527 283.053 407.113 282.352C405.493 282.175 403.88 282.228 402.375 282.405C403.769 281.81 405.195 281.055 406.513 280.095C411.73 276.299 413.019 270.183 410.918 268.082C408.817 265.981 402.701 267.27 398.904 272.487C397.945 273.805 397.19 275.231 396.595 276.625C396.772 275.12 396.825 273.507 396.648 271.886C395.946 265.472 391.28 261.314 388.413 262.094C385.546 262.873 383.624 268.82 386.265 274.707C386.889 276.1 387.686 277.384 388.535 278.535C387.384 277.686 386.1 276.889 384.707 276.265C378.82 273.624 372.872 275.546 372.094 278.413C371.315 281.28 375.472 285.947 381.886 286.648C383.507 286.826 385.12 286.772 386.625 286.595C385.231 287.19 383.805 287.945 382.487 288.905C377.27 292.701 375.981 298.817 378.082 300.918C380.183 303.019 386.299 301.73 390.095 296.513L390.095 296.513Z" fill="url(#paint2_radial_762_216)"/>
<path d="M1462.52 373.005C1459.68 369.109 1457.45 364.894 1455.69 360.775C1456.22 365.223 1456.37 369.99 1455.85 374.78C1453.78 393.737 1439.98 406.026 1431.51 403.724C1423.04 401.421 1417.36 383.843 1425.16 366.444C1427.01 362.327 1429.36 358.531 1431.87 355.131C1428.47 357.641 1424.67 359.994 1420.56 361.84C1403.16 369.644 1385.58 363.965 1383.28 355.491C1380.97 347.017 1393.26 333.225 1412.22 331.152C1417.01 330.627 1421.78 330.785 1426.23 331.307C1422.11 329.55 1417.89 327.317 1414 324.482C1398.58 313.261 1394.77 295.186 1400.98 288.976C1407.19 282.767 1425.26 286.575 1436.48 301.995C1439.32 305.89 1441.55 310.106 1443.31 314.224C1442.79 309.776 1442.63 305.01 1443.15 300.219C1445.22 281.262 1459.02 268.974 1467.49 271.277C1475.96 273.579 1481.64 291.156 1473.84 308.556C1471.99 312.674 1469.64 316.469 1467.13 319.869C1470.53 317.359 1474.33 315.006 1478.44 313.16C1495.84 305.357 1513.42 311.035 1515.72 319.509C1518.03 327.984 1505.74 341.776 1486.78 343.849C1481.99 344.373 1477.22 344.215 1472.78 343.693C1476.89 345.451 1481.11 347.683 1485.01 350.518C1500.42 361.739 1504.23 379.814 1498.02 386.024C1491.81 392.234 1473.74 388.425 1462.52 373.006L1462.52 373.005Z" fill="url(#paint3_radial_762_216)"/>
<path d="M429 672C431.451 682.976 440.024 691.545 451 694C440.024 696.451 431.455 705.024 429 716C426.549 705.024 417.976 696.455 407 694C417.976 691.549 426.545 682.976 429 672Z" fill="url(#paint4_radial_762_216)"/>
<path d="M1313 550C1310.55 560.976 1301.98 569.545 1291 572C1301.98 574.451 1310.54 583.024 1313 594C1315.45 583.024 1324.02 574.455 1335 572C1324.02 569.549 1315.46 560.976 1313 550Z" fill="url(#paint5_radial_762_216)"/>
<path d="M1496 787C1490.99 809.451 1473.45 826.978 1451 832C1473.45 837.014 1490.98 854.549 1496 877C1501.01 854.549 1518.55 837.022 1541 832C1518.55 826.986 1501.02 809.451 1496 787Z" fill="url(#paint6_radial_762_216)"/>
<path d="M208 313C202.986 335.451 185.451 352.978 163 358C185.451 363.014 202.978 380.549 208 403C213.014 380.549 230.549 363.022 253 358C230.549 352.986 213.022 335.451 208 313Z" fill="url(#paint7_radial_762_216)"/>
<path d="M208 787C205.66 797.477 197.477 805.657 187 808C197.477 810.34 205.657 818.523 208 829C210.34 818.523 218.523 810.343 229 808C218.523 805.66 210.343 797.477 208 787Z" fill="url(#paint8_radial_762_216)"/>
</g>
<defs>
<radialGradient id="paint0_radial_762_216" cx="0" cy="0" r="1" gradientUnits="userSpaceOnUse" gradientTransform="translate(1272.1 717.956) rotate(180) scale(936.182 9776.43)">
<stop offset="0.355769" stop-color="#F7DFDE"/>
<stop offset="1" stop-color="#FEFAE6"/>
</radialGradient>
<radialGradient id="paint1_radial_762_216" cx="0" cy="0" r="1" gradientUnits="userSpaceOnUse" gradientTransform="translate(417.719 655.041) rotate(180) scale(124.531 761.683)">
<stop offset="0.355769" stop-color="#F7DFDE"/>
<stop offset="1" stop-color="#FEFAE6"/>
</radialGradient>
<radialGradient id="paint2_radial_762_216" cx="0" cy="0" r="1" gradientUnits="userSpaceOnUse" gradientTransform="translate(423.204 286.375) rotate(180) scale(65.9283 403.244)">
<stop offset="0.355769" stop-color="#F7DFDE"/>
<stop offset="1" stop-color="#FEFAE6"/>
</radialGradient>
<radialGradient id="paint3_radial_762_216" cx="0" cy="0" r="1" gradientUnits="userSpaceOnUse" gradientTransform="translate(1364.66 343.041) scale(194.855 1191.81)">
<stop offset="0.355769" stop-color="#F7DFDE"/>
<stop offset="1" stop-color="#FEFAE6"/>
</radialGradient>
<radialGradient id="paint4_radial_762_216" cx="0" cy="0" r="1" gradientUnits="userSpaceOnUse" gradientTransform="translate(457.066 695.833) rotate(180) scale(64.4632 394.283)">
<stop offset="0.355769" stop-color="#F7DFDE"/>
<stop offset="1" stop-color="#FEFAE6"/>
</radialGradient>
<radialGradient id="paint5_radial_762_216" cx="0" cy="0" r="1" gradientUnits="userSpaceOnUse" gradientTransform="translate(1284.93 573.833) scale(64.4632 394.283)">
<stop offset="0.355769" stop-color="#F7DFDE"/>
<stop offset="1" stop-color="#FEFAE6"/>
</radialGradient>
<radialGradient id="paint6_radial_762_216" cx="0" cy="0" r="1" gradientUnits="userSpaceOnUse" gradientTransform="translate(1438.59 835.75) scale(131.857 806.488)">
<stop offset="0.355769" stop-color="#F7DFDE"/>
<stop offset="1" stop-color="#FEFAE6"/>
</radialGradient>
<radialGradient id="paint7_radial_762_216" cx="0" cy="0" r="1" gradientUnits="userSpaceOnUse" gradientTransform="translate(150.592 361.75) scale(131.857 806.488)">
<stop offset="0.355769" stop-color="#F7DFDE"/>
<stop offset="1" stop-color="#FEFAE6"/>
</radialGradient>
<radialGradient id="paint8_radial_762_216" cx="0" cy="0" r="1" gradientUnits="userSpaceOnUse" gradientTransform="translate(181.21 809.75) scale(61.5331 376.361)">
<stop offset="0.355769" stop-color="#F7DFDE"/>
<stop offset="1" stop-color="#FEFAE6"/>
</radialGradient>
<clipPath id="clip0_762_216">
<rect width="1728" height="1117" fill="white"/>
</clipPath>
</defs>
</svg>
