<svg width="68" height="69" viewBox="0 0 68 69" fill="none" xmlns="http://www.w3.org/2000/svg">
<g filter="url(#filter0_di_508_2013)">
<circle cx="34.0485" cy="31.0485" r="28.0485" fill="url(#paint0_linear_508_2013)" shape-rendering="crispEdges"/>
</g>
<mask id="mask0_508_2013" style="mask-type:luminance" maskUnits="userSpaceOnUse" x="21" y="19" width="27" height="27">
<path d="M47.2802 19.0508H21.2891V45.0419H47.2802V19.0508Z" fill="white"/>
</mask>
<g mask="url(#mask0_508_2013)">
<path d="M31.0348 32.0459C31.0348 31.1843 31.3771 30.3579 31.9864 29.7486C32.5957 29.1393 33.4221 28.797 34.2837 28.797C35.1454 28.797 35.9717 29.1393 36.581 29.7486C37.1904 30.3579 37.5326 31.1843 37.5326 32.0459C37.5326 32.9076 37.1904 33.7339 36.581 34.3432C35.9717 34.9525 35.1454 35.2948 34.2837 35.2948C33.4221 35.2948 32.5957 34.9525 31.9864 34.3432C31.3771 33.7339 31.0348 32.9076 31.0348 32.0459ZM39.6476 41.3323C44.7192 42.0612 48.2182 35.9662 44.9098 32.0297C45.631 31.1266 46.0654 30.0283 46.157 28.8763C46.2486 27.7242 45.9933 26.5711 45.4238 25.5654C44.8544 24.5597 43.997 23.7475 42.9619 23.2333C41.927 22.7191 40.7617 22.5266 39.6162 22.6804C39.1864 21.6184 38.4492 20.7089 37.4991 20.0685C36.5492 19.4281 35.4295 19.0859 34.2837 19.0859C33.138 19.0859 32.0184 19.4281 31.0683 20.0685C30.1182 20.7089 29.3811 21.6184 28.9512 22.6804C27.8058 22.5262 26.6405 22.7185 25.6053 23.2325C24.5702 23.7465 23.7126 24.5586 23.1431 25.5643C22.5736 26.57 22.3183 27.7232 22.41 28.8753C22.5017 30.0274 22.9363 31.1256 23.6577 32.0286C20.3481 35.9673 23.8494 42.0601 28.9198 41.3312C29.3312 42.4213 30.0648 43.36 31.0231 44.0226C31.9813 44.6852 33.1188 45.0401 34.2837 45.0401C35.4488 45.0401 36.5861 44.6852 37.5444 44.0226C38.5026 43.36 39.2363 42.4223 39.6476 41.3323ZM29.3433 37.882C26.4734 39.2325 23.9891 35.1746 26.9412 33.4711C27.1938 33.3286 27.404 33.1215 27.5502 32.8711C27.6965 32.6207 27.7735 32.3359 27.7735 32.0459C27.7735 31.7559 27.6965 31.4712 27.5502 31.2207C27.404 30.9703 27.1938 30.7632 26.9412 30.6207C24.0681 28.9573 26.3781 24.5789 29.3476 26.2152C29.5947 26.3599 29.8756 26.4367 30.1619 26.4379C30.4483 26.439 30.7298 26.3645 30.9781 26.2218C31.2263 26.0791 31.4324 25.8733 31.5755 25.6253C31.7186 25.3773 31.7936 25.0959 31.7929 24.8095C31.7929 24.1489 32.0553 23.5154 32.5225 23.0483C32.9896 22.5811 33.6231 22.3187 34.2837 22.3187C34.9443 22.3187 35.5779 22.5811 36.045 23.0483C36.5121 23.5154 36.7745 24.1489 36.7745 24.8095C36.7746 25.0955 36.8502 25.3764 36.9936 25.6238C37.137 25.8712 37.3432 26.0763 37.5913 26.2185C37.8394 26.3607 38.1207 26.4349 38.4067 26.4336C38.6926 26.4322 38.9732 26.3554 39.2199 26.2109C42.1894 24.5789 44.4982 28.9595 41.6262 30.6207C41.3737 30.7632 41.1635 30.9703 41.0173 31.2207C40.8711 31.4712 40.794 31.7559 40.794 32.0459C40.794 32.3359 40.8711 32.6207 41.0173 32.8711C41.1635 33.1215 41.3737 33.3286 41.6262 33.4711C44.5795 35.1778 42.0908 39.2325 39.2242 37.882C38.9774 37.7365 38.6966 37.6588 38.41 37.6569C38.1235 37.6549 37.8416 37.7288 37.5928 37.871C37.3441 38.0132 37.1374 38.2186 36.9937 38.4665C36.85 38.7143 36.7744 38.9957 36.7745 39.2823C36.7745 39.9429 36.5121 40.5764 36.045 41.0435C35.5779 41.5107 34.9443 41.7731 34.2837 41.7731C33.6231 41.7731 32.9896 41.5107 32.5225 41.0435C32.0553 40.5764 31.7929 39.9429 31.7929 39.2823C31.7931 38.9957 31.7175 38.7143 31.5738 38.4665C31.4301 38.2186 31.2234 38.0132 30.9746 37.871C30.7259 37.7288 30.444 37.6549 30.1575 37.6569C29.8709 37.6588 29.59 37.7365 29.3433 37.882Z" fill="black"/>
</g>
<defs>
<filter id="filter0_di_508_2013" x="0.113767" y="0.171551" width="67.8701" height="67.8701" filterUnits="userSpaceOnUse" color-interpolation-filters="sRGB">
<feFlood flood-opacity="0" result="BackgroundImageFix"/>
<feColorMatrix in="SourceAlpha" type="matrix" values="0 0 0 0 0 0 0 0 0 0 0 0 0 0 0 0 0 0 127 0" result="hardAlpha"/>
<feOffset dy="3.05778"/>
<feGaussianBlur stdDeviation="2.94312"/>
<feComposite in2="hardAlpha" operator="out"/>
<feColorMatrix type="matrix" values="0 0 0 0 0 0 0 0 0 0 0 0 0 0 0 0 0 0 0.15 0"/>
<feBlend mode="normal" in2="BackgroundImageFix" result="effect1_dropShadow_508_2013"/>
<feBlend mode="normal" in="SourceGraphic" in2="effect1_dropShadow_508_2013" result="shape"/>
<feColorMatrix in="SourceAlpha" type="matrix" values="0 0 0 0 0 0 0 0 0 0 0 0 0 0 0 0 0 0 127 0" result="hardAlpha"/>
<feOffset dx="2.29334" dy="3.05778"/>
<feGaussianBlur stdDeviation="0.611557"/>
<feComposite in2="hardAlpha" operator="arithmetic" k2="-1" k3="1"/>
<feColorMatrix type="matrix" values="0 0 0 0 1 0 0 0 0 1 0 0 0 0 1 0 0 0 0.51 0"/>
<feBlend mode="normal" in2="shape" result="effect2_innerShadow_508_2013"/>
</filter>
<linearGradient id="paint0_linear_508_2013" x1="20.5245" y1="10.0107" x2="38.4889" y2="42.4996" gradientUnits="userSpaceOnUse">
<stop stop-color="white" stop-opacity="0.1"/>
<stop offset="1" stop-color="white" stop-opacity="0.8"/>
</linearGradient>
</defs>
</svg>
