<svg width="597" height="443" viewBox="0 0 597 443" fill="none" xmlns="http://www.w3.org/2000/svg">
<g filter="url(#filter0_di_508_1949)">
<path d="M61.1992 6C48.3867 6.00004 38 16.3867 38 29.1992V183.865C22.502 184.065 10.0002 196.689 10 212.234C10 227.78 22.5019 240.403 38 240.604V405.801C38 418.613 48.3867 429 61.1992 429H563.801C576.613 429 587 418.613 587 405.801V29.1992C587 16.3867 576.613 6.00003 563.801 6H61.1992Z" fill="url(#paint0_linear_508_1949)" shape-rendering="crispEdges"/>
</g>
<mask id="mask0_508_1949" style="mask-type:luminance" maskUnits="userSpaceOnUse" x="27" y="199" width="26" height="27">
<path d="M52.9912 199.996H27V225.987H52.9912V199.996Z" fill="white"/>
</mask>
<g mask="url(#mask0_508_1949)">
<path d="M36.7458 212.991C36.7458 212.13 37.0881 211.303 37.6974 210.694C38.3066 210.085 39.133 209.742 39.9946 209.742C40.8564 209.742 41.6827 210.085 42.2919 210.694C42.9013 211.303 43.2435 212.13 43.2435 212.991C43.2435 213.853 42.9013 214.679 42.2919 215.289C41.6827 215.898 40.8564 216.24 39.9946 216.24C39.133 216.24 38.3066 215.898 37.6974 215.289C37.0881 214.679 36.7458 213.853 36.7458 212.991ZM45.3586 222.278C50.4301 223.006 53.9292 216.912 50.6207 212.975C51.342 212.072 51.7763 210.974 51.868 209.822C51.9596 208.669 51.7042 207.516 51.1348 206.511C50.5654 205.505 49.708 204.693 48.6729 204.179C47.6379 203.664 46.4726 203.472 45.3272 203.626C44.8973 202.564 44.1602 201.654 43.2101 201.014C42.2601 200.373 41.1404 200.031 39.9946 200.031C38.849 200.031 37.7293 200.373 36.7792 201.014C35.8292 201.654 35.092 202.564 34.6622 203.626C33.5168 203.472 32.3514 203.664 31.3163 204.178C30.2811 204.692 29.4235 205.504 28.854 206.51C28.2846 207.515 28.0292 208.669 28.1209 209.821C28.2127 210.973 28.6472 212.071 29.3686 212.974C26.0591 216.913 29.5603 223.005 34.6308 222.277C35.0421 223.367 35.7758 224.305 36.734 224.968C37.6923 225.631 38.8297 225.985 39.9946 225.985C41.1597 225.985 42.297 225.631 43.2553 224.968C44.2136 224.305 44.9473 223.368 45.3586 222.278ZM35.0542 218.827C32.1843 220.178 29.7 216.12 32.6522 214.416C32.9047 214.274 33.1149 214.067 33.2612 213.816C33.4074 213.566 33.4845 213.281 33.4845 212.991C33.4845 212.701 33.4074 212.416 33.2612 212.166C33.1149 211.916 32.9047 211.709 32.6522 211.566C29.7791 209.903 32.089 205.524 35.0585 207.161C35.3056 207.305 35.5865 207.382 35.8729 207.383C36.1592 207.384 36.4408 207.31 36.689 207.167C36.9372 207.024 37.1433 206.819 37.2864 206.571C37.4295 206.323 37.5046 206.041 37.5039 205.755C37.5039 205.094 37.7663 204.461 38.2334 203.994C38.7005 203.526 39.334 203.264 39.9946 203.264C40.6553 203.264 41.2888 203.526 41.756 203.994C42.2231 204.461 42.4855 205.094 42.4855 205.755C42.4856 206.041 42.5612 206.322 42.7046 206.569C42.8479 206.817 43.0541 207.022 43.3022 207.164C43.5503 207.306 43.8316 207.38 44.1176 207.379C44.4035 207.378 44.6841 207.301 44.9308 207.156C47.9003 205.524 50.2092 209.905 47.3372 211.566C47.0846 211.709 46.8744 211.916 46.7282 212.166C46.582 212.416 46.5049 212.701 46.5049 212.991C46.5049 213.281 46.582 213.566 46.7282 213.816C46.8744 214.067 47.0846 214.274 47.3372 214.416C50.2904 216.123 47.8017 220.178 44.9351 218.827C44.6883 218.682 44.4075 218.604 44.121 218.602C43.8344 218.6 43.5525 218.674 43.3038 218.816C43.055 218.958 42.8484 219.164 42.7047 219.412C42.561 219.66 42.4854 219.941 42.4855 220.228C42.4855 220.888 42.2231 221.522 41.756 221.989C41.2888 222.456 40.6553 222.718 39.9946 222.718C39.334 222.718 38.7005 222.456 38.2334 221.989C37.7663 221.522 37.5039 220.888 37.5039 220.228C37.504 219.941 37.4284 219.66 37.2847 219.412C37.141 219.164 36.9343 218.958 36.6856 218.816C36.4368 218.674 36.1549 218.6 35.8684 218.602C35.5819 218.604 35.301 218.682 35.0542 218.827Z" fill="black" fill-opacity="0.5"/>
</g>
<defs>
<filter id="filter0_di_508_1949" x="0.5" y="0.5" width="596" height="442" filterUnits="userSpaceOnUse" color-interpolation-filters="sRGB">
<feFlood flood-opacity="0" result="BackgroundImageFix"/>
<feColorMatrix in="SourceAlpha" type="matrix" values="0 0 0 0 0 0 0 0 0 0 0 0 0 0 0 0 0 0 127 0" result="hardAlpha"/>
<feOffset dy="4"/>
<feGaussianBlur stdDeviation="4.75"/>
<feComposite in2="hardAlpha" operator="out"/>
<feColorMatrix type="matrix" values="0 0 0 0 0 0 0 0 0 0 0 0 0 0 0 0 0 0 0.15 0"/>
<feBlend mode="normal" in2="BackgroundImageFix" result="effect1_dropShadow_508_1949"/>
<feBlend mode="normal" in="SourceGraphic" in2="effect1_dropShadow_508_1949" result="shape"/>
<feColorMatrix in="SourceAlpha" type="matrix" values="0 0 0 0 0 0 0 0 0 0 0 0 0 0 0 0 0 0 127 0" result="hardAlpha"/>
<feOffset dy="8.5064"/>
<feGaussianBlur stdDeviation="2.35859"/>
<feComposite in2="hardAlpha" operator="arithmetic" k2="-1" k3="1"/>
<feColorMatrix type="matrix" values="0 0 0 0 1 0 0 0 0 1 0 0 0 0 1 0 0 0 0.54 0"/>
<feBlend mode="normal" in2="shape" result="effect2_innerShadow_508_1949"/>
</filter>
<linearGradient id="paint0_linear_508_1949" x1="250.408" y1="67.0914" x2="156.571" y2="382.456" gradientUnits="userSpaceOnUse">
<stop stop-color="white" stop-opacity="0.2"/>
<stop offset="1" stop-color="white" stop-opacity="0.8"/>
</linearGradient>
</defs>
</svg>
