<svg width="78" height="78" viewBox="0 0 78 78" fill="none" xmlns="http://www.w3.org/2000/svg">
<circle cx="38.8825" cy="38.8825" r="38.8825" fill="url(#paint0_linear_508_2048)"/>
<path fill-rule="evenodd" clip-rule="evenodd" d="M39.1845 28.916C39.7297 28.916 40.2526 29.1326 40.6381 29.5181C41.0236 29.9036 41.2401 30.4265 41.2401 30.9717V37.1386H47.4071C47.9523 37.1386 48.4751 37.3552 48.8607 37.7407C49.2462 38.1262 49.4627 38.6491 49.4627 39.1943C49.4627 39.7395 49.2462 40.2623 48.8607 40.6478C48.4751 41.0333 47.9523 41.2499 47.4071 41.2499H41.2401V47.4169C41.2401 47.9621 41.0236 48.4849 40.6381 48.8704C40.2526 49.2559 39.7297 49.4725 39.1845 49.4725C38.6393 49.4725 38.1164 49.2559 37.7309 48.8704C37.3454 48.4849 37.1288 47.9621 37.1288 47.4169V41.2499H30.9619C30.4167 41.2499 29.8938 41.0333 29.5083 40.6478C29.1228 40.2623 28.9062 39.7395 28.9062 39.1943C28.9062 38.6491 29.1228 38.1262 29.5083 37.7407C29.8938 37.3552 30.4167 37.1386 30.9619 37.1386H37.1288V30.9717C37.1288 30.4265 37.3454 29.9036 37.7309 29.5181C38.1164 29.1326 38.6393 28.916 39.1845 28.916Z" fill="black"/>
<path d="M45.2919 24.4503L42.8176 21.9142L44.7385 20.039L46.4095 21.7503L48.8006 21.7208C49.8355 21.7085 50.8625 21.9033 51.8211 22.2938C52.7797 22.6842 53.6506 23.2624 54.3825 23.9943C55.1144 24.7262 55.6925 25.597 56.083 26.5556C56.4734 27.5142 56.6682 28.5412 56.656 29.5762L56.6291 31.9672L58.3378 33.6382C59.0778 34.3614 59.6658 35.2251 60.0673 36.1787C60.4688 37.1324 60.6756 38.1566 60.6756 39.1913C60.6756 40.226 60.4688 41.2502 60.0673 42.2039C59.6658 43.1575 59.0778 44.0212 58.3378 44.7444L56.6264 46.4154L56.656 48.8064C56.6682 49.8414 56.4734 50.8684 56.083 51.827C55.6925 52.7856 55.1144 53.6564 54.3825 54.3883C53.6506 55.1202 52.7797 55.6984 51.8211 56.0888C50.8625 56.4793 49.8355 56.6741 48.8006 56.6618L46.4095 56.635L44.7385 58.3436C44.0154 59.0836 43.1516 59.6717 42.198 60.0731C41.2444 60.4746 40.2201 60.6814 39.1854 60.6814C38.1508 60.6814 37.1265 60.4746 36.1729 60.0731C35.2193 59.6717 34.3555 59.0836 33.6324 58.3436L31.9613 56.6323L29.5703 56.6618C28.5353 56.6741 27.5084 56.4793 26.5498 56.0888C25.5912 55.6984 24.7203 55.1202 23.9884 54.3883C23.2565 53.6564 22.6783 52.7856 22.2879 51.827C21.8975 50.8684 21.7026 49.8414 21.7149 48.8064L21.7418 46.4154L20.0331 44.7444C19.2931 44.0212 18.7051 43.1575 18.3036 42.2039C17.9021 41.2502 17.6953 40.226 17.6953 39.1913C17.6953 38.1566 17.9021 37.1324 18.3036 36.1787C18.7051 35.2251 19.2931 34.3614 20.0331 33.6382L21.7444 31.9672L21.7149 29.5762C21.7026 28.5412 21.8975 27.5142 22.2879 26.5556C22.6783 25.597 23.2565 24.7262 23.9884 23.9943C24.7203 23.2624 25.5912 22.6842 26.5498 22.2938C27.5084 21.9033 28.5353 21.7085 29.5703 21.7208L31.9613 21.7476L33.6324 20.039C34.3555 19.299 35.2193 18.7109 36.1729 18.3095C37.1265 17.908 38.1508 17.7012 39.1854 17.7012C40.2201 17.7012 41.2444 17.908 42.198 18.3095C43.1516 18.7109 44.0154 19.299 44.7385 20.039L42.8176 21.9142C42.3447 21.43 41.7797 21.0453 41.156 20.7827C40.5322 20.52 39.8622 20.3847 39.1854 20.3847C38.5086 20.3847 37.8387 20.52 37.2149 20.7827C36.5911 21.0453 36.0262 21.43 35.5532 21.9142L33.0816 24.4503L29.5354 24.4073C28.8589 24.3997 28.1877 24.5274 27.5612 24.7829C26.9347 25.0384 26.3656 25.4166 25.8873 25.8951C25.409 26.3736 25.0312 26.9429 24.776 27.5695C24.5209 28.1961 24.3935 28.8674 24.4014 29.5439L24.4444 33.0848L21.9083 35.5591C21.4242 36.032 21.0395 36.597 20.7768 37.2208C20.5141 37.8445 20.3788 38.5145 20.3788 39.1913C20.3788 39.8681 20.5141 40.5381 20.7768 41.1618C21.0395 41.7856 21.4242 42.3506 21.9083 42.8235L24.4444 45.2951L24.4014 48.8413C24.3939 49.5179 24.5216 50.1891 24.7771 50.8156C25.0326 51.442 25.4107 52.0111 25.8892 52.4894C26.3678 52.9677 26.9371 53.3455 27.5637 53.6007C28.1903 53.8559 28.8616 53.9832 29.5381 53.9753L33.0789 53.9323L35.5532 56.4684C36.0262 56.9526 36.5911 57.3373 37.2149 57.5999C37.8387 57.8626 38.5086 57.9979 39.1854 57.9979C39.8622 57.9979 40.5322 57.8626 41.156 57.5999C41.7797 57.3373 42.3447 56.9526 42.8176 56.4684L45.2893 53.9323L48.8355 53.9753C49.512 53.9829 50.1832 53.8552 50.8097 53.5997C51.4362 53.3442 52.0053 52.966 52.4836 52.4875C52.9618 52.009 53.3397 51.4397 53.5948 50.8131C53.85 50.1865 53.9774 49.5152 53.9695 48.8387L53.9265 45.2978L56.4626 42.8235C56.9467 42.3506 57.3314 41.7856 57.5941 41.1618C57.8567 40.5381 57.9921 39.8681 57.9921 39.1913C57.9921 38.5145 57.8567 37.8445 57.5941 37.2208C57.3314 36.597 56.9467 36.032 56.4626 35.5591L53.9265 33.0875L53.9695 29.5413C53.977 28.8647 53.8493 28.1935 53.5938 27.567C53.3383 26.9406 52.9602 26.3715 52.4816 25.8932C52.0031 25.4149 51.4338 25.0371 50.8072 24.7819C50.1806 24.5267 49.5093 24.3994 48.8328 24.4073L45.2919 24.4503Z" fill="black"/>
<defs>
<linearGradient id="paint0_linear_508_2048" x1="14.8877" y1="6.19211" x2="65.1985" y2="71.2092" gradientUnits="userSpaceOnUse">
<stop stop-color="#FFD1D4"/>
<stop offset="1" stop-color="#CAE4FF"/>
</linearGradient>
</defs>
</svg>
