<svg width="502" height="484" viewBox="0 0 502 484" fill="none" xmlns="http://www.w3.org/2000/svg">
<g filter="url(#filter0_d_508_2021)">
<path d="M466.268 7.96094C478.933 7.96094 489.201 18.2288 489.201 30.8945V180.892C489.201 190.539 481.067 198.039 472.356 202.184C458.812 208.63 449.449 222.441 449.449 238.44C449.449 254.44 458.812 268.251 472.356 274.697C481.067 278.842 489.201 286.342 489.201 295.989V445.224C489.201 457.889 478.933 468.157 466.268 468.157H52.7021C40.0366 468.157 29.7695 457.889 29.7695 445.224V278.951C29.7695 278.741 29.941 278.574 30.1514 278.574V278.574C52.3164 278.574 70.2852 260.605 70.2852 238.44C70.285 216.276 52.3163 198.308 30.1514 198.308V198.308C29.9411 198.308 29.7695 198.14 29.7695 197.93V30.8945C29.7695 18.2289 40.0366 7.96112 52.7021 7.96094H466.268Z" fill="white"/>
<path d="M32.8291 9.48828C20.1634 9.48837 9.89552 19.7562 9.89551 32.4219V182.422C9.89551 192.069 18.0294 199.568 26.7394 203.714C40.2838 210.16 49.6455 223.972 49.6455 239.971C49.6454 255.97 40.2837 269.78 26.7395 276.226C18.0293 280.371 9.89551 287.871 9.89551 297.517V446.752C9.89574 459.417 20.1636 469.684 32.8291 469.685H446.395C459.06 469.684 469.328 459.417 469.328 446.752V280.482C469.328 280.271 469.156 280.104 468.944 280.104V280.104C446.779 280.104 428.811 262.136 428.811 239.971C428.811 217.806 446.779 199.837 468.944 199.837V199.837C469.156 199.837 469.328 199.668 469.328 199.457V32.4219C469.328 19.7562 459.06 9.48835 446.395 9.48828H32.8291Z" fill="white"/>
</g>
<defs>
<filter id="filter0_d_508_2021" x="0.415403" y="0.0107005" width="501.325" height="483.739" filterUnits="userSpaceOnUse" color-interpolation-filters="sRGB">
<feFlood flood-opacity="0" result="BackgroundImageFix"/>
<feColorMatrix in="SourceAlpha" type="matrix" values="0 0 0 0 0 0 0 0 0 0 0 0 0 0 0 0 0 0 127 0" result="hardAlpha"/>
<feOffset dx="1.52889" dy="3.05778"/>
<feGaussianBlur stdDeviation="5.50401"/>
<feComposite in2="hardAlpha" operator="out"/>
<feColorMatrix type="matrix" values="0 0 0 0 0 0 0 0 0 0 0 0 0 0 0 0 0 0 0.15 0"/>
<feBlend mode="normal" in2="BackgroundImageFix" result="effect1_dropShadow_508_2021"/>
<feBlend mode="normal" in="SourceGraphic" in2="effect1_dropShadow_508_2021" result="shape"/>
</filter>
</defs>
</svg>
