<svg width="68" height="69" viewBox="0 0 68 69" fill="none" xmlns="http://www.w3.org/2000/svg">
<g filter="url(#filter0_di_508_2030)">
<circle cx="34.0485" cy="31.0485" r="28.0485" fill="url(#paint0_linear_508_2030)" shape-rendering="crispEdges"/>
</g>
<path d="M42.8142 37.8331C44.2008 37.8331 45.3335 36.6845 45.3335 35.2789C45.3335 33.5814 42.8142 30.8114 42.8142 30.8114C42.8142 30.8114 40.295 33.5814 40.295 35.2789C40.295 36.6845 41.4277 37.8331 42.8142 37.8331ZM30.8492 36.4338C31.0745 36.6591 31.4394 36.6591 31.6615 36.4338L39.7873 28.3112C40.0126 28.0859 40.0126 27.721 39.7873 27.4989L31.6647 19.3763C31.6456 19.3573 31.6234 19.3382 31.6012 19.3224L29.12 16.8412C29.0659 16.7878 28.993 16.7578 28.9169 16.7578C28.8409 16.7578 28.768 16.7878 28.7139 16.8412L27.1909 18.3641C27.1375 18.4182 27.1075 18.4912 27.1075 18.5672C27.1075 18.6432 27.1375 18.7162 27.1909 18.7703L29.3231 20.9025L22.7298 27.4989C22.5045 27.7242 22.5045 28.0891 22.7298 28.3112L30.8492 36.4338ZM31.2585 22.2002L36.9349 27.8765H25.5854L31.2585 22.2002ZM47.1802 40.108H22.3046C22.165 40.108 22.0508 40.2223 22.0508 40.3619V42.9002C22.0508 43.0398 22.165 43.154 22.3046 43.154H47.1802C47.3198 43.154 47.434 43.0398 47.434 42.9002V40.3619C47.434 40.2223 47.3198 40.108 47.1802 40.108Z" fill="black"/>
<defs>
<filter id="filter0_di_508_2030" x="0.113767" y="0.171551" width="67.8701" height="67.8701" filterUnits="userSpaceOnUse" color-interpolation-filters="sRGB">
<feFlood flood-opacity="0" result="BackgroundImageFix"/>
<feColorMatrix in="SourceAlpha" type="matrix" values="0 0 0 0 0 0 0 0 0 0 0 0 0 0 0 0 0 0 127 0" result="hardAlpha"/>
<feOffset dy="3.05778"/>
<feGaussianBlur stdDeviation="2.94312"/>
<feComposite in2="hardAlpha" operator="out"/>
<feColorMatrix type="matrix" values="0 0 0 0 0 0 0 0 0 0 0 0 0 0 0 0 0 0 0.15 0"/>
<feBlend mode="normal" in2="BackgroundImageFix" result="effect1_dropShadow_508_2030"/>
<feBlend mode="normal" in="SourceGraphic" in2="effect1_dropShadow_508_2030" result="shape"/>
<feColorMatrix in="SourceAlpha" type="matrix" values="0 0 0 0 0 0 0 0 0 0 0 0 0 0 0 0 0 0 127 0" result="hardAlpha"/>
<feOffset dx="2.29334" dy="3.05778"/>
<feGaussianBlur stdDeviation="0.611557"/>
<feComposite in2="hardAlpha" operator="arithmetic" k2="-1" k3="1"/>
<feColorMatrix type="matrix" values="0 0 0 0 1 0 0 0 0 1 0 0 0 0 1 0 0 0 0.51 0"/>
<feBlend mode="normal" in2="shape" result="effect2_innerShadow_508_2030"/>
</filter>
<linearGradient id="paint0_linear_508_2030" x1="20.5245" y1="10.0107" x2="38.4889" y2="42.4996" gradientUnits="userSpaceOnUse">
<stop stop-color="white" stop-opacity="0.1"/>
<stop offset="1" stop-color="white" stop-opacity="0.8"/>
</linearGradient>
</defs>
</svg>
