<svg width="22" height="22" viewBox="0 0 22 22" fill="none" xmlns="http://www.w3.org/2000/svg">
<path d="M6.88403 2.86687L7.41136 3.71653L6.88403 2.86687ZM15.116 2.86687L14.5886 3.71653L15.116 2.86687ZM17.116 4.10812L17.6433 3.25846L17.116 4.10812ZM4.88403 4.10813L5.41136 4.95779L4.88403 4.10813ZM14 13.9998C14.5523 13.9998 15 13.5521 15 12.9998C15 12.4475 14.5523 11.9998 14 11.9998V12.9998V13.9998ZM8 11.9998C7.44772 11.9998 7 12.4475 7 12.9998C7 13.5521 7.44772 13.9998 8 13.9998V12.9998V11.9998ZM12 9.99979C12 9.4475 11.5523 8.99979 11 8.99979C10.4477 8.99979 10 9.4475 10 9.99979H11H12ZM10 15.9998C10 16.5521 10.4477 16.9998 11 16.9998C11.5523 16.9998 12 16.5521 12 15.9998H11H10ZM13 21V20H9V21V22H13V21ZM4.88403 4.10813L5.41136 4.95779L7.41136 3.71653L6.88403 2.86687L6.35671 2.01721L4.35671 3.25846L4.88403 4.10813ZM15.116 2.86687L14.5886 3.71653L16.5886 4.95779L17.116 4.10812L17.6433 3.25846L15.6433 2.01721L15.116 2.86687ZM1 12.725H2V11.2039H1H0V12.725H1ZM21 11.2039H20V12.725H21H22V11.2039H21ZM6.88403 2.86687L7.41136 3.71653C8.43148 3.08342 9.13309 2.64942 9.71587 2.36602C10.2782 2.09258 10.6516 2 11 2V1V0C10.2405 0 9.55858 0.218569 8.84122 0.567414C8.14434 0.906301 7.34194 1.40574 6.35671 2.01721L6.88403 2.86687ZM15.116 2.86687L15.6433 2.01721C14.6581 1.40574 13.8557 0.906301 13.1588 0.567414C12.4414 0.218568 11.7595 0 11 0V1V2C11.3484 2 11.7218 2.09258 12.2841 2.36602C12.8669 2.64942 13.5685 3.08342 14.5886 3.71653L15.116 2.86687ZM9 21V20C7.08517 20 5.75305 19.9977 4.74866 19.858C3.77659 19.7229 3.26106 19.4764 2.89053 19.0931L2.17157 19.7881L1.45262 20.4832C2.25366 21.3118 3.26672 21.6712 4.47317 21.839C5.64728 22.0023 7.1436 22 9 22V21ZM1 12.725H0C0 14.648 -0.00198734 16.1877 0.154788 17.3938C0.314865 18.6254 0.656154 19.6594 1.45262 20.4832L2.17157 19.7881L2.89053 19.0931C2.51542 18.7051 2.27092 18.1579 2.13811 17.136C2.00199 16.0888 2 14.7028 2 12.725H1ZM13 21V22C14.8564 22 16.3527 22.0023 17.5268 21.839C18.7333 21.6712 19.7463 21.3118 20.5474 20.4832L19.8284 19.7881L19.1095 19.0931C18.7389 19.4764 18.2234 19.7229 17.2513 19.858C16.2469 19.9977 14.9148 20 13 20V21ZM21 12.725H20C20 14.7028 19.998 16.0888 19.8619 17.136C19.7291 18.1579 19.4846 18.7051 19.1095 19.0931L19.8284 19.7881L20.5474 20.4832C21.3438 19.6594 21.6851 18.6254 21.8452 17.3938C22.002 16.1877 22 14.648 22 12.725H21ZM17.116 4.10812L16.5886 4.95779C17.5536 5.55665 18.2159 5.96902 18.7071 6.34518C19.1801 6.70747 19.4334 6.99192 19.6036 7.30289L20.4808 6.82274L21.358 6.34259C21.009 5.70503 20.5284 5.22087 19.9231 4.75733C19.3359 4.30766 18.5754 3.83699 17.6433 3.25846L17.116 4.10812ZM21 11.2039H22C22 10.0782 22.001 9.16548 21.9307 8.41732C21.8585 7.64892 21.7061 6.97849 21.358 6.34259L20.4808 6.82274L19.6036 7.30289C19.7747 7.61552 19.8819 7.99147 19.9395 8.60442C19.999 9.2376 20 10.0412 20 11.2039H21ZM4.88403 4.10813L4.35671 3.25846C3.42455 3.83699 2.66406 4.30766 2.0769 4.75733C1.47162 5.22087 0.990997 5.70503 0.642013 6.34259L1.5192 6.82274L2.39639 7.30289C2.5666 6.99192 2.81985 6.70747 3.29292 6.34518C3.7841 5.96902 4.44643 5.55665 5.41136 4.95779L4.88403 4.10813ZM1 11.2039H2C2 10.0412 2.00102 9.2376 2.06051 8.60442C2.11811 7.99147 2.22526 7.61552 2.39639 7.30289L1.5192 6.82274L0.642013 6.34259C0.293939 6.9785 0.141489 7.64892 0.0692859 8.41732C-0.00101674 9.16548 0 10.0782 0 11.2039H1ZM14 12.9998V11.9998L11 11.9998V12.9998V13.9998L14 13.9998V12.9998ZM11 12.9998V11.9998H8V12.9998V13.9998H11V12.9998ZM11 9.99979H10L10 12.9998H11H12L12 9.99979H11ZM11 12.9998H10V15.9998H11H12V12.9998H11Z" fill="#1C274C"/>
</svg>
