<svg width="106" height="106" viewBox="0 0 106 106" fill="none" xmlns="http://www.w3.org/2000/svg">
<path d="M35 57L50 72L75 42" stroke="#FF9BAF" stroke-width="9" stroke-linecap="round" stroke-linejoin="round"/>
<path d="M33.2434 13.961L35.6163 17.7845L33.2434 13.961ZM72.7566 13.961L70.3837 17.7845V17.7845L72.7566 13.961ZM82.3566 19.919L84.7296 16.0955V16.0955L82.3566 19.919ZM23.6434 19.919L26.0163 23.7425H26.0163L23.6434 19.919ZM62.6 101V96.5H43.4V101V105.5H62.6V101ZM23.6434 19.919L26.0163 23.7425L35.6163 17.7845L33.2434 13.961L30.8704 10.1375L21.2704 16.0955L23.6434 19.919ZM72.7566 13.961L70.3837 17.7845L79.9837 23.7425L82.3566 19.919L84.7296 16.0955L75.1296 10.1375L72.7566 13.961ZM5 61.2798H9.5V53.9788H5H0.5V61.2798H5ZM101 53.9788H96.5V61.2798H101H105.5V53.9788H101ZM33.2434 13.961L35.6163 17.7845C40.5077 14.7488 43.8905 12.6558 46.705 11.2871C49.4273 9.96327 51.2658 9.5 53 9.5V5V0.5C49.4161 0.5 46.1891 1.53023 42.7691 3.19338C39.4412 4.81172 35.6047 7.19922 30.8704 10.1375L33.2434 13.961ZM72.7566 13.961L75.1296 10.1375C70.3953 7.19922 66.5588 4.81171 63.2309 3.19338C59.8109 1.53023 56.5839 0.5 53 0.5V5V9.5C54.7342 9.5 56.5727 9.96327 59.295 11.2871C62.1095 12.6558 65.4923 14.7487 70.3837 17.7845L72.7566 13.961ZM43.4 101V96.5C34.2176 96.5 27.7988 96.4898 22.9522 95.8158C18.2512 95.162 15.702 93.9619 13.8588 92.0553L10.6236 95.1831L7.38826 98.3109C11.1687 102.221 15.9568 103.93 21.7125 104.73C27.3228 105.51 34.4805 105.5 43.4 105.5V101ZM5 61.2798H0.5C0.5 70.5188 0.491057 77.886 1.24048 83.6517C2.00476 89.5318 3.62843 94.4218 7.38826 98.3109L10.6236 95.1831L13.8588 92.0553C11.9951 90.1275 10.807 87.428 10.1654 82.4917C9.50894 77.4411 9.5 70.765 9.5 61.2798H5ZM62.6 101V105.5C71.5195 105.5 78.6772 105.51 84.2875 104.73C90.0433 103.93 94.8313 102.221 98.6117 98.3109L95.3764 95.1831L92.1412 92.0553C90.298 93.9619 87.7488 95.162 83.0478 95.8158C78.2012 96.4898 71.7824 96.5 62.6 96.5V101ZM101 61.2798H96.5C96.5 70.765 96.4911 77.4411 95.8346 82.4917C95.193 87.428 94.0049 90.1275 92.1412 92.0553L95.3764 95.1831L98.6117 98.3109C102.372 94.4218 103.995 89.5318 104.76 83.6517C105.509 77.8859 105.5 70.5188 105.5 61.2798H101ZM82.3566 19.919L79.9837 23.7425C84.6104 26.614 87.8043 28.6021 90.1764 30.4187C92.4669 32.1729 93.7166 33.5682 94.5605 35.1098L98.5078 32.9492L102.455 30.7885C100.807 27.7772 98.534 25.4831 95.6485 23.2733C92.8445 21.126 89.2089 18.8755 84.7296 16.0955L82.3566 19.919ZM101 53.9788H105.5C105.5 48.5699 105.505 44.2051 105.169 40.6312C104.824 36.9662 104.099 33.7923 102.455 30.7885L98.5078 32.9492L94.5605 35.1098C95.4084 36.659 95.9296 38.5077 96.2082 41.4732C96.4954 44.5297 96.5 48.4033 96.5 53.9788H101ZM23.6434 19.919L21.2704 16.0955C16.7911 18.8755 13.1555 21.126 10.3515 23.2733C7.46601 25.4831 5.19313 27.7772 3.54482 30.7885L7.49216 32.9492L11.4395 35.1098C12.2834 33.5682 13.5331 32.1729 15.8236 30.4187C18.1957 28.6021 21.3896 26.614 26.0163 23.7425L23.6434 19.919ZM5 53.9788H9.5C9.5 48.4033 9.50458 44.5297 9.79178 41.4732C10.0704 38.5077 10.5916 36.659 11.4395 35.1098L7.49216 32.9492L3.54482 30.7885C1.9006 33.7923 1.17564 36.9662 0.831256 40.6312C0.495425 44.2051 0.5 48.5699 0.5 53.9788H5Z" fill="#FF9BAF"/>
</svg>
