<svg width="1728" height="1117" viewBox="0 0 1728 1117" fill="none" xmlns="http://www.w3.org/2000/svg">
<rect width="1728" height="1117" fill="#C7D8B8"/>
<path d="M0 0H1728V896H0V0Z" fill="url(#paint0_linear_792_1614)"/>
<path d="M233.506 915.35L233.133 915.814L232.902 916.319L232.631 916.812L232.42 917.32L232.023 917.784L231.802 918.289L231.635 918.805L231.398 919.307L230.988 919.774L230.827 920.291L230.752 920.821L230.379 921.299L230.078 921.791L229.869 922.298L229.832 922.829L229.599 923.332L229.226 923.815L229.189 924.344L228.95 924.846L228.799 925.359L228.662 925.872L228.33 926.365L228.168 926.876L227.921 927.379L227.808 927.895L227.627 928.405L227.385 928.91L227.187 929.419L227.257 929.945L227.037 930.453L226.735 930.955L226.746 931.475L226.565 931.985L226.279 932.49L226.112 933.002L225.996 933.516L225.836 934.028L225.859 934.544L225.799 935.058L225.486 935.568L225.335 936.081L225.267 936.593L225.212 937.106L224.969 937.619L224.959 938.131L224.91 938.643L224.669 939.158L224.655 939.669L224.477 940.183L224.382 940.696L224.236 941.21L224.292 941.717L224.1 942.234L223.978 942.748L224.1 943.25L224.014 943.761L223.912 944.274L223.809 944.786L223.61 945.305L223.629 945.811L223.496 946.327L223.506 946.832L223.525 947.335L223.289 947.861L223.305 948.364L223.228 948.877L223.238 949.381L223.237 949.885L223.201 950.393L223.125 950.905L223.138 951.408L223.164 951.908L222.904 952.443L223.01 952.934L223.046 953.433L222.927 953.952L223.032 954.441L222.855 954.969L222.907 955.465L222.994 955.956L222.857 956.479L222.985 956.962L222.831 957.49L222.857 957.989L222.874 958.49L222.908 958.986L223.009 959.473L222.804 960.012L222.91 960.497L223.042 960.975L223.032 961.48L222.955 961.998L223.1 962.473L222.934 963.009L223.025 963.494L223.09 963.985L223 964.508L223.155 964.979L223.158 965.482L223.101 966L223.207 966.48L223.389 966.944L223.392 967.448L223.516 967.922L223.428 968.448L223.391 968.962L223.561 969.426L223.566 969.93L223.772 970.385L223.621 970.928L223.722 971.41L223.996 971.845L224.034 972.341L224.139 972.82L224.081 973.342L224.322 973.785L224.215 974.321L224.252 974.819L224.452 975.271L224.403 975.795L224.574 976.254L224.698 976.728L224.933 977.168L224.872 977.697L224.956 978.181L225.197 978.618L225.105 979.158L225.305 979.607L225.444 980.076L225.595 980.538L225.558 981.062L225.908 981.461L225.923 981.969L226.103 982.422L226.129 982.927L226.274 983.393L226.371 983.874L226.572 984.321L226.516 984.855L226.673 985.316L227.027 985.708L226.984 986.241L227.107 986.714L227.36 987.14L227.348 987.662L227.748 988.033L227.729 988.559L227.869 989.027L227.95 989.517L228.301 989.904L228.51 990.345L228.665 990.806L228.588 991.357L228.904 991.757L228.983 992.248L229.227 992.676L229.332 993.158" stroke="#86AC64" stroke-width="1.05383" stroke-linecap="round" stroke-linejoin="round"/>
<path d="M236.654 949.336L236.386 949.57L236.197 949.807L235.987 950.042L235.811 950.278L235.527 950.515L235.345 950.75L235.194 950.986L235.003 951.222L234.712 951.461L234.565 951.695L234.467 951.928L234.197 952.167L233.968 952.405L233.793 952.641L233.718 952.87L233.53 953.106L233.259 953.348L233.184 953.575L232.992 953.812L232.851 954.044L232.718 954.275L232.471 954.517L232.323 954.75L232.126 954.988L232.007 955.218L231.849 955.451L231.654 955.689L231.485 955.925L231.475 956.141L231.293 956.378L231.063 956.62L231.018 956.84L230.86 957.074L230.638 957.316L230.488 957.55L230.368 957.779L230.221 958.012L230.184 958.228L230.097 958.452L229.86 958.699L229.719 958.931L229.627 959.155L229.544 959.378L229.347 959.62L229.291 959.838L229.211 960.06L229.016 960.302L228.957 960.52L228.799 960.755L228.692 960.982L228.554 961.214L228.537 961.423L228.371 961.662L228.247 961.891L228.27 962.092L228.168 962.317L228.057 962.545L227.945 962.772L227.774 963.012L227.735 963.224L227.605 963.456L227.56 963.669L227.522 963.881L227.329 964.127L227.289 964.338L227.192 964.563L227.148 964.776L227.097 964.99L227.026 965.209L226.929 965.433L226.887 965.645L226.853 965.854L226.645 966.107L226.66 966.304L226.632 966.512L226.509 966.744L226.523 966.941L226.365 967.182L226.347 967.387L226.351 967.587L226.217 967.822L226.246 968.014L226.102 968.253L226.067 968.462L226.028 968.673L225.999 968.879L226.011 969.076L225.835 969.324L225.85 969.519L225.882 969.709L225.826 969.924L225.729 970.151L225.768 970.338L225.616 970.582L225.622 970.778L225.612 970.98L225.507 971.211L225.553 971.395L225.504 971.608L225.419 971.833L225.435 972.026L225.498 972.204L225.45 972.418L225.477 972.606L225.372 972.838L225.299 973.059L225.355 973.239L225.307 973.452L225.385 973.625L225.241 973.87L225.254 974.064L225.375 974.221L225.348 974.428L225.364 974.62L225.277 974.847L225.377 975.011L225.26 975.249L225.233 975.456L225.308 975.628L225.226 975.855L225.283 976.033L225.31 976.221L225.407 976.384L225.318 976.614L225.321 976.811L225.421 976.973L225.312 977.211L225.388 977.381L225.424 977.566L225.469 977.747L225.395 977.973L225.564 978.107L225.523 978.321L225.585 978.495L225.551 978.707L225.591 978.889L225.602 979.084L225.677 979.253L225.591 979.485L225.639 979.665L225.812 979.796L225.733 980.026L225.76 980.214L225.869 980.37L225.81 980.592L226.012 980.71L225.949 980.935L225.986 981.119L225.986 981.319L226.157 981.448L226.238 981.614L226.285 981.794L226.185 982.036L226.334 982.173L226.332 982.374L226.436 982.531L226.451 982.725" stroke="#86AC64" stroke-width="1.05383" stroke-linecap="round" stroke-linejoin="round"/>
<path d="M211.134 957.986L212.68 959.369L214.863 958.176L214.79 957.52L212.722 956.922L211.134 957.986Z" fill="#A0C871"/>
<path d="M205.048 962.802C205.048 962.802 208.644 969.14 213.126 970.207C213.126 970.207 215.234 972.061 216.46 974.978C216.46 974.978 215.503 974.26 223.568 981.928C223.568 981.928 228.333 995.205 227.198 996.715L230.534 995.751L227.85 982.607C227.85 982.607 223.309 968.53 222.016 965.633C222.016 965.633 219.365 960.938 217.399 960.239C217.399 960.239 216.908 958.133 214.795 957.534L205.052 962.815L205.048 962.802Z" fill="#86AC64"/>
<path d="M208.661 957.463C208.661 957.463 208.416 957.376 208.019 957.274C206.798 956.965 204.104 956.49 202.102 957.746C202.102 957.746 199.081 959.801 200.302 961.177C200.302 961.177 196.606 961.252 196.144 965.752C196.144 965.752 192.651 968.765 195.324 973.179C195.324 973.179 192.991 978.58 197.542 981.818C197.542 981.818 200.332 982.827 201.12 976.863C201.12 976.863 200.771 973.42 203.586 972.231C203.586 972.231 207.218 970.359 206.761 965.578C206.761 965.578 207.546 963.16 208.999 963.663C208.999 963.663 212.269 963.077 212.812 958.554C212.812 958.554 211.255 956.728 214.777 957.525C214.777 957.525 210.146 955.737 208.644 957.454L208.661 957.463Z" fill="#C8E2B0"/>
<path d="M197.482 977.455C197.482 977.455 200.298 958.585 208.645 957.468" stroke="#5A8552" stroke-width="0.769286" stroke-miterlimit="10" stroke-linecap="round"/>
<path d="M221.708 906.471C221.708 906.471 204.384 893.178 215.215 889.393C215.215 889.393 222.908 888.685 229.155 903.086C229.155 903.086 234.201 886.008 242.14 888.193C242.14 888.193 249.587 890.839 237.094 906.471C237.094 906.471 251.772 901.917 255.834 906.471C255.834 906.471 261.003 912.995 251.495 914.41H243.094C243.094 914.41 254.387 920.411 253.68 924.503C253.68 924.503 254.357 929.211 247.895 927.642C247.895 927.642 240.448 924.503 237.309 919.703C237.309 919.703 250.295 933.642 242.602 935.827C242.602 935.827 235.863 939.674 229.616 921.149C229.616 921.149 226.262 937.735 213.984 938.689C213.984 938.689 208.353 937.735 211.523 930.042L218.292 917.764C218.292 917.764 202.476 921.426 201.768 913.364C201.768 913.364 198.63 906.964 221.739 906.471H221.708Z" fill="#FFD9EE"/>
<path d="M236.134 946.99C236.134 946.99 230.283 942.456 233.941 941.165C233.941 941.165 236.539 940.923 238.649 945.836C238.649 945.836 240.353 940.01 243.035 940.755C243.035 940.755 245.549 941.658 241.33 946.99C241.33 946.99 246.287 945.437 247.659 946.99C247.659 946.99 249.405 949.216 246.194 949.698H243.357C243.357 949.698 247.171 951.745 246.932 953.141C246.932 953.141 247.16 954.747 244.978 954.212C244.978 954.212 242.463 953.141 241.403 951.504C241.403 951.504 245.788 956.259 243.19 957.004C243.19 957.004 240.915 958.316 238.805 951.997C238.805 951.997 237.672 957.655 233.526 957.98C233.526 957.98 231.624 957.655 232.694 955.031L234.981 950.843C234.981 950.843 229.639 952.092 229.4 949.342C229.4 949.342 228.34 947.158 236.144 946.99H236.134Z" fill="#FFD9EE"/>
<path d="M229.218 915.396C231.614 915.396 233.556 913.784 233.556 911.796C233.556 909.807 231.614 908.195 229.218 908.195C226.821 908.195 224.879 909.807 224.879 911.796C224.879 913.784 226.821 915.396 229.218 915.396Z" fill="white"/>
<g filter="url(#filter0_d_792_1614)">
<path d="M1625.55 618.454C1627.06 616.374 1628.26 614.124 1629.19 611.925C1628.92 614.3 1628.83 616.844 1629.11 619.401C1630.22 629.521 1637.58 636.081 1642.1 634.852C1646.63 633.623 1649.66 624.24 1645.49 614.951C1644.51 612.754 1643.25 610.727 1641.91 608.912C1643.73 610.252 1645.75 611.508 1647.95 612.494C1657.24 616.659 1666.62 613.628 1667.85 609.104C1669.08 604.58 1662.52 597.218 1652.4 596.111C1649.84 595.831 1647.3 595.915 1644.92 596.194C1647.12 595.256 1649.37 594.064 1651.45 592.55C1659.68 586.56 1661.72 576.911 1658.4 573.596C1655.09 570.281 1645.44 572.315 1639.45 580.546C1637.94 582.626 1636.74 584.876 1635.81 587.074C1636.08 584.7 1636.17 582.155 1635.89 579.598C1634.78 569.478 1627.42 562.918 1622.9 564.148C1618.37 565.377 1615.34 574.76 1619.51 584.049C1620.49 586.247 1621.75 588.273 1623.09 590.088C1621.27 588.748 1619.25 587.492 1617.05 586.506C1607.76 582.341 1598.38 585.372 1597.15 589.896C1595.92 594.42 1602.48 601.783 1612.6 602.889C1615.16 603.169 1617.7 603.085 1620.07 602.806C1617.88 603.744 1615.63 604.936 1613.55 606.45C1605.31 612.44 1603.28 622.089 1606.6 625.404C1609.91 628.719 1619.56 626.685 1625.55 618.454Z" fill="url(#paint1_radial_792_1614)" shape-rendering="crispEdges"/>
</g>
<g filter="url(#filter1_d_792_1614)">
<path d="M129.878 535.623C130.667 536.707 131.288 537.879 131.777 539.025C131.632 537.788 131.588 536.461 131.734 535.129C132.31 529.855 136.147 526.436 138.505 527.077C140.862 527.717 142.442 532.608 140.271 537.448C139.758 538.593 139.103 539.649 138.405 540.595C139.351 539.897 140.407 539.242 141.552 538.729C146.393 536.558 151.283 538.138 151.923 540.495C152.564 542.853 149.145 546.689 143.871 547.266C142.538 547.412 141.212 547.368 139.975 547.223C141.121 547.712 142.293 548.333 143.377 549.122C147.667 552.243 148.726 557.272 146.999 558.999C145.271 560.727 140.243 559.667 137.121 555.377C136.333 554.294 135.711 553.121 135.223 551.975C135.368 553.213 135.412 554.539 135.266 555.871C134.689 561.145 130.853 564.564 128.495 563.923C126.138 563.283 124.558 558.393 126.729 553.552C127.242 552.406 127.897 551.351 128.595 550.405C127.649 551.103 126.594 551.758 125.448 552.271C120.607 554.442 115.717 552.862 115.077 550.505C114.436 548.147 117.855 544.311 123.129 543.734C124.461 543.588 125.787 543.632 127.025 543.777C125.879 543.288 124.706 542.667 123.623 541.878C119.333 538.757 118.273 533.728 120.001 532.001C121.728 530.273 126.757 531.333 129.878 535.623L129.878 535.623Z" fill="url(#paint2_linear_792_1614)" shape-rendering="crispEdges"/>
</g>
<g filter="url(#filter2_d_792_1614)">
<path d="M166.18 189.191C167.992 186.701 169.419 184.007 170.542 181.375C170.208 184.218 170.107 187.264 170.442 190.326C171.767 202.441 180.582 210.295 185.998 208.823C191.414 207.352 195.042 196.118 190.056 184.998C188.876 182.367 187.372 179.941 185.768 177.768C187.941 179.372 190.367 180.876 192.998 182.056C204.118 187.043 215.352 183.414 216.823 177.998C218.295 172.582 210.441 163.768 198.325 162.443C195.264 162.108 192.218 162.209 189.375 162.542C192.008 161.419 194.701 159.992 197.191 158.18C207.045 151.009 209.48 139.457 205.511 135.489C201.542 131.52 189.99 133.954 182.819 143.809C181.007 146.298 179.58 148.992 178.457 151.624C178.791 148.782 178.892 145.735 178.557 142.674C177.232 130.559 168.418 122.705 163.002 124.177C157.586 125.648 153.957 136.882 158.944 148.002C160.124 150.634 161.628 153.059 163.232 155.232C161.059 153.628 158.634 152.124 156.002 150.944C144.882 145.957 133.647 149.586 132.177 155.002C130.705 160.418 138.559 169.233 150.674 170.557C153.735 170.893 156.782 170.792 159.624 170.458C156.992 171.581 154.298 173.008 151.809 174.82C141.954 181.991 139.52 193.543 143.489 197.512C147.457 201.48 159.009 199.046 166.18 189.192L166.18 189.191Z" fill="url(#paint3_linear_792_1614)" shape-rendering="crispEdges"/>
</g>
<g filter="url(#filter3_d_792_1614)">
<path d="M1659 526C1660.45 532.486 1665.51 537.549 1672 539C1665.51 540.449 1660.45 545.514 1659 552C1657.55 545.514 1652.49 540.451 1646 539C1652.49 537.551 1657.55 532.486 1659 526Z" fill="#FFFEFF"/>
</g>
<g filter="url(#filter4_d_792_1614)">
<path d="M240 187C242.451 197.976 251.024 206.545 262 209C251.024 211.451 242.455 220.024 240 231C237.549 220.024 228.976 211.455 218 209C228.976 206.549 237.545 197.976 240 187Z" fill="#FFFEFF"/>
</g>
<defs>
<filter id="filter0_d_792_1614" x="1547" y="514" width="171" height="171" filterUnits="userSpaceOnUse" color-interpolation-filters="sRGB">
<feFlood flood-opacity="0" result="BackgroundImageFix"/>
<feColorMatrix in="SourceAlpha" type="matrix" values="0 0 0 0 0 0 0 0 0 0 0 0 0 0 0 0 0 0 127 0" result="hardAlpha"/>
<feOffset/>
<feGaussianBlur stdDeviation="25"/>
<feComposite in2="hardAlpha" operator="out"/>
<feColorMatrix type="matrix" values="0 0 0 0 1 0 0 0 0 1 0 0 0 0 1 0 0 0 0.8 0"/>
<feBlend mode="normal" in2="BackgroundImageFix" result="effect1_dropShadow_792_1614"/>
<feBlend mode="normal" in="SourceGraphic" in2="effect1_dropShadow_792_1614" result="shape"/>
</filter>
<filter id="filter1_d_792_1614" x="85" y="497" width="97" height="97" filterUnits="userSpaceOnUse" color-interpolation-filters="sRGB">
<feFlood flood-opacity="0" result="BackgroundImageFix"/>
<feColorMatrix in="SourceAlpha" type="matrix" values="0 0 0 0 0 0 0 0 0 0 0 0 0 0 0 0 0 0 127 0" result="hardAlpha"/>
<feOffset/>
<feGaussianBlur stdDeviation="15"/>
<feComposite in2="hardAlpha" operator="out"/>
<feColorMatrix type="matrix" values="0 0 0 0 1 0 0 0 0 1 0 0 0 0 1 0 0 0 0.8 0"/>
<feBlend mode="normal" in2="BackgroundImageFix" result="effect1_dropShadow_792_1614"/>
<feBlend mode="normal" in="SourceGraphic" in2="effect1_dropShadow_792_1614" result="shape"/>
</filter>
<filter id="filter2_d_792_1614" x="82" y="74" width="185" height="185" filterUnits="userSpaceOnUse" color-interpolation-filters="sRGB">
<feFlood flood-opacity="0" result="BackgroundImageFix"/>
<feColorMatrix in="SourceAlpha" type="matrix" values="0 0 0 0 0 0 0 0 0 0 0 0 0 0 0 0 0 0 127 0" result="hardAlpha"/>
<feOffset/>
<feGaussianBlur stdDeviation="25"/>
<feComposite in2="hardAlpha" operator="out"/>
<feColorMatrix type="matrix" values="0 0 0 0 1 0 0 0 0 1 0 0 0 0 1 0 0 0 0.3 0"/>
<feBlend mode="normal" in2="BackgroundImageFix" result="effect1_dropShadow_792_1614"/>
<feBlend mode="normal" in="SourceGraphic" in2="effect1_dropShadow_792_1614" result="shape"/>
</filter>
<filter id="filter3_d_792_1614" x="1596" y="476" width="126" height="126" filterUnits="userSpaceOnUse" color-interpolation-filters="sRGB">
<feFlood flood-opacity="0" result="BackgroundImageFix"/>
<feColorMatrix in="SourceAlpha" type="matrix" values="0 0 0 0 0 0 0 0 0 0 0 0 0 0 0 0 0 0 127 0" result="hardAlpha"/>
<feOffset/>
<feGaussianBlur stdDeviation="25"/>
<feComposite in2="hardAlpha" operator="out"/>
<feColorMatrix type="matrix" values="0 0 0 0 1 0 0 0 0 1 0 0 0 0 1 0 0 0 0.8 0"/>
<feBlend mode="normal" in2="BackgroundImageFix" result="effect1_dropShadow_792_1614"/>
<feBlend mode="normal" in="SourceGraphic" in2="effect1_dropShadow_792_1614" result="shape"/>
</filter>
<filter id="filter4_d_792_1614" x="138" y="107" width="204" height="204" filterUnits="userSpaceOnUse" color-interpolation-filters="sRGB">
<feFlood flood-opacity="0" result="BackgroundImageFix"/>
<feColorMatrix in="SourceAlpha" type="matrix" values="0 0 0 0 0 0 0 0 0 0 0 0 0 0 0 0 0 0 127 0" result="hardAlpha"/>
<feOffset/>
<feGaussianBlur stdDeviation="40"/>
<feComposite in2="hardAlpha" operator="out"/>
<feColorMatrix type="matrix" values="0 0 0 0 1 0 0 0 0 1 0 0 0 0 1 0 0 0 1 0"/>
<feBlend mode="normal" in2="BackgroundImageFix" result="effect1_dropShadow_792_1614"/>
<feBlend mode="normal" in="SourceGraphic" in2="effect1_dropShadow_792_1614" result="shape"/>
</filter>
<linearGradient id="paint0_linear_792_1614" x1="864" y1="0" x2="864" y2="896" gradientUnits="userSpaceOnUse">
<stop stop-color="#507EAC"/>
<stop offset="1" stop-color="#C69FD4"/>
</linearGradient>
<radialGradient id="paint1_radial_792_1614" cx="0" cy="0" r="1" gradientTransform="matrix(-27.6599 34.5625 -34.5579 -27.6534 1640.34 587.312)" gradientUnits="userSpaceOnUse">
<stop offset="0.206731" stop-color="white" stop-opacity="0.8"/>
<stop offset="1" stop-color="white" stop-opacity="0.2"/>
</radialGradient>
<linearGradient id="paint2_linear_792_1614" x1="152" y1="569.863" x2="123.173" y2="533.838" gradientUnits="userSpaceOnUse">
<stop offset="0.326923" stop-color="white"/>
<stop offset="1" stop-color="white" stop-opacity="0.2"/>
</linearGradient>
<linearGradient id="paint3_linear_792_1614" x1="217" y1="110.532" x2="150.776" y2="193.29" gradientUnits="userSpaceOnUse">
<stop offset="0.471154" stop-color="white"/>
<stop offset="1" stop-color="white" stop-opacity="0.2"/>
</linearGradient>
</defs>
</svg>
