<svg width="162" height="87" viewBox="0 0 162 87" fill="none" xmlns="http://www.w3.org/2000/svg">
<path d="M152.625 0C157.803 1.54622e-06 162 4.19733 162 9.375V50.625C162 55.8027 157.803 60 152.625 60H139.875L133.156 87L126.438 60H9.375C4.19733 60 0 55.8027 0 50.625V9.375C0 4.19733 4.19733 2.41597e-07 9.375 0H152.625Z" fill="#FF9BAF"/>
<path d="M121.694 20C115.798 20 111 24.7984 111 30.6936C111 36.5888 115.798 41.4215 121.728 41.4215C127.657 41.4215 132.456 36.6231 132.456 30.6936C132.456 24.7641 127.589 20 121.694 20ZM121.694 39.8792C116.621 39.8792 112.508 35.7662 112.508 30.6936C112.508 25.621 116.655 21.5423 121.694 21.5423C126.732 21.5423 130.879 25.6553 130.879 30.7279C130.879 35.8005 126.766 39.8792 121.694 39.8792Z" fill="white"/>
<path d="M117.582 28.9119C118.339 28.9119 118.953 28.2981 118.953 27.5409C118.953 26.7837 118.339 26.1699 117.582 26.1699C116.825 26.1699 116.211 26.7837 116.211 27.5409C116.211 28.2981 116.825 28.9119 117.582 28.9119Z" fill="white"/>
<path d="M125.805 28.9119C126.562 28.9119 127.176 28.2981 127.176 27.5409C127.176 26.7837 126.562 26.1699 125.805 26.1699C125.047 26.1699 124.434 26.7837 124.434 27.5409C124.434 28.2981 125.047 28.9119 125.805 28.9119Z" fill="white"/>
<path d="M127.247 30.625C126.836 30.625 126.459 30.9677 126.459 31.4133C126.493 33.8468 124.505 35.8347 122.072 35.8347C121.66 35.8347 121.283 36.1775 121.283 36.623C121.283 37.0686 121.626 37.4113 122.072 37.4113C125.362 37.4113 128.035 34.7379 128.035 31.4476C128.035 31.002 127.693 30.625 127.247 30.625Z" fill="white"/>
<path d="M28.94 33.16L27.36 31.18C29.14 30.58 30.54 29.76 31.56 28.72C32.16 28.1 32.6 27.34 32.88 26.48H28.56V24.28H39.92V26.48H35.74C35.64 26.86 35.5 27.22 35.36 27.56L35.28 27.76C35.42 27.96 35.58 28.14 35.74 28.3C36.94 29.5 38.54 30.14 40.48 30.54L39.08 32.64C37.36 32.36 35.58 31.38 34.28 30L34.02 29.72C33.94 29.82 33.86 29.92 33.76 30.02C32.46 31.46 30.7 32.54 28.94 33.16ZM30.7 33.78H33.38V37.06H44.94V39.34H30.7V33.78ZM44.36 35.12H41.68V21.62H44.36V35.12ZM37.6 23.4H30.88V21.2H37.6V23.4ZM56.4867 39.54H53.7667V32.38H46.5267V30.1H58.8667C58.9267 29.84 58.9867 29.58 59.0267 29.32C59.3867 27.52 59.5667 25.7 59.6467 24.38H48.1467V22.14H62.4067C62.3667 23.96 62.2467 25.64 62.0267 27.18C61.8867 28.28 61.7067 29.24 61.5267 30.1H64.1267V32.38H56.4867V39.54ZM83.0134 32.38H65.4134V30.14H72.8534V28.62H67.3334V21.9H81.0934V28.62H75.5734V30.14H83.0134V32.38ZM81.1734 39.62H78.4934V35.86H66.8134V33.58H81.1734V39.62ZM70.0134 24.14V26.38H78.4134V24.14H70.0134ZM100.28 29.9H94.5602V31H101.9V33.12H84.3002V31H91.8402V29.9H86.2002V24.84H97.3002V23.94H86.2002V21.82H99.9802V26.84H88.8802V27.76H100.28V29.9ZM100.06 39.62H97.3802V36.18H85.7002V33.98H100.06V39.62Z" fill="white"/>
</svg>
