<svg width="34" height="34" viewBox="0 0 34 34" fill="none" xmlns="http://www.w3.org/2000/svg">
<path d="M28.2806 23.2392L31.1986 14.4854C33.7477 6.83811 35.0222 3.01448 33.0039 0.996121C30.9855 -1.02224 27.1619 0.252306 19.5147 2.80139L10.7608 5.71935C4.5887 7.7767 1.50266 8.80538 0.6257 10.3139C-0.208566 11.7489 -0.208567 13.5213 0.625699 14.9563C1.50266 16.4648 4.5887 17.4935 10.7608 19.5508C11.5257 19.8058 12.3862 19.6238 12.959 19.0563L22.3186 9.78342C22.8451 9.26174 23.6949 9.2657 24.2166 9.79225C24.7383 10.3188 24.7343 11.1686 24.2077 11.6903L14.9993 20.8134C14.368 21.4389 14.1681 22.3962 14.4492 23.2392C16.5065 29.4113 17.5352 32.4973 19.0437 33.3743C20.4787 34.2086 22.2511 34.2086 23.6861 33.3743C25.1946 32.4973 26.2233 29.4113 28.2806 23.2392Z" fill="black" fill-opacity="0.6"/>
</svg>
