<svg width="34" height="34" viewBox="0 0 34 34" fill="none" xmlns="http://www.w3.org/2000/svg">
<path opacity="0.9" fill-rule="evenodd" clip-rule="evenodd" d="M27.7565 2.64039C25.8622 2.97736 23.3084 3.82519 19.7243 5.01988L11.6109 7.72437C8.72891 8.68502 6.6415 9.38187 5.16713 10.0089C3.62568 10.6646 3.07734 11.1215 2.89925 11.4279C2.35071 12.3714 2.35071 13.5368 2.89925 14.4803C3.07734 14.7867 3.62568 15.2437 5.16713 15.8993C6.6415 16.5264 8.72891 17.2232 11.6109 18.1838C11.6564 18.199 11.7013 18.214 11.7457 18.2287C12.3603 18.4332 12.8681 18.6021 13.3118 18.8341L21.9306 10.3103C22.419 9.8272 23.2066 9.83156 23.6897 10.32C24.1728 10.8085 24.1684 11.5961 23.68 12.0792L15.0991 20.5654C15.3666 21.0379 15.5477 21.5823 15.7713 22.2543C15.786 22.2987 15.801 22.3436 15.8162 22.3891C16.7768 25.2711 17.4736 27.3585 18.1007 28.8329C18.7563 30.3743 19.2133 30.9227 19.5197 31.1007C20.4632 31.6493 21.6286 31.6493 22.5721 31.1007C22.8785 30.9227 23.3354 30.3743 23.991 28.8329C24.6181 27.3585 25.315 25.2711 26.2756 22.3892L28.9801 14.2757C30.1748 10.6916 31.0226 8.13777 31.3596 6.24352C31.6982 4.34025 31.4394 3.53178 30.9538 3.04617C30.4682 2.56056 29.6598 2.30182 27.7565 2.64039ZM27.3208 0.190998C29.4291 -0.184053 31.3279 -0.0980937 32.713 1.287C34.0981 2.67209 34.1841 4.57093 33.809 6.67925C33.4362 8.77483 32.5271 11.502 31.3762 14.9546L28.6159 23.2357C27.6793 26.0454 26.9516 28.2287 26.2804 29.8066C25.6331 31.3286 24.9143 32.6168 23.8225 33.2515C22.1059 34.2495 19.9858 34.2495 18.2693 33.2515C17.1775 32.6168 16.4587 31.3286 15.8113 29.8066C15.1402 28.2287 14.4125 26.0455 13.4759 23.2358L13.456 23.1759C13.1279 22.1915 13.0278 21.9245 12.8861 21.7128C12.7276 21.476 12.5241 21.2725 12.2872 21.1139C12.0755 20.9722 11.8085 20.8722 10.8241 20.544L10.7642 20.524C7.95448 19.5875 5.77131 18.8598 4.19341 18.1887C2.67137 17.5413 1.38317 16.8225 0.748448 15.7307C-0.249483 14.0141 -0.249483 11.8941 0.74845 10.1775C1.38317 9.08572 2.67137 8.36692 4.19341 7.71957C5.77133 7.04845 7.95453 6.32072 10.7643 5.38415L19.0454 2.62377C22.4981 1.47285 25.2252 0.563784 27.3208 0.190998Z" fill="black" fill-opacity="0.6"/>
</svg>
