<svg width="88" height="142" viewBox="0 0 88 142" fill="none" xmlns="http://www.w3.org/2000/svg">
<path d="M45.3163 141.498C51.6174 141.498 56.7255 136.39 56.7255 130.089C56.7255 123.788 51.6174 118.68 45.3163 118.68C39.0153 118.68 33.9072 123.788 33.9072 130.089C33.9072 136.39 39.0153 141.498 45.3163 141.498Z" fill="#FFEA83"/>
<path d="M0.15342 128.095C0.15342 128.095 -3.59643 101.288 25.8638 87.864C37.0336 82.7778 49.8389 82.0398 61.248 86.5675C71.8393 90.7761 83.5078 99.6122 87.098 118.202C88.1352 123.567 85.2032 128.993 80.1169 130.987C79.7579 131.127 79.359 131.267 78.9601 131.406C76.387 132.264 73.5547 132.403 71.0216 131.446C69.5057 130.868 67.91 129.87 66.7531 128.175C66.7531 128.175 64.1801 130.888 55.4038 131.147C55.4038 131.147 50.537 131.286 47.8244 128.175C47.8244 128.175 38.9085 135.475 25.784 129.93C25.784 129.93 12.2606 138.726 7.11458 136.413C7.11458 136.413 0.0736364 135.136 0.133474 128.095H0.15342Z" fill="#FFD1D4"/>
<path d="M41.8799 89.3203C45.6142 89.3203 48.6416 86.2929 48.6416 82.5586C48.6416 78.8242 45.6142 75.7969 41.8799 75.7969C38.1455 75.7969 35.1182 78.8242 35.1182 82.5586C35.1182 86.2929 38.1455 89.3203 41.8799 89.3203Z" fill="#D8C08B"/>
<path d="M43.642 1C43.642 1 45.4371 69.4547 41.8867 77.7722" stroke="#D8C08B" stroke-width="4.18822" stroke-miterlimit="10"/>
</svg>
