<svg width="104" height="157" viewBox="0 0 104 157" fill="none" xmlns="http://www.w3.org/2000/svg">
<path d="M53.3173 148.499C59.6184 148.499 64.7264 143.391 64.7264 137.09C64.7264 130.789 59.6184 125.681 53.3173 125.681C47.0162 125.681 41.9082 130.789 41.9082 137.09C41.9082 143.391 47.0162 148.499 53.3173 148.499Z" fill="white" stroke="white" stroke-width="16" stroke-miterlimit="10" stroke-linecap="round"/>
<path d="M8.1544 135.095C8.1544 135.095 4.40455 108.288 33.8648 94.864C45.0346 89.7778 57.8399 89.0398 69.249 93.5675C79.8403 97.7761 91.5087 106.612 95.099 125.202C96.1362 130.567 93.2041 135.993 88.1179 137.987C87.7589 138.127 87.36 138.267 86.961 138.406C84.388 139.264 81.5557 139.403 79.0225 138.446C77.5066 137.868 75.911 136.87 74.7541 135.175C74.7541 135.175 72.1811 137.888 63.4048 138.147C63.4048 138.147 58.538 138.286 55.8253 135.175C55.8253 135.175 46.9095 142.475 33.785 136.93C33.785 136.93 20.2616 145.726 15.1156 143.413C15.1156 143.413 8.07461 142.136 8.13445 135.095H8.1544Z" fill="#FFD1D4" stroke="white" stroke-width="16" stroke-miterlimit="10" stroke-linecap="round"/>
<path d="M49.8789 96.3203C53.6133 96.3203 56.6406 93.2929 56.6406 89.5586C56.6406 85.8242 53.6133 82.7969 49.8789 82.7969C46.1445 82.7969 43.1172 85.8242 43.1172 89.5586C43.1172 93.2929 46.1445 96.3203 49.8789 96.3203Z" fill="#D8C08B" stroke="white" stroke-width="16" stroke-miterlimit="10" stroke-linecap="round"/>
<path d="M51.642 8C51.642 8 53.4371 76.4547 49.8867 84.7722" stroke="white" stroke-width="16" stroke-miterlimit="10" stroke-linecap="round"/>
<path d="M53.3173 148.499C59.6184 148.499 64.7264 143.391 64.7264 137.09C64.7264 130.789 59.6184 125.681 53.3173 125.681C47.0162 125.681 41.9082 130.789 41.9082 137.09C41.9082 143.391 47.0162 148.499 53.3173 148.499Z" fill="white" stroke="#868686" stroke-width="1.5" stroke-miterlimit="10"/>
<path d="M8.1544 135.095C8.1544 135.095 4.40455 108.288 33.8648 94.864C45.0346 89.7778 57.8399 89.0398 69.249 93.5675C79.8403 97.7761 91.5087 106.612 95.099 125.202C96.1362 130.567 93.2041 135.993 88.1179 137.987C87.7589 138.127 87.36 138.267 86.961 138.406C84.388 139.264 81.5557 139.403 79.0225 138.446C77.5066 137.868 75.911 136.87 74.7541 135.175C74.7541 135.175 72.1811 137.888 63.4048 138.147C63.4048 138.147 58.538 138.286 55.8253 135.175C55.8253 135.175 46.9095 142.475 33.785 136.93C33.785 136.93 20.2616 145.726 15.1156 143.413C15.1156 143.413 8.07461 142.136 8.13445 135.095H8.1544Z" fill="#FFD1D4"/>
<path d="M49.8789 96.3203C53.6133 96.3203 56.6406 93.2929 56.6406 89.5586C56.6406 85.8242 53.6133 82.7969 49.8789 82.7969C46.1445 82.7969 43.1172 85.8242 43.1172 89.5586C43.1172 93.2929 46.1445 96.3203 49.8789 96.3203Z" fill="#D8C08B"/>
<path d="M51.642 8C51.642 8 53.4371 76.4547 49.8867 84.7722" stroke="#D8C08B" stroke-width="4.18822" stroke-miterlimit="10"/>
</svg>
