<svg width="106" height="159" viewBox="0 0 106 159" fill="none" xmlns="http://www.w3.org/2000/svg">
<path d="M54.3173 149.499C60.6184 149.499 65.7264 144.391 65.7264 138.09C65.7264 131.789 60.6184 126.681 54.3173 126.681C48.0162 126.681 42.9082 131.789 42.9082 138.09C42.9082 144.391 48.0162 149.499 54.3173 149.499Z" fill="white" stroke="black" stroke-width="18" stroke-miterlimit="10" stroke-linecap="round"/>
<path d="M9.1544 136.095C9.1544 136.095 5.40455 109.288 34.8648 95.864C46.0346 90.7778 58.8399 90.0398 70.249 94.5675C80.8403 98.7761 92.5087 107.612 96.099 126.202C97.1362 131.567 94.2041 136.993 89.1179 138.987C88.7589 139.127 88.36 139.267 87.961 139.406C85.388 140.264 82.5557 140.403 80.0225 139.446C78.5066 138.868 76.911 137.87 75.7541 136.175C75.7541 136.175 73.1811 138.888 64.4048 139.147C64.4048 139.147 59.538 139.286 56.8253 136.175C56.8253 136.175 47.9095 143.475 34.785 137.93C34.785 137.93 21.2616 146.726 16.1156 144.413C16.1156 144.413 9.07461 143.136 9.13445 136.095H9.1544Z" fill="#FFD1D4" stroke="black" stroke-width="18" stroke-miterlimit="10" stroke-linecap="round"/>
<path d="M50.8789 97.3203C54.6133 97.3203 57.6406 94.2929 57.6406 90.5586C57.6406 86.8242 54.6133 83.7969 50.8789 83.7969C47.1445 83.7969 44.1172 86.8242 44.1172 90.5586C44.1172 94.2929 47.1445 97.3203 50.8789 97.3203Z" fill="#D8C08B" stroke="black" stroke-width="18" stroke-miterlimit="10" stroke-linecap="round"/>
<path d="M52.642 9C52.642 9 54.4371 77.4547 50.8867 85.7722" stroke="black" stroke-width="18" stroke-miterlimit="10" stroke-linecap="round"/>
<path d="M54.3173 149.499C60.6184 149.499 65.7264 144.391 65.7264 138.09C65.7264 131.789 60.6184 126.681 54.3173 126.681C48.0162 126.681 42.9082 131.789 42.9082 138.09C42.9082 144.391 48.0162 149.499 54.3173 149.499Z" fill="white" stroke="white" stroke-width="16" stroke-miterlimit="10" stroke-linecap="round"/>
<path d="M9.1544 136.095C9.1544 136.095 5.40455 109.288 34.8648 95.864C46.0346 90.7778 58.8399 90.0398 70.249 94.5675C80.8403 98.7761 92.5087 107.612 96.099 126.202C97.1362 131.567 94.2041 136.993 89.1179 138.987C88.7589 139.127 88.36 139.267 87.961 139.406C85.388 140.264 82.5557 140.403 80.0225 139.446C78.5066 138.868 76.911 137.87 75.7541 136.175C75.7541 136.175 73.1811 138.888 64.4048 139.147C64.4048 139.147 59.538 139.286 56.8253 136.175C56.8253 136.175 47.9095 143.475 34.785 137.93C34.785 137.93 21.2616 146.726 16.1156 144.413C16.1156 144.413 9.07461 143.136 9.13445 136.095H9.1544Z" fill="#FFD1D4" stroke="white" stroke-width="16" stroke-miterlimit="10" stroke-linecap="round"/>
<path d="M50.8789 97.3203C54.6133 97.3203 57.6406 94.2929 57.6406 90.5586C57.6406 86.8242 54.6133 83.7969 50.8789 83.7969C47.1445 83.7969 44.1172 86.8242 44.1172 90.5586C44.1172 94.2929 47.1445 97.3203 50.8789 97.3203Z" fill="#D8C08B" stroke="white" stroke-width="16" stroke-miterlimit="10" stroke-linecap="round"/>
<path d="M52.642 9C52.642 9 54.4371 77.4547 50.8867 85.7722" stroke="white" stroke-width="16" stroke-miterlimit="10" stroke-linecap="round"/>
<path d="M54.3173 149.499C60.6184 149.499 65.7264 144.391 65.7264 138.09C65.7264 131.789 60.6184 126.681 54.3173 126.681C48.0162 126.681 42.9082 131.789 42.9082 138.09C42.9082 144.391 48.0162 149.499 54.3173 149.499Z" fill="#FFEA83"/>
<path d="M9.1544 136.095C9.1544 136.095 5.40455 109.288 34.8648 95.864C46.0346 90.7778 58.8399 90.0398 70.249 94.5675C80.8403 98.7761 92.5087 107.612 96.099 126.202C97.1362 131.567 94.2041 136.993 89.1179 138.987C88.7589 139.127 88.36 139.267 87.961 139.406C85.388 140.264 82.5557 140.403 80.0225 139.446C78.5066 138.868 76.911 137.87 75.7541 136.175C75.7541 136.175 73.1811 138.888 64.4048 139.147C64.4048 139.147 59.538 139.286 56.8253 136.175C56.8253 136.175 47.9095 143.475 34.785 137.93C34.785 137.93 21.2616 146.726 16.1156 144.413C16.1156 144.413 9.07461 143.136 9.13445 136.095H9.1544Z" fill="#FFD1D4"/>
<path d="M50.8789 97.3203C54.6133 97.3203 57.6406 94.2929 57.6406 90.5586C57.6406 86.8242 54.6133 83.7969 50.8789 83.7969C47.1445 83.7969 44.1172 86.8242 44.1172 90.5586C44.1172 94.2929 47.1445 97.3203 50.8789 97.3203Z" fill="#D8C08B"/>
<path d="M52.642 9C52.642 9 54.4371 77.4547 50.8867 85.7722" stroke="#D8C08B" stroke-width="4.18822" stroke-miterlimit="10"/>
</svg>
