<svg width="88" height="142" viewBox="0 0 88 142" fill="none" xmlns="http://www.w3.org/2000/svg">
<path d="M45.3173 141.499C51.6184 141.499 56.7264 136.391 56.7264 130.09C56.7264 123.789 51.6184 118.681 45.3173 118.681C39.0162 118.681 33.9082 123.789 33.9082 130.09C33.9082 136.391 39.0162 141.499 45.3173 141.499Z" fill="#FFEA83"/>
<path d="M0.154397 128.095C0.154397 128.095 -3.59545 101.288 25.8648 87.864C37.0346 82.7778 49.8399 82.0398 61.249 86.5675C71.8403 90.7761 83.5087 99.6122 87.099 118.202C88.1362 123.567 85.2041 128.993 80.1179 130.987C79.7589 131.127 79.36 131.267 78.961 131.406C76.388 132.264 73.5557 132.403 71.0225 131.446C69.5066 130.868 67.911 129.87 66.7541 128.175C66.7541 128.175 64.1811 130.888 55.4048 131.147C55.4048 131.147 50.538 131.286 47.8253 128.175C47.8253 128.175 38.9095 135.475 25.785 129.93C25.785 129.93 12.2616 138.726 7.11555 136.413C7.11555 136.413 0.0746129 135.136 0.134451 128.095H0.154397Z" fill="#FFD1D4"/>
<path d="M41.8789 89.3203C45.6133 89.3203 48.6406 86.2929 48.6406 82.5586C48.6406 78.8242 45.6133 75.7969 41.8789 75.7969C38.1445 75.7969 35.1172 78.8242 35.1172 82.5586C35.1172 86.2929 38.1445 89.3203 41.8789 89.3203Z" fill="#D8C08B"/>
<path d="M43.642 1C43.642 1 45.4371 69.4547 41.8867 77.7722" stroke="#D8C08B" stroke-width="4.18822" stroke-miterlimit="10"/>
</svg>
