<svg width="131" height="307" viewBox="0 0 131 307" fill="none" xmlns="http://www.w3.org/2000/svg">
<rect width="13.4152" height="214.643" transform="matrix(-1 0 0 1 80.3301 74.4492)" fill="#D8C08B"/>
<mask id="path-2-inside-1_792_2575" fill="white">
<path d="M129.095 75.7685C128.871 75.7685 128.245 75.5896 127.261 75.7014C126.725 75.7685 126.099 75.8579 125.383 75.925C124.802 75.9921 124.198 76.1933 123.527 76.2827C122.946 76.3498 122.365 76.797 121.716 76.8864C121.113 76.9535 120.442 76.5063 119.794 76.5957C119.19 76.6628 118.609 77.0206 117.96 77.0876C117.312 77.1547 116.73 77.3336 116.104 77.423C115.478 77.5124 114.83 77.2441 114.204 77.3336C113.578 77.423 112.997 77.6913 112.37 77.7584C111.744 77.8255 111.163 78.1161 110.537 78.1832C109.911 78.2503 109.24 77.9596 108.614 78.0267C107.988 78.0938 107.429 78.6527 106.803 78.7422C106.177 78.8316 105.462 78.295 104.836 78.3844C104.21 78.4739 103.651 79.0105 103.025 79.0775C102.399 79.1446 101.705 78.7869 101.102 78.854C100.498 78.921 99.8497 79.0775 99.2236 79.1446C98.5976 79.2117 97.9939 79.6589 97.3902 79.7259C96.7418 79.8154 96.1158 79.8377 95.5121 79.9048C94.8637 79.9942 94.26 80.1731 93.6563 80.2402C93.0079 80.3296 92.3819 80.4638 91.8006 80.5532C91.1298 80.6426 90.4814 80.6203 89.9001 80.6874C89.1846 80.7768 88.5809 81.0451 88.0443 81.1122C86.8593 81.2687 87.0829 81.2463 86.1662 81.224C85.2495 81.2016 85.2048 81.224 84.2434 81.1569C83.282 81.0898 83.282 81.0898 82.3429 81.0227C81.4038 80.9557 81.4038 80.665 80.4648 80.5979C79.5257 80.5309 79.5257 80.352 78.5643 80.2849C77.6029 80.2178 77.5805 80.6427 76.6191 80.5756C75.6577 80.5085 75.6577 80.5532 74.6963 80.4638C73.7348 80.3743 73.7348 80.3743 72.7958 80.2849C71.8567 80.1955 71.8344 80.2402 70.8953 80.1731C69.9562 80.106 69.9562 79.9942 68.9948 79.9272C68.0334 79.8601 68.0557 79.6141 67.0943 79.5471C66.1329 79.48 66.1553 79.3011 65.1938 79.2117C64.2324 79.1223 64.2324 79.3011 63.271 79.2117C62.3096 79.1223 62.3096 79.0552 61.3705 78.9881C60.4315 78.921 60.4091 79.1223 59.4477 79.0328C58.4863 78.9434 58.5086 78.854 57.5472 78.7869C56.5858 78.7198 56.5858 78.6974 55.6467 78.6304C54.7077 78.5633 54.6853 78.4962 53.7462 78.4068C52.8072 78.3174 52.7625 78.6974 51.8011 78.6304C50.8396 78.5633 50.862 78.2726 49.9006 78.2056C48.9391 78.1385 48.9615 78.0714 48.0001 78.0043C47.0387 77.9373 47.0387 77.8702 46.0996 77.8031C45.1605 77.736 45.1382 77.9149 44.1768 77.8478C43.2154 77.7807 43.2154 77.9373 42.2539 77.8478C41.2925 77.7584 41.3149 77.5572 40.3534 77.4901C39.392 77.423 39.3697 77.6242 38.4083 77.5348C37.4468 77.4454 37.4468 77.3783 36.5078 77.3112C35.5687 77.2441 35.5911 76.7746 34.6297 76.7075C33.6682 76.6405 33.6459 76.9311 32.6844 76.864C31.723 76.797 31.723 76.7299 30.7616 76.6405C29.8002 76.551 29.8225 76.3498 28.8611 76.2827C27.8997 76.2156 27.8774 76.5287 26.9159 76.4616C25.9545 76.3945 25.9545 76.3274 24.9931 76.2604C24.0317 76.1933 24.054 75.9697 23.0926 75.9026C22.1312 75.8356 22.1312 75.8803 21.1474 75.7908C20.1636 75.7014 19.8283 76.5734 19.314 75.7461C18.7998 74.9189 19.4034 74.8741 19.7612 74.0021C20.1189 73.1302 20.5214 73.2867 20.8791 72.4147C21.2368 71.5427 21.1474 71.498 21.5275 70.626C21.9076 69.754 21.8629 69.754 22.2206 68.882C22.5784 68.01 22.1312 67.8312 22.4889 66.9592C22.8467 66.0872 22.9585 66.1319 23.3162 65.2599C23.6739 64.3879 23.6739 64.3879 24.0317 63.516C24.3894 62.644 24.7024 62.7781 25.0602 61.9061C25.4179 61.0342 25.0602 60.8776 25.4179 60.0057C25.7756 59.1337 25.7756 59.1337 26.1334 58.2617C26.4911 57.3897 26.9159 57.5686 27.2737 56.6742C27.6314 55.7799 27.6985 55.8246 28.0562 54.9526C28.414 54.0806 28.3022 54.0359 28.6599 53.1416C29.0176 52.2472 28.8611 52.2025 29.2189 51.3305C29.5766 50.4585 29.8449 50.5703 30.225 49.6983C30.6051 48.8264 30.4933 48.7816 30.851 47.9097C31.2088 47.0377 31.1641 47.0153 31.5218 46.1433C31.8795 45.2713 32.0137 45.3161 32.3714 44.4441C32.7292 43.5721 32.3491 43.4156 32.7068 42.5212C33.0645 41.6269 33.0198 41.6269 33.3776 40.7549C33.7353 39.8829 33.9365 39.9724 34.3166 39.1004C34.6967 38.2284 34.7638 38.2507 35.1215 37.3788C35.4793 36.5068 35.4569 36.4844 35.8147 35.6124C36.1724 34.7404 35.8147 34.5839 36.1947 33.7119C36.5748 32.84 36.6196 32.8623 36.9773 31.9903C37.335 31.1184 37.7375 31.2749 38.0952 30.4029C38.453 29.5309 38.1176 29.3967 38.4977 28.5024C38.8778 27.6081 38.8107 27.6081 39.1684 26.7361C39.5262 25.8641 39.7945 25.9759 40.1522 25.1039C40.51 24.2319 40.4876 24.2095 40.8453 23.3376C41.2031 22.4656 40.8901 22.3314 41.2478 21.4594C41.6055 20.5875 41.8291 20.6769 42.2092 19.8049C42.5893 18.9329 42.5446 18.9106 42.9023 18.0386C43.2601 17.1666 43.3942 17.2113 43.752 16.3393C44.1097 15.4673 44.0203 15.4226 44.378 14.5506C44.7357 13.6786 44.691 13.6563 45.0488 12.7843C45.4065 11.9123 45.4512 11.9347 45.8089 11.0403C46.1667 10.146 46.3679 10.2354 46.748 9.36344C47.1281 8.49145 47.2175 8.51381 47.5753 7.64183C47.933 6.76984 47.9107 6.74748 48.2908 5.85314C48.6709 4.95879 48.0448 4.64577 48.8274 4.08681C49.6099 3.52784 49.7217 4.17624 50.6831 4.08681C51.6445 3.99738 51.6222 3.86322 52.5836 3.79615C53.545 3.72907 53.5227 3.41605 54.4841 3.34898C55.4455 3.2819 55.4455 3.25954 56.3846 3.19247C57.3236 3.12539 57.3683 3.63964 58.3298 3.57256C59.2912 3.50549 59.2465 3.03596 60.2079 2.96888C61.1693 2.9018 61.1917 3.23718 62.1307 3.17011C63.0698 3.10303 63.0474 2.6335 64.0088 2.56643C64.9703 2.49935 64.9703 2.56643 65.9317 2.49935C66.8931 2.43227 66.9155 2.76765 67.8769 2.70058C68.8383 2.6335 68.8383 2.54407 69.7774 2.47699C70.7164 2.40992 70.7388 2.47699 71.7002 2.43227C72.6616 2.38756 72.6393 1.9851 73.5783 1.91803C74.5174 1.85095 74.5621 2.23105 75.5235 2.16397C76.4849 2.09689 76.4402 1.67208 77.4016 1.60501C78.3631 1.53793 78.4078 2.09689 79.3692 2.02982C80.3306 1.96274 80.3083 1.51557 81.2697 1.4485C82.2311 1.38142 82.2311 1.38142 83.1925 1.29199C84.1539 1.20255 84.1539 1.22491 85.1154 1.18019C85.7638 1.13548 86.4122 1.24727 87.0606 1.24727C87.709 1.24727 88.3574 0.978965 89.0058 1.00132C89.6542 1.02368 90.2802 1.51557 90.9062 1.56029C91.5323 1.60501 92.2254 1.35906 92.8514 1.42614C93.4775 1.49321 94.1482 1.51557 94.7743 1.62736C95.4003 1.73916 95.9593 2.32048 96.5853 2.45463C97.2114 2.58878 97.9492 2.29812 98.5752 2.45463C99.2013 2.61114 99.6708 3.30426 100.274 3.50549C100.878 3.70671 101.482 3.90794 102.086 4.10917C102.689 4.3104 103.472 4.10917 104.053 4.35511C104.634 4.60106 105.149 5.07059 105.73 5.33889C106.311 5.60719 106.982 5.69663 107.563 6.00965C108.145 6.32267 108.592 6.81456 109.151 7.14994C109.71 7.48532 110.313 7.73126 110.85 8.06664C111.387 8.40202 111.901 8.80447 112.438 9.18457C112.974 9.56467 113.354 10.1236 113.846 10.5037C114.338 10.8838 114.986 11.1521 115.478 11.5546C115.97 11.957 116.171 12.6949 116.619 13.142C117.066 13.5892 117.737 13.8352 118.161 14.3047C118.586 14.7742 118.966 15.3108 119.391 15.7804C119.816 16.2499 120.375 16.63 120.777 17.1219C121.18 17.6138 121.582 18.128 121.962 18.6423C122.342 19.1565 122.521 19.8049 122.879 20.3639C123.237 20.9228 123.84 21.2806 124.153 21.8395C124.466 22.3985 124.556 23.0916 124.847 23.6506C125.137 24.2095 125.696 24.6791 125.965 25.2604C126.233 25.8417 126.345 26.4901 126.591 27.0938C126.836 27.6975 126.747 28.413 126.948 29.0166C127.15 29.6203 127.641 30.1346 127.82 30.7606C127.999 31.3867 127.91 32.0574 128.066 32.6835C128.223 33.3095 128.424 33.9132 128.536 34.5392C128.648 35.1653 128.916 35.7689 129.005 36.4173C129.117 37.2893 129.408 38.1837 129.497 39.078C129.52 40.0394 128.916 40.0618 128.916 41.0232C128.916 41.9846 129.497 41.9846 129.497 42.946C129.497 43.9075 129.05 43.9075 129.05 44.8689C129.05 45.8303 129.05 45.8303 129.05 46.7917C129.05 47.7531 129.072 47.7531 129.072 48.7146C129.072 49.676 129.184 49.676 129.184 50.6374C129.184 51.5988 129.43 51.5988 129.43 52.5602C129.43 53.5217 129.497 53.5217 129.497 54.4831C129.497 55.4445 129.296 55.4445 129.296 56.4059C129.296 57.3673 129.117 57.3673 129.117 58.3288C129.117 59.2902 129.385 59.2902 129.385 60.2516C129.385 61.213 129.385 61.213 129.385 62.1744C129.385 63.1359 129.52 63.1359 129.52 64.0973C129.52 65.0587 129.452 65.0587 129.452 66.0201C129.452 66.9815 129.207 66.9815 129.207 67.943C129.207 68.9044 128.983 68.9044 128.983 69.8882C128.983 70.8719 129.363 70.8496 129.363 71.8334C129.363 72.8171 129.05 72.8171 129.072 73.7786C129.095 74.74 129.274 74.74 129.184 75.7238L129.095 75.7685Z"/>
</mask>
<path d="M129.095 75.7685C128.871 75.7685 128.245 75.5896 127.261 75.7014C126.725 75.7685 126.099 75.8579 125.383 75.925C124.802 75.9921 124.198 76.1933 123.527 76.2827C122.946 76.3498 122.365 76.797 121.716 76.8864C121.113 76.9535 120.442 76.5063 119.794 76.5957C119.19 76.6628 118.609 77.0206 117.96 77.0876C117.312 77.1547 116.73 77.3336 116.104 77.423C115.478 77.5124 114.83 77.2441 114.204 77.3336C113.578 77.423 112.997 77.6913 112.37 77.7584C111.744 77.8255 111.163 78.1161 110.537 78.1832C109.911 78.2503 109.24 77.9596 108.614 78.0267C107.988 78.0938 107.429 78.6527 106.803 78.7422C106.177 78.8316 105.462 78.295 104.836 78.3844C104.21 78.4739 103.651 79.0105 103.025 79.0775C102.399 79.1446 101.705 78.7869 101.102 78.854C100.498 78.921 99.8497 79.0775 99.2236 79.1446C98.5976 79.2117 97.9939 79.6589 97.3902 79.7259C96.7418 79.8154 96.1158 79.8377 95.5121 79.9048C94.8637 79.9942 94.26 80.1731 93.6563 80.2402C93.0079 80.3296 92.3819 80.4638 91.8006 80.5532C91.1298 80.6426 90.4814 80.6203 89.9001 80.6874C89.1846 80.7768 88.5809 81.0451 88.0443 81.1122C86.8593 81.2687 87.0829 81.2463 86.1662 81.224C85.2495 81.2016 85.2048 81.224 84.2434 81.1569C83.282 81.0898 83.282 81.0898 82.3429 81.0227C81.4038 80.9557 81.4038 80.665 80.4648 80.5979C79.5257 80.5309 79.5257 80.352 78.5643 80.2849C77.6029 80.2178 77.5805 80.6427 76.6191 80.5756C75.6577 80.5085 75.6577 80.5532 74.6963 80.4638C73.7348 80.3743 73.7348 80.3743 72.7958 80.2849C71.8567 80.1955 71.8344 80.2402 70.8953 80.1731C69.9562 80.106 69.9562 79.9942 68.9948 79.9272C68.0334 79.8601 68.0557 79.6141 67.0943 79.5471C66.1329 79.48 66.1553 79.3011 65.1938 79.2117C64.2324 79.1223 64.2324 79.3011 63.271 79.2117C62.3096 79.1223 62.3096 79.0552 61.3705 78.9881C60.4315 78.921 60.4091 79.1223 59.4477 79.0328C58.4863 78.9434 58.5086 78.854 57.5472 78.7869C56.5858 78.7198 56.5858 78.6974 55.6467 78.6304C54.7077 78.5633 54.6853 78.4962 53.7462 78.4068C52.8072 78.3174 52.7625 78.6974 51.8011 78.6304C50.8396 78.5633 50.862 78.2726 49.9006 78.2056C48.9391 78.1385 48.9615 78.0714 48.0001 78.0043C47.0387 77.9373 47.0387 77.8702 46.0996 77.8031C45.1605 77.736 45.1382 77.9149 44.1768 77.8478C43.2154 77.7807 43.2154 77.9373 42.2539 77.8478C41.2925 77.7584 41.3149 77.5572 40.3534 77.4901C39.392 77.423 39.3697 77.6242 38.4083 77.5348C37.4468 77.4454 37.4468 77.3783 36.5078 77.3112C35.5687 77.2441 35.5911 76.7746 34.6297 76.7075C33.6682 76.6405 33.6459 76.9311 32.6844 76.864C31.723 76.797 31.723 76.7299 30.7616 76.6405C29.8002 76.551 29.8225 76.3498 28.8611 76.2827C27.8997 76.2156 27.8774 76.5287 26.9159 76.4616C25.9545 76.3945 25.9545 76.3274 24.9931 76.2604C24.0317 76.1933 24.054 75.9697 23.0926 75.9026C22.1312 75.8356 22.1312 75.8803 21.1474 75.7908C20.1636 75.7014 19.8283 76.5734 19.314 75.7461C18.7998 74.9189 19.4034 74.8741 19.7612 74.0021C20.1189 73.1302 20.5214 73.2867 20.8791 72.4147C21.2368 71.5427 21.1474 71.498 21.5275 70.626C21.9076 69.754 21.8629 69.754 22.2206 68.882C22.5784 68.01 22.1312 67.8312 22.4889 66.9592C22.8467 66.0872 22.9585 66.1319 23.3162 65.2599C23.6739 64.3879 23.6739 64.3879 24.0317 63.516C24.3894 62.644 24.7024 62.7781 25.0602 61.9061C25.4179 61.0342 25.0602 60.8776 25.4179 60.0057C25.7756 59.1337 25.7756 59.1337 26.1334 58.2617C26.4911 57.3897 26.9159 57.5686 27.2737 56.6742C27.6314 55.7799 27.6985 55.8246 28.0562 54.9526C28.414 54.0806 28.3022 54.0359 28.6599 53.1416C29.0176 52.2472 28.8611 52.2025 29.2189 51.3305C29.5766 50.4585 29.8449 50.5703 30.225 49.6983C30.6051 48.8264 30.4933 48.7816 30.851 47.9097C31.2088 47.0377 31.1641 47.0153 31.5218 46.1433C31.8795 45.2713 32.0137 45.3161 32.3714 44.4441C32.7292 43.5721 32.3491 43.4156 32.7068 42.5212C33.0645 41.6269 33.0198 41.6269 33.3776 40.7549C33.7353 39.8829 33.9365 39.9724 34.3166 39.1004C34.6967 38.2284 34.7638 38.2507 35.1215 37.3788C35.4793 36.5068 35.4569 36.4844 35.8147 35.6124C36.1724 34.7404 35.8147 34.5839 36.1947 33.7119C36.5748 32.84 36.6196 32.8623 36.9773 31.9903C37.335 31.1184 37.7375 31.2749 38.0952 30.4029C38.453 29.5309 38.1176 29.3967 38.4977 28.5024C38.8778 27.6081 38.8107 27.6081 39.1684 26.7361C39.5262 25.8641 39.7945 25.9759 40.1522 25.1039C40.51 24.2319 40.4876 24.2095 40.8453 23.3376C41.2031 22.4656 40.8901 22.3314 41.2478 21.4594C41.6055 20.5875 41.8291 20.6769 42.2092 19.8049C42.5893 18.9329 42.5446 18.9106 42.9023 18.0386C43.2601 17.1666 43.3942 17.2113 43.752 16.3393C44.1097 15.4673 44.0203 15.4226 44.378 14.5506C44.7357 13.6786 44.691 13.6563 45.0488 12.7843C45.4065 11.9123 45.4512 11.9347 45.8089 11.0403C46.1667 10.146 46.3679 10.2354 46.748 9.36344C47.1281 8.49145 47.2175 8.51381 47.5753 7.64183C47.933 6.76984 47.9107 6.74748 48.2908 5.85314C48.6709 4.95879 48.0448 4.64577 48.8274 4.08681C49.6099 3.52784 49.7217 4.17624 50.6831 4.08681C51.6445 3.99738 51.6222 3.86322 52.5836 3.79615C53.545 3.72907 53.5227 3.41605 54.4841 3.34898C55.4455 3.2819 55.4455 3.25954 56.3846 3.19247C57.3236 3.12539 57.3683 3.63964 58.3298 3.57256C59.2912 3.50549 59.2465 3.03596 60.2079 2.96888C61.1693 2.9018 61.1917 3.23718 62.1307 3.17011C63.0698 3.10303 63.0474 2.6335 64.0088 2.56643C64.9703 2.49935 64.9703 2.56643 65.9317 2.49935C66.8931 2.43227 66.9155 2.76765 67.8769 2.70058C68.8383 2.6335 68.8383 2.54407 69.7774 2.47699C70.7164 2.40992 70.7388 2.47699 71.7002 2.43227C72.6616 2.38756 72.6393 1.9851 73.5783 1.91803C74.5174 1.85095 74.5621 2.23105 75.5235 2.16397C76.4849 2.09689 76.4402 1.67208 77.4016 1.60501C78.3631 1.53793 78.4078 2.09689 79.3692 2.02982C80.3306 1.96274 80.3083 1.51557 81.2697 1.4485C82.2311 1.38142 82.2311 1.38142 83.1925 1.29199C84.1539 1.20255 84.1539 1.22491 85.1154 1.18019C85.7638 1.13548 86.4122 1.24727 87.0606 1.24727C87.709 1.24727 88.3574 0.978965 89.0058 1.00132C89.6542 1.02368 90.2802 1.51557 90.9062 1.56029C91.5323 1.60501 92.2254 1.35906 92.8514 1.42614C93.4775 1.49321 94.1482 1.51557 94.7743 1.62736C95.4003 1.73916 95.9593 2.32048 96.5853 2.45463C97.2114 2.58878 97.9492 2.29812 98.5752 2.45463C99.2013 2.61114 99.6708 3.30426 100.274 3.50549C100.878 3.70671 101.482 3.90794 102.086 4.10917C102.689 4.3104 103.472 4.10917 104.053 4.35511C104.634 4.60106 105.149 5.07059 105.73 5.33889C106.311 5.60719 106.982 5.69663 107.563 6.00965C108.145 6.32267 108.592 6.81456 109.151 7.14994C109.71 7.48532 110.313 7.73126 110.85 8.06664C111.387 8.40202 111.901 8.80447 112.438 9.18457C112.974 9.56467 113.354 10.1236 113.846 10.5037C114.338 10.8838 114.986 11.1521 115.478 11.5546C115.97 11.957 116.171 12.6949 116.619 13.142C117.066 13.5892 117.737 13.8352 118.161 14.3047C118.586 14.7742 118.966 15.3108 119.391 15.7804C119.816 16.2499 120.375 16.63 120.777 17.1219C121.18 17.6138 121.582 18.128 121.962 18.6423C122.342 19.1565 122.521 19.8049 122.879 20.3639C123.237 20.9228 123.84 21.2806 124.153 21.8395C124.466 22.3985 124.556 23.0916 124.847 23.6506C125.137 24.2095 125.696 24.6791 125.965 25.2604C126.233 25.8417 126.345 26.4901 126.591 27.0938C126.836 27.6975 126.747 28.413 126.948 29.0166C127.15 29.6203 127.641 30.1346 127.82 30.7606C127.999 31.3867 127.91 32.0574 128.066 32.6835C128.223 33.3095 128.424 33.9132 128.536 34.5392C128.648 35.1653 128.916 35.7689 129.005 36.4173C129.117 37.2893 129.408 38.1837 129.497 39.078C129.52 40.0394 128.916 40.0618 128.916 41.0232C128.916 41.9846 129.497 41.9846 129.497 42.946C129.497 43.9075 129.05 43.9075 129.05 44.8689C129.05 45.8303 129.05 45.8303 129.05 46.7917C129.05 47.7531 129.072 47.7531 129.072 48.7146C129.072 49.676 129.184 49.676 129.184 50.6374C129.184 51.5988 129.43 51.5988 129.43 52.5602C129.43 53.5217 129.497 53.5217 129.497 54.4831C129.497 55.4445 129.296 55.4445 129.296 56.4059C129.296 57.3673 129.117 57.3673 129.117 58.3288C129.117 59.2902 129.385 59.2902 129.385 60.2516C129.385 61.213 129.385 61.213 129.385 62.1744C129.385 63.1359 129.52 63.1359 129.52 64.0973C129.52 65.0587 129.452 65.0587 129.452 66.0201C129.452 66.9815 129.207 66.9815 129.207 67.943C129.207 68.9044 128.983 68.9044 128.983 69.8882C128.983 70.8719 129.363 70.8496 129.363 71.8334C129.363 72.8171 129.05 72.8171 129.072 73.7786C129.095 74.74 129.274 74.74 129.184 75.7238L129.095 75.7685Z" fill="#FF8181" stroke="#ED7A7A" stroke-width="2.23586" mask="url(#path-2-inside-1_792_2575)"/>
<path d="M129.095 75.7685C128.871 75.7685 128.245 75.5896 127.261 75.7014C126.725 75.7685 126.099 75.8579 125.383 75.925C124.802 75.9921 124.198 76.1933 123.527 76.2827C122.946 76.3498 122.365 76.797 121.716 76.8864C121.113 76.9535 120.442 76.5063 119.794 76.5957C119.19 76.6628 118.609 77.0206 117.96 77.0876C117.312 77.1547 116.73 77.3336 116.104 77.423C115.478 77.5124 114.83 77.2441 114.204 77.3336C113.578 77.423 112.997 77.6913 112.37 77.7584C111.744 77.8255 111.163 78.1161 110.537 78.1832C109.911 78.2503 109.24 77.9596 108.614 78.0267C107.988 78.0938 107.429 78.6527 106.803 78.7422C106.177 78.8316 105.462 78.295 104.836 78.3844C104.21 78.4739 103.651 79.0105 103.025 79.0775C102.399 79.1446 101.705 78.7869 101.102 78.854C100.498 78.921 99.8497 79.0775 99.2236 79.1446C98.5976 79.2117 97.9939 79.6589 97.3902 79.7259C96.7418 79.8154 96.1158 79.8377 95.5121 79.9048C94.8637 79.9942 94.26 80.1731 93.6563 80.2402C93.0079 80.3296 92.3819 80.4638 91.8006 80.5532C91.1298 80.6426 90.4814 80.6203 89.9001 80.6874C89.1846 80.7768 88.5809 81.0451 88.0443 81.1122C86.8593 81.2687 87.0829 81.2463 86.1662 81.224C85.2495 81.2016 85.2048 81.224 84.2434 81.1569C83.282 81.0898 83.282 81.0898 82.3429 81.0227C81.4038 80.9557 81.4038 80.665 80.4648 80.5979C79.5257 80.5309 79.5257 80.352 78.5643 80.2849C77.6029 80.2178 77.5805 80.6427 76.6191 80.5756C75.6577 80.5085 75.6577 80.5532 74.6963 80.4638C73.7348 80.3743 73.7348 80.3743 72.7958 80.2849C71.8567 80.1955 71.8344 80.2402 70.8953 80.1731C69.9562 80.106 69.9562 79.9942 68.9948 79.9272C68.0334 79.8601 68.0557 79.6141 67.0943 79.5471C66.1329 79.48 66.1553 79.3011 65.1938 79.2117C64.2324 79.1223 64.2324 79.3011 63.271 79.2117C62.3096 79.1223 62.3096 79.0552 61.3705 78.9881C60.4315 78.921 60.4091 79.1223 59.4477 79.0328C58.4863 78.9434 58.5086 78.854 57.5472 78.7869C56.5858 78.7198 56.5858 78.6974 55.6467 78.6304C54.7077 78.5633 54.6853 78.4962 53.7462 78.4068C52.8072 78.3174 52.7625 78.6974 51.8011 78.6304C50.8396 78.5633 50.862 78.2726 49.9006 78.2056C48.9391 78.1385 48.9615 78.0714 48.0001 78.0043C47.0387 77.9373 47.0387 77.8702 46.0996 77.8031C45.1605 77.736 45.1382 77.9149 44.1768 77.8478C43.2154 77.7807 43.2154 77.9373 42.2539 77.8478C41.2925 77.7584 41.3149 77.5572 40.3534 77.4901C39.392 77.423 39.3697 77.6242 38.4083 77.5348C37.4468 77.4454 37.4468 77.3783 36.5078 77.3112C35.5687 77.2441 35.5911 76.7746 34.6297 76.7075C33.6682 76.6405 33.6459 76.9311 32.6844 76.864C31.723 76.797 31.723 76.7299 30.7616 76.6405C29.8002 76.551 29.8225 76.3498 28.8611 76.2827C27.8997 76.2156 27.8774 76.5287 26.9159 76.4616C25.9545 76.3945 25.9545 76.3274 24.9931 76.2604C24.0317 76.1933 24.054 75.9697 23.0926 75.9026C22.1312 75.8356 22.1312 75.8803 21.1474 75.7908C20.1636 75.7014 19.8283 76.5734 19.314 75.7461C18.7998 74.9189 19.4034 74.8741 19.7612 74.0021C20.1189 73.1302 20.5214 73.2867 20.8791 72.4147C21.2368 71.5427 21.1474 71.498 21.5275 70.626C21.9076 69.754 21.8629 69.754 22.2206 68.882C22.5784 68.01 22.1312 67.8312 22.4889 66.9592C22.8467 66.0872 22.9585 66.1319 23.3162 65.2599C23.6739 64.3879 23.6739 64.3879 24.0317 63.516C24.3894 62.644 24.7024 62.7781 25.0602 61.9061C25.4179 61.0342 25.0602 60.8776 25.4179 60.0057C25.7756 59.1337 25.7756 59.1337 26.1334 58.2617C26.4911 57.3897 26.9159 57.5686 27.2737 56.6742C27.6314 55.7799 27.6985 55.8246 28.0562 54.9526C28.414 54.0806 28.3022 54.0359 28.6599 53.1416C29.0176 52.2472 28.8611 52.2025 29.2189 51.3305C29.5766 50.4585 29.8449 50.5703 30.225 49.6983C30.6051 48.8264 30.4933 48.7816 30.851 47.9097C31.2088 47.0377 31.1641 47.0153 31.5218 46.1433C31.8795 45.2713 32.0137 45.3161 32.3714 44.4441C32.7292 43.5721 32.3491 43.4156 32.7068 42.5212C33.0645 41.6269 33.0198 41.6269 33.3776 40.7549C33.7353 39.8829 33.9365 39.9724 34.3166 39.1004C34.6967 38.2284 34.7638 38.2507 35.1215 37.3788C35.4793 36.5068 35.4569 36.4844 35.8147 35.6124C36.1724 34.7404 35.8147 34.5839 36.1947 33.7119C36.5748 32.84 36.6196 32.8623 36.9773 31.9903C37.335 31.1184 37.7375 31.2749 38.0952 30.4029C38.453 29.5309 38.1176 29.3967 38.4977 28.5024C38.8778 27.6081 38.8107 27.6081 39.1684 26.7361C39.5262 25.8641 39.7945 25.9759 40.1522 25.1039C40.51 24.2319 40.4876 24.2095 40.8453 23.3376C41.2031 22.4656 40.8901 22.3314 41.2478 21.4594C41.6055 20.5875 41.8291 20.6769 42.2092 19.8049C42.5893 18.9329 42.5446 18.9106 42.9023 18.0386C43.2601 17.1666 43.3942 17.2113 43.752 16.3393C44.1097 15.4673 44.0203 15.4226 44.378 14.5506C44.7357 13.6786 44.691 13.6563 45.0488 12.7843C45.4065 11.9123 45.4512 11.9347 45.8089 11.0403C46.1667 10.146 46.3679 10.2354 46.748 9.36344C47.1281 8.49145 47.2175 8.51381 47.5753 7.64183C47.933 6.76984 47.9107 6.74748 48.2908 5.85314C48.6709 4.95879 48.0448 4.64577 48.8274 4.08681C49.6099 3.52784 49.7217 4.17624 50.6831 4.08681C51.6445 3.99738 51.6222 3.86322 52.5836 3.79615C53.545 3.72907 53.5227 3.41605 54.4841 3.34898C55.4455 3.2819 55.4455 3.25954 56.3846 3.19247C57.3236 3.12539 57.3683 3.63964 58.3298 3.57256C59.2912 3.50549 59.2465 3.03596 60.2079 2.96888C61.1693 2.9018 61.1917 3.23718 62.1307 3.17011C63.0698 3.10303 63.0474 2.6335 64.0088 2.56643C64.9703 2.49935 64.9703 2.56643 65.9317 2.49935C66.8931 2.43227 66.9155 2.76765 67.8769 2.70058C68.8383 2.6335 68.8383 2.54407 69.7774 2.47699C70.7164 2.40992 70.7388 2.47699 71.7002 2.43227C72.6616 2.38756 72.6393 1.9851 73.5783 1.91803C74.5174 1.85095 74.5621 2.23105 75.5235 2.16397C76.4849 2.09689 76.4402 1.67208 77.4016 1.60501C78.3631 1.53793 78.4078 2.09689 79.3692 2.02982C80.3306 1.96274 80.3083 1.51557 81.2697 1.4485C82.2311 1.38142 82.2311 1.38142 83.1925 1.29199C84.1539 1.20255 84.1539 1.22491 85.1154 1.18019C85.7638 1.13548 86.4122 1.24727 87.0606 1.24727C87.709 1.24727 88.3574 0.978965 89.0058 1.00132C89.6542 1.02368 90.2802 1.51557 90.9062 1.56029C91.5323 1.60501 92.2254 1.35906 92.8514 1.42614C93.4775 1.49321 94.1482 1.51557 94.7743 1.62736C95.4003 1.73916 95.9593 2.32048 96.5853 2.45463C97.2114 2.58878 97.9492 2.29812 98.5752 2.45463C99.2013 2.61114 99.6708 3.30426 100.274 3.50549C100.878 3.70671 101.482 3.90794 102.086 4.10917C102.689 4.3104 103.472 4.10917 104.053 4.35511C104.634 4.60106 105.149 5.07059 105.73 5.33889C106.311 5.60719 106.982 5.69663 107.563 6.00965C108.145 6.32267 108.592 6.81456 109.151 7.14994C109.71 7.48532 110.313 7.73126 110.85 8.06664C111.387 8.40202 111.901 8.80447 112.438 9.18457C112.974 9.56467 113.354 10.1236 113.846 10.5037C114.338 10.8838 114.986 11.1521 115.478 11.5546C115.97 11.957 116.171 12.6949 116.619 13.142C117.066 13.5892 117.737 13.8352 118.161 14.3047C118.586 14.7742 118.966 15.3108 119.391 15.7804C119.816 16.2499 120.375 16.63 120.777 17.1219C121.18 17.6138 121.582 18.128 121.962 18.6423C122.342 19.1565 122.521 19.8049 122.879 20.3639C123.237 20.9228 123.84 21.2806 124.153 21.8395C124.466 22.3985 124.556 23.0916 124.847 23.6506C125.137 24.2095 125.696 24.6791 125.965 25.2604C126.233 25.8417 126.345 26.4901 126.591 27.0938C126.836 27.6975 126.747 28.413 126.948 29.0166C127.15 29.6203 127.641 30.1346 127.82 30.7606C127.999 31.3867 127.91 32.0574 128.066 32.6835C128.223 33.3095 128.424 33.9132 128.536 34.5392C128.648 35.1653 128.916 35.7689 129.005 36.4173C129.117 37.2893 129.408 38.1837 129.497 39.078C129.52 40.0394 128.916 40.0618 128.916 41.0232C128.916 41.9846 129.497 41.9846 129.497 42.946C129.497 43.9075 129.05 43.9075 129.05 44.8689C129.05 45.8303 129.05 45.8303 129.05 46.7917C129.05 47.7531 129.072 47.7531 129.072 48.7146C129.072 49.676 129.184 49.676 129.184 50.6374C129.184 51.5988 129.43 51.5988 129.43 52.5602C129.43 53.5217 129.497 53.5217 129.497 54.4831C129.497 55.4445 129.296 55.4445 129.296 56.4059C129.296 57.3673 129.117 57.3673 129.117 58.3288C129.117 59.2902 129.385 59.2902 129.385 60.2516C129.385 61.213 129.385 61.213 129.385 62.1744C129.385 63.1359 129.52 63.1359 129.52 64.0973C129.52 65.0587 129.452 65.0587 129.452 66.0201C129.452 66.9815 129.207 66.9815 129.207 67.943C129.207 68.9044 128.983 68.9044 128.983 69.8882C128.983 70.8719 129.363 70.8496 129.363 71.8334C129.363 72.8171 129.05 72.8171 129.072 73.7786C129.095 74.74 129.274 74.74 129.184 75.7238L129.095 75.7685Z" fill="#FF8181" stroke="#ED7A7A" stroke-width="1.11793" stroke-miterlimit="10"/>
<path d="M86.752 81.5615C86.5797 81.6147 86.0743 81.8552 85.5107 81.8945C85.0481 81.9268 84.8272 81.9588 84.5947 81.9893C84.3471 82.0217 84.0962 82.051 83.5977 82.0742C83.106 82.0971 82.8618 82.0978 82.6279 82.1006C82.4034 82.1033 82.1793 82.1079 81.71 82.1406C81.2531 82.1725 81.0367 82.2095 80.8066 82.2451C80.5567 82.2838 80.3013 82.3193 79.7969 82.3428C79.352 82.3635 79.1441 82.4031 78.9189 82.4434C78.6642 82.4888 78.3994 82.5329 77.8828 82.5449C77.2961 82.5585 76.9761 82.4349 76.708 82.332C76.5052 82.2542 76.3468 82.1917 75.9736 82.209C75.5464 82.2289 75.3528 82.2808 75.1387 82.3369C74.8832 82.4038 74.6065 82.4742 74.0723 82.499C73.5271 82.5243 73.2359 82.4649 72.9727 82.4092C72.7588 82.3639 72.5757 82.3236 72.1729 82.3428C71.6971 82.3654 71.4518 82.3713 71.209 82.377C70.9711 82.3825 70.7357 82.3881 70.2725 82.4102C69.9393 82.426 69.7993 82.5108 69.5928 82.6338C69.3299 82.7903 69.0002 82.9848 68.3945 83.0137C67.7925 83.0423 67.4541 82.8874 67.1807 82.7617C66.9722 82.6659 66.8217 82.595 66.4707 82.6113C66.1022 82.6285 65.9488 82.708 65.75 82.8086C65.4894 82.9405 65.177 83.0972 64.5928 83.125C64.0996 83.1485 63.8403 83.1366 63.5908 83.125C63.3598 83.1143 63.1378 83.1038 62.6924 83.125C62.1689 83.1499 61.8852 83.1048 61.6201 83.0586C61.3941 83.0192 61.195 82.9823 60.7793 82.9922C60.3642 83.0021 60.1709 83.0481 59.9521 83.0996C59.6936 83.1604 59.4115 83.2249 58.8779 83.2373C58.4153 83.2481 58.1904 83.2692 57.9658 83.293C57.7274 83.3182 57.4782 83.3479 56.9912 83.3711C56.5036 83.3943 56.2476 83.3887 55.9951 83.3799C55.7561 83.3715 55.5291 83.3613 55.0771 83.3721C54.5839 83.3838 54.3246 83.366 54.0752 83.3486C53.844 83.3325 53.6223 83.3165 53.1768 83.3271C52.7498 83.3373 52.5485 83.3764 52.3311 83.4199C52.082 83.4697 51.8101 83.5256 51.2891 83.5498C50.8143 83.5719 50.5785 83.5889 50.3438 83.6055C50.1043 83.6224 49.8648 83.6395 49.3896 83.6621C48.8173 83.6894 48.4979 83.5809 48.2217 83.4824C48.0055 83.4054 47.8343 83.3408 47.4531 83.3496C47.0204 83.3597 46.8238 83.4026 46.6133 83.4502C46.3648 83.5064 46.0934 83.5702 45.5654 83.5947C45.0138 83.6204 44.7177 83.5532 44.4512 83.4912C44.2372 83.4414 44.0521 83.397 43.6426 83.416C43.2682 83.4334 43.1113 83.5114 42.9121 83.6074C42.6517 83.7329 42.3429 83.8807 41.7646 83.9082C41.2533 83.9325 40.9799 83.9008 40.7217 83.8711C40.4948 83.845 40.2813 83.8204 39.8418 83.8408C39.32 83.8651 39.0468 83.8337 38.792 83.8037C38.5706 83.7777 38.3686 83.7531 37.9414 83.7734C37.4421 83.7972 37.1769 83.7797 36.9199 83.7588C36.6855 83.7397 36.468 83.719 36.0283 83.7295C35.0576 83.7526 35.0755 83.7289 34.1406 83.7734C33.7006 83.7944 33.4834 83.8308 33.2539 83.8682C33.0027 83.9091 32.7392 83.9509 32.2402 83.9746C31.878 83.9919 31.7209 84.0686 31.5098 84.168C31.2416 84.2942 30.9244 84.4396 30.3389 84.4668C29.7694 84.4932 29.4597 84.4028 29.1846 84.3164C28.9692 84.2488 28.7957 84.1901 28.4033 84.1992C27.9639 84.2094 27.7566 84.2489 27.541 84.292C27.2941 84.3414 27.0274 84.3975 26.5166 84.4219C25.9987 84.4465 25.7193 84.4088 25.4541 84.3691C25.224 84.3348 25.0141 84.3005 24.5801 84.3105C24.1886 84.3197 24.0205 84.3867 23.8154 84.4648C23.5511 84.5655 23.2492 84.6782 22.6797 84.6914C22.0869 84.7052 21.7629 84.5723 21.4941 84.4629C21.2918 84.3805 21.137 84.3159 20.7695 84.333C20.3124 84.3543 20.0903 84.3857 19.8594 84.418C19.6098 84.4528 19.3506 84.4883 18.8467 84.5117C18.4432 84.5305 18.2667 84.5956 18.0586 84.6699C17.7972 84.7633 17.5039 84.8657 16.9463 84.8916C16.4716 84.9137 16.236 84.9307 15.998 84.9473C15.7553 84.9642 15.51 84.9813 15.0234 85.0039C14.4629 85.03 14.1547 84.9472 13.9014 84.8896C13.7044 84.8449 13.5281 84.8087 13.1299 84.8643C12.7436 84.9182 12.5839 85.0074 12.3906 85.1191C12.1469 85.2601 11.8521 85.4402 11.2754 85.5713C10.7277 85.6957 10.4248 85.6973 10.1455 85.6973C9.91078 85.6973 9.69924 85.6959 9.26367 85.7949C8.85013 85.8889 8.67659 85.9924 8.47168 86.1123C8.21827 86.2606 7.93342 86.4261 7.36328 86.5557C6.85421 86.6714 6.5886 86.7127 6.33008 86.7529C6.08558 86.791 5.84767 86.8277 5.37305 86.9355C4.77496 87.0715 4.41548 87.0073 4.11426 86.9551C3.87776 86.9141 3.69087 86.8813 3.30566 86.9775C3.01443 87.0503 2.76857 87.0746 2.56445 87.0859C2.3341 87.0987 2.24088 87.0944 2.12305 87.1094C2.03894 87.1201 2.00111 87.1366 1.96777 87.1592C1.92647 87.1871 1.85149 87.2537 1.74219 87.4268L1.73926 87.4307C1.60549 87.6382 1.57132 87.7592 1.5625 87.8271C1.55467 87.8881 1.56055 87.9513 1.59961 88.0654C1.67473 88.285 1.9315 88.7688 1.9834 89.4561C2.06981 90.601 1.95368 90.6341 2.13379 91.3398L2.23047 91.6885C2.24493 91.7379 2.26148 91.7769 2.27246 91.8086C2.27853 91.8076 2.28542 91.8077 2.29199 91.8066C2.36433 91.7947 2.46552 91.7767 2.57715 91.7607C2.80596 91.728 3.09599 91.6997 3.46387 91.7109C3.64938 91.7104 3.86623 91.6615 4.21973 91.5908C4.5435 91.5261 4.94278 91.4548 5.38379 91.4658C5.69337 91.4658 6.01756 91.4963 6.32422 91.5234C6.63992 91.5514 6.95365 91.5771 7.28418 91.5771C7.5153 91.5771 7.76384 91.5332 8.09473 91.4746C8.40804 91.4192 8.78283 91.3545 9.18457 91.3545C9.5142 91.3545 9.84933 91.3849 10.1543 91.4092C10.4686 91.4342 10.7654 91.4534 11.0664 91.4434H11.085C11.4673 91.4434 11.8504 91.5424 12.1533 91.6162C12.4829 91.6965 12.7496 91.7568 13.0078 91.7568C13.2323 91.7568 13.4747 91.7024 13.8027 91.624C14.1085 91.551 14.4882 91.4567 14.8896 91.4434H14.9082C15.1279 91.4434 15.3723 91.3862 15.7041 91.3018C16.0092 91.2241 16.3937 91.1221 16.7891 91.1084H16.8086C17.4664 91.1084 18.045 91.1527 18.6943 91.1094L18.7129 91.1084H18.7314C19.0143 91.1084 19.303 91.0825 19.6191 91.0518C19.9276 91.0217 20.2666 90.9865 20.6123 90.9746L20.6221 90.9736H20.6318C20.9837 90.9736 21.333 91.0178 21.6396 91.0527C21.9585 91.0891 22.2462 91.1181 22.5361 91.1084H22.5547C22.8834 91.1084 23.2137 91.126 23.5244 91.1396C23.8409 91.1535 24.1467 91.1637 24.459 91.1533C24.8559 91.1401 25.226 91.1998 25.5352 91.249C25.8599 91.3007 26.1197 91.341 26.3809 91.332C26.5851 91.325 26.7975 91.243 27.124 91.1064C27.4124 90.9859 27.8157 90.8102 28.2598 90.7949C28.6349 90.782 28.9971 90.828 29.3086 90.8662C29.6341 90.9062 29.9096 90.9391 30.1826 90.9297C30.535 90.9176 30.8777 90.9356 31.1924 90.9521C31.5147 90.9691 31.8096 90.9848 32.1055 90.9746C32.315 90.9673 32.5306 90.8868 32.8555 90.7568C33.1451 90.641 33.5447 90.4751 33.9834 90.46C34.3698 90.4467 34.7411 90.5068 35.0508 90.5557C35.3782 90.6074 35.6444 90.6477 35.9062 90.6387C36.2059 90.6283 36.5 90.5977 36.8115 90.5615C37.1174 90.526 37.4467 90.4844 37.7871 90.4609C38.0704 90.4414 38.3497 90.3875 38.6641 90.3252C38.9675 90.265 39.3102 90.1962 39.6641 90.1709C39.9887 90.1477 40.3117 90.1361 40.626 90.125C40.9432 90.1138 41.2523 90.1026 41.5654 90.0811C41.8888 90.0588 42.2016 90.036 42.5146 90.0137C42.8276 89.9913 43.1418 89.9687 43.4668 89.9463C43.9093 89.9159 44.331 90.0468 44.6387 90.1396C44.986 90.2445 45.2167 90.3111 45.4307 90.3037C45.623 90.2971 45.8286 90.2125 46.1543 90.0615C46.4376 89.9302 46.8432 89.732 47.29 89.7012C47.7315 89.6708 48.1541 89.8006 48.458 89.8896C48.8024 89.9906 49.0286 90.0504 49.2354 90.0361C49.4567 90.0208 49.682 89.9358 50.0049 89.8066C50.2966 89.6899 50.6864 89.5294 51.1133 89.5C51.4825 89.4746 51.8393 89.5005 52.1494 89.5225C52.4722 89.5453 52.7452 89.5629 53.0117 89.5439C53.2905 89.524 53.5747 89.474 53.8965 89.417C54.2083 89.3618 54.5556 89.3011 54.9141 89.2764C55.3333 89.2475 55.7381 89.3419 56.0469 89.4111C56.3864 89.4872 56.6305 89.5373 56.8594 89.5215C57.1372 89.5023 57.4115 89.4453 57.7305 89.377C58.0373 89.3112 58.3894 89.2345 58.7598 89.209C59.3958 89.1651 60.0113 89.0994 60.6387 89.0322C61.0158 88.9918 61.3947 89.0265 61.7148 89.0566C62.0545 89.0886 62.3358 89.1153 62.6055 89.0967C62.9236 89.0747 63.2373 89.0475 63.5566 89.0195C63.8713 88.9919 64.1917 88.9631 64.5186 88.9404C64.9231 88.8933 65.0374 88.8324 65.2002 88.7578C65.4452 88.6455 65.725 88.5284 66.3848 88.4307L66.4004 88.4287L66.6641 88.4111C66.9305 88.4045 67.2018 88.428 67.4326 88.4434C67.7647 88.4655 68.0694 88.4776 68.373 88.4316L68.375 88.4307L68.5723 88.3955C68.7724 88.3532 68.9854 88.2923 69.2334 88.2227C69.5492 88.134 69.9127 88.0342 70.3018 87.9834H70.3008C70.5246 87.9514 70.7528 87.8537 71.083 87.7109C71.3849 87.5804 71.7694 87.4144 72.2021 87.3574H72.2012C72.5436 87.3085 72.8934 87.291 73.2188 87.2744C73.5525 87.2574 73.865 87.2414 74.1738 87.2002C74.4904 87.158 74.7942 87.0998 75.1113 87.0381C75.4238 86.9772 75.7526 86.9124 76.0947 86.8652C76.4453 86.8169 76.8002 86.7993 77.1211 86.7803C77.4515 86.7607 77.7531 86.7394 78.043 86.6895C78.456 86.6182 78.8738 86.6631 79.2012 86.6982C79.5601 86.7368 79.8194 86.7642 80.0488 86.7314C80.2433 86.7037 80.4581 86.5941 80.793 86.4131C81.0836 86.256 81.4872 86.0318 81.9297 85.9707C82.3348 85.9148 82.7553 85.9647 83.0801 85.999C83.4377 86.0368 83.6984 86.058 83.9199 86.0186L83.9268 86.0176C84.5948 85.9062 85.2386 85.7953 85.8369 85.6846C86.1017 85.6331 86.2946 85.5411 86.5244 85.4248C86.6646 85.3539 86.8316 85.2687 87.0283 85.1953C87.0598 84.9312 87.0585 84.7668 87.0566 84.5967C87.0537 84.3273 87.0488 84.0387 87.1318 83.4775H87.1309C87.1744 83.1476 87.2406 82.8801 87.2969 82.6641C87.357 82.4331 87.3931 82.3063 87.4082 82.1904C87.4203 82.0974 87.4124 82.0488 87.3945 82.0029C87.3769 81.9577 87.3375 81.8857 87.2422 81.7783L87.1826 81.7588L87.0889 81.666C86.9727 81.5498 86.9156 81.5369 86.9072 81.5352C86.8952 81.5327 86.8604 81.5281 86.752 81.5615Z" fill="#FF8181" stroke="#ED7A7A" stroke-width="1.11793"/>
<path d="M87.4842 81.2703C86.8135 80.5995 86.4334 81.2703 85.4719 81.3374C84.5105 81.4045 84.5329 81.4715 83.5715 81.5162C82.61 81.561 82.6324 81.5162 81.671 81.5833C80.7096 81.6504 80.7319 81.7398 79.7705 81.7845C78.8091 81.8293 78.8314 81.9634 77.87 81.9858C76.9086 82.0081 76.9086 81.6057 75.9472 81.6504C74.9858 81.6951 75.0081 81.8963 74.0467 81.9411C73.0853 81.9858 73.0853 81.7398 72.1462 81.7845C71.2072 81.8293 71.1848 81.8069 70.2457 81.8516C69.3067 81.8963 69.3067 82.4106 68.3676 82.4553C67.4285 82.5 67.4062 82.0081 66.4448 82.0529C65.4834 82.0976 65.5057 82.5224 64.5666 82.5671C63.6276 82.6118 63.6052 82.5224 62.6662 82.5671C61.7271 82.6118 61.7047 82.4106 60.7657 82.4329C59.8266 82.4553 59.8266 82.6565 58.8652 82.6789C57.9038 82.7013 57.9038 82.7683 56.9647 82.813C56.0257 82.8578 56.0033 82.7907 55.0642 82.813C54.1252 82.8354 54.1028 82.746 53.1638 82.7683C52.2247 82.7907 52.2247 82.9472 51.2633 82.9919C50.3019 83.0366 50.3019 83.059 49.3628 83.1037C48.4237 83.1484 48.4014 82.7683 47.44 82.7907C46.4785 82.813 46.5009 82.9919 45.5395 83.0366C44.5781 83.0813 44.5781 82.813 43.6166 82.8578C42.6552 82.9025 42.6776 83.3049 41.7385 83.3496C40.7995 83.3944 40.7771 83.2379 39.8157 83.2826C38.8543 83.3273 38.8543 83.1708 37.9152 83.2155C36.9761 83.2602 36.9538 83.1484 36.0147 83.1708C35.0757 83.1931 35.0533 83.1708 34.1142 83.2155C33.1752 83.2602 33.1528 83.372 32.2138 83.4167C31.2747 83.4614 31.2747 83.8639 30.3133 83.9086C29.3519 83.9533 29.3519 83.618 28.3904 83.6403C27.429 83.6627 27.429 83.8192 26.49 83.8639C25.5509 83.9086 25.5285 83.7297 24.5671 83.7521C23.6057 83.7745 23.6281 84.1098 22.6666 84.1322C21.7052 84.1546 21.7052 83.7297 20.7438 83.7745C19.7824 83.8192 19.7824 83.9086 18.821 83.9533C17.8595 83.998 17.8819 84.2887 16.9205 84.3334C15.9591 84.3781 15.9591 84.4005 14.9976 84.4452C14.0362 84.4899 14.0139 84.1769 13.0524 84.3111C12.091 84.4452 12.1357 84.803 11.152 85.0265C10.1682 85.2501 10.1235 85.0265 9.13969 85.2501C8.15591 85.4737 8.22299 85.7867 7.23921 86.0103C6.25543 86.2339 6.23307 86.1668 5.2493 86.3904C4.26552 86.614 4.15372 86.1892 3.16995 86.4351C2.18617 86.6811 1.80607 86.2786 1.26946 87.1282C0.62106 88.1344 1.33653 88.3133 1.42597 89.4983C1.5154 90.6833 1.3589 90.7056 1.69428 91.8459C1.96258 92.7626 2.11909 92.226 3.4606 92.2707C3.97485 92.2707 4.62325 92.0024 5.38344 92.0248C5.94241 92.0248 6.56845 92.1366 7.28393 92.1366C7.86525 92.1366 8.49129 91.913 9.1844 91.913C9.78809 91.913 10.4141 92.0248 11.0849 92.0024C11.6886 92.0024 12.337 92.3155 13.0077 92.3155C13.6114 92.3155 14.2375 92.0248 14.9082 92.0024C15.5119 92.0024 16.1603 91.6894 16.8087 91.667C17.4124 91.667 18.0608 91.7118 18.7315 91.667C19.3576 91.667 19.9836 91.5553 20.632 91.5329C21.258 91.5329 21.8841 91.6894 22.5548 91.667C23.1809 91.667 23.8069 91.7341 24.4777 91.7118C25.1484 91.6894 25.7521 91.913 26.4005 91.8906C27.0489 91.8683 27.6302 91.3764 28.2786 91.354C28.927 91.3317 29.5531 91.5105 30.2015 91.4882C30.8499 91.4658 31.4759 91.5553 32.1243 91.5329C32.7727 91.5105 33.354 91.041 34.0024 91.0186C34.6508 90.9963 35.2769 91.2199 35.9253 91.1975C36.5737 91.1752 37.1774 91.0634 37.8258 91.0186C38.4742 90.9739 39.0779 90.7727 39.7039 90.728C40.3299 90.6833 40.956 90.6833 41.6044 90.6386C42.2528 90.5938 42.8564 90.5491 43.5048 90.5044C44.1532 90.4597 44.8017 90.8845 45.4501 90.8621C46.0985 90.8398 46.6798 90.3032 47.3282 90.2585C47.9766 90.2137 48.625 90.6386 49.2734 90.5938C49.9218 90.5491 50.5031 90.1019 51.1515 90.0572C51.7999 90.0125 52.4259 90.1467 53.052 90.1019C53.678 90.0572 54.3041 89.8784 54.9525 89.8336C55.6009 89.7889 56.2493 90.1243 56.8976 90.0796C57.546 90.0349 58.1497 89.8113 58.7981 89.7666C59.4465 89.7218 60.0726 89.6548 60.6986 89.5877C61.3246 89.5206 61.9954 89.6995 62.6438 89.6548C63.2922 89.6101 63.9182 89.543 64.5666 89.4983C65.5504 89.3865 65.2598 89.1629 66.4671 88.984C67.0261 88.9169 67.7192 89.0958 68.457 88.984C69.0607 88.8946 69.6868 88.6263 70.3799 88.5368C71.0059 88.4474 71.5872 88.0002 72.2804 87.9108C72.9064 87.8214 73.5772 87.8437 74.2479 87.7543C74.9187 87.6649 75.5224 87.5083 76.1708 87.4189C76.8192 87.3295 77.4899 87.3518 78.1383 87.24C78.7867 87.1283 79.5022 87.3742 80.1282 87.2848C80.7543 87.1953 81.358 86.614 82.0064 86.5246C82.6548 86.4351 83.3926 86.6811 84.0186 86.5693C84.6894 86.4575 85.3378 86.3457 85.9415 86.2339C86.6346 86.0998 86.9476 85.742 87.5289 85.6302C87.7078 84.5794 87.5289 84.6017 87.6854 83.5509C87.8419 82.3659 88.3115 82.0529 87.5513 81.2927L87.4842 81.2703Z" fill="#FF8181" stroke="#ED7A7A" stroke-width="1.11793" stroke-miterlimit="10"/>
<mask id="path-6-inside-2_792_2575" fill="white">
<path d="M86.3014 80.9339C86.9722 80.2631 86.3238 79.8383 86.3238 78.8769C86.3238 77.9155 85.9437 77.9378 85.9437 76.9764C85.9437 76.015 86.1673 76.0373 86.1673 75.0759C86.1673 74.1145 86.3909 74.1145 86.3909 73.1754C86.3909 72.2364 86.0331 72.214 86.0331 71.275C86.0331 70.3359 85.9213 70.3359 85.9213 69.3745C85.9213 68.4131 85.8096 68.4354 85.8096 67.474C85.8096 66.5126 86.1226 66.5126 86.1226 65.5735C86.1226 64.6345 85.8319 64.6345 85.8319 63.673C85.8319 62.7116 86.0331 62.734 86.0331 61.7726C86.0331 60.8111 86.1897 60.8335 86.1897 59.8721C86.1897 58.9107 86.1673 58.9107 86.1673 57.9716C86.1673 57.0325 85.9213 57.0102 85.9213 56.0711C85.9213 55.1321 85.8096 55.1097 85.8096 54.1706C85.8096 53.2316 86.1449 53.2092 86.1449 52.2702C86.1449 51.3311 86.3462 51.3087 86.3462 50.3697C86.3462 49.4306 86.3014 49.4083 86.3014 48.4692C86.3014 47.5301 86.1897 47.5301 86.1897 46.5687C86.1897 45.6073 86.3685 45.6073 86.3685 44.6682C86.3685 43.7292 85.9661 43.7068 85.9661 42.7454C85.9661 41.784 86.2567 41.784 86.2567 40.8226C86.2567 39.8611 86.3685 39.8611 86.3685 38.8997C86.3685 38.2737 86.1897 37.6253 86.1449 36.9992C86.1002 36.3732 86.1449 35.7248 86.1002 35.0764C86.0555 34.428 86.0555 33.802 85.9437 33.1536C85.8319 32.5052 85.5636 31.9238 85.4295 31.2978C85.2953 30.6718 85.1612 30.0457 85.0046 29.442C84.8481 28.8384 84.6022 28.2347 84.4233 27.631C84.2445 27.0273 83.7078 26.5578 83.4843 25.9317C83.2607 25.3504 83.283 24.6573 83.0371 24.0536C82.7911 23.4499 82.657 22.8462 82.3887 22.2426C82.1204 21.6389 81.6956 21.1694 81.4049 20.588C81.1142 20.0067 80.913 19.403 80.5776 18.8664C80.2423 18.3298 79.7504 17.8826 79.3926 17.346C79.0349 16.8094 78.9678 16.0716 78.5877 15.5573C78.2076 15.0431 77.4922 14.7972 77.0897 14.3053C76.6872 13.8134 76.3295 13.2991 75.8823 12.8296C75.4352 12.3601 74.988 11.9353 74.5185 11.4881C74.0489 11.0409 73.6465 10.549 73.1546 10.1466C72.6627 9.74411 72.2155 9.25222 71.6789 8.89449C71.1423 8.53675 70.6057 8.17901 70.0467 7.84363C69.4878 7.50825 68.8394 7.3741 68.2804 7.08344C67.7215 6.79278 67.2296 6.30089 66.6482 6.03259C66.0669 5.76428 65.262 6.0773 64.6583 5.85372C64.0546 5.63013 63.6075 5.02645 62.9814 4.84758C62.3554 4.66871 61.6623 4.8923 61.0362 4.73579C60.4102 4.57928 59.8736 4.1321 59.2252 4.02031C58.5768 3.90852 57.9507 3.99795 57.3023 3.93088C56.6539 3.8638 56.0279 3.90852 55.3795 3.8638C54.7311 3.81908 54.1051 3.95324 53.4567 3.93088C52.8083 3.90852 52.1822 3.55078 51.5338 3.55078C50.8854 3.55078 50.2817 3.81908 49.611 3.8638C48.9402 3.90852 48.3365 3.77437 47.6658 3.8638C46.7044 3.99795 47.0397 4.28861 45.8771 4.62399C45.3405 4.75815 44.6921 4.80286 43.999 5.02645C43.44 5.20532 42.7916 5.27239 42.1432 5.51834C41.5843 5.74192 40.8688 5.71957 40.2427 5.98787C39.6838 6.23381 39.2813 6.92693 38.6776 7.21759C38.1187 7.48589 37.6044 7.88835 37.0231 8.20137C36.4641 8.49203 35.9275 8.82741 35.3686 9.16279C34.8096 9.49817 34.0494 9.43109 33.4904 9.78883C32.9315 10.1466 32.4843 10.5937 31.9477 10.9738C31.4111 11.3539 31.0757 11.9353 30.5615 12.3377C30.0472 12.7402 29.5106 13.0755 29.0187 13.5004C28.5268 13.9252 27.9455 14.2158 27.476 14.6854C27.0064 15.1549 26.7158 15.7362 26.2686 16.2057C25.8214 16.6753 25.0836 16.8989 24.6812 17.4131C24.2787 17.9274 24.3458 18.777 23.9657 19.3136C23.5856 19.8502 22.803 20.0738 22.4676 20.6327C22.1323 21.1917 21.8193 21.7507 21.4839 22.332C21.1485 22.9133 20.9696 23.517 20.7013 24.1207C20.433 24.7244 20.1647 25.3057 19.9188 25.9094C19.6728 26.5131 19.494 27.1167 19.2704 27.7428C19.0468 28.3688 18.8008 29.0396 18.622 29.688C18.4431 30.3364 18.622 31.0742 18.4655 31.745C18.309 32.4157 17.9959 33.0418 17.8841 33.7125C17.7723 34.3833 17.7276 35.054 17.6606 35.7472C17.5935 36.4403 17.75 37.111 17.7276 37.8042C17.7053 38.4973 17.6158 39.1457 17.6158 39.8388C17.6158 40.8002 17.6158 40.8002 17.6158 41.7393C17.6158 42.6783 17.6158 42.6783 17.6158 43.6397C17.6158 44.6012 17.3028 44.5788 17.3028 45.5402C17.3028 46.5016 17.4146 46.4793 17.4146 47.4407C17.4146 48.4021 17.4593 48.4021 17.4593 49.3412C17.4593 50.2802 17.1239 50.3026 17.1239 51.2417C17.1239 52.1807 17.4817 52.1807 17.4817 53.1421C17.4817 54.1036 17.2581 54.0812 17.2581 55.0426C17.2581 56.004 17.3699 56.0041 17.3699 56.9431C17.3699 57.8822 17.5935 57.8822 17.5935 58.8436C17.5935 59.805 17.1016 59.7827 17.1016 60.7441C17.1016 61.7055 17.0569 61.6831 17.0569 62.6446C17.0569 63.606 17.5935 63.606 17.5935 64.545C17.5935 65.4841 17.3028 65.5065 17.3028 66.4455C17.3028 67.3846 17.6606 67.4069 17.6606 68.346C17.6606 69.2851 17.5935 69.3074 17.5935 70.2465C17.5935 71.1855 17.3028 71.2079 17.3028 72.147C17.3028 73.086 17.4593 73.1084 17.4593 74.0474C17.4593 74.9865 17.504 74.9865 17.504 75.9479C17.504 76.9093 17.3922 76.9093 17.3922 77.8484C17.3922 78.7875 17.3028 78.8098 17.3028 79.7712C17.3028 80.7327 17.5711 80.7327 17.5711 81.6941C17.5711 82.6555 16.7438 82.8791 17.437 83.5498C18.1301 84.2206 18.3313 83.7063 19.2927 83.6616C20.2542 83.6169 20.2318 83.2368 21.1709 83.1921C22.1099 83.1474 22.1323 83.125 23.0713 83.1027C24.0104 83.0803 24.0328 83.5051 24.9942 83.4604C25.9556 83.4157 25.9556 83.4604 26.8946 83.4604C27.8337 83.4604 27.8561 83.3486 28.7951 83.3039C29.7342 83.2592 29.7342 82.812 30.6956 82.7673C31.657 82.7226 31.657 83.058 32.6185 83.0132C33.5799 82.9685 33.5799 83.2145 34.5413 83.1697C35.5027 83.125 35.4804 82.9909 36.4418 82.9462C37.4032 82.9014 37.4032 83.0803 38.3646 83.0579C39.326 83.0356 39.3037 82.499 40.2427 82.4766C41.1818 82.4543 41.2042 82.7673 42.1656 82.7226C43.127 82.6779 43.127 82.7226 44.0884 82.6555C45.0498 82.5884 45.0498 82.5213 45.9889 82.4766C46.928 82.4319 46.9503 82.5661 47.9117 82.5213C48.8732 82.4766 48.8508 82.2978 49.8122 82.253C50.7736 82.2083 50.7736 82.0742 51.7127 82.0295C52.6518 81.9847 52.6741 81.94 53.6132 81.8953C54.5522 81.8506 54.5746 82.0071 55.536 81.9624C56.4974 81.9177 56.4974 82.1636 57.4589 82.1412C58.4203 82.1189 58.4203 82.0965 59.3817 82.0518C60.3431 82.0071 60.3431 82.0518 61.2822 82.0071C62.2212 81.9624 62.2212 81.8729 63.1827 81.8282C64.1441 81.7835 64.1441 81.7164 65.0831 81.6941C66.0222 81.6717 66.0222 81.3363 66.9836 81.2916C67.945 81.2469 67.9674 81.7835 68.9288 81.7388C69.8902 81.6941 69.8679 81.2245 70.8293 81.1798C71.7907 81.1351 71.8131 81.5599 72.7745 81.5152C73.7359 81.4705 73.7136 81.2245 74.675 81.1798C75.6364 81.1351 75.6364 81.4928 76.5978 81.4481C77.5592 81.4034 77.5369 81.1575 78.4983 81.1351C79.4597 81.1128 79.4597 81.3363 80.4211 81.2916C81.3826 81.2469 81.3602 80.8668 82.3216 80.8221C83.283 80.7774 83.3725 80.3749 84.3115 80.5761C85.4071 80.7997 85.653 81.6494 86.3462 80.9562L86.3014 80.9339Z"/>
</mask>
<path d="M86.3014 80.9339C86.9722 80.2631 86.3238 79.8383 86.3238 78.8769C86.3238 77.9155 85.9437 77.9378 85.9437 76.9764C85.9437 76.015 86.1673 76.0373 86.1673 75.0759C86.1673 74.1145 86.3909 74.1145 86.3909 73.1754C86.3909 72.2364 86.0331 72.214 86.0331 71.275C86.0331 70.3359 85.9213 70.3359 85.9213 69.3745C85.9213 68.4131 85.8096 68.4354 85.8096 67.474C85.8096 66.5126 86.1226 66.5126 86.1226 65.5735C86.1226 64.6345 85.8319 64.6345 85.8319 63.673C85.8319 62.7116 86.0331 62.734 86.0331 61.7726C86.0331 60.8111 86.1897 60.8335 86.1897 59.8721C86.1897 58.9107 86.1673 58.9107 86.1673 57.9716C86.1673 57.0325 85.9213 57.0102 85.9213 56.0711C85.9213 55.1321 85.8096 55.1097 85.8096 54.1706C85.8096 53.2316 86.1449 53.2092 86.1449 52.2702C86.1449 51.3311 86.3462 51.3087 86.3462 50.3697C86.3462 49.4306 86.3014 49.4083 86.3014 48.4692C86.3014 47.5301 86.1897 47.5301 86.1897 46.5687C86.1897 45.6073 86.3685 45.6073 86.3685 44.6682C86.3685 43.7292 85.9661 43.7068 85.9661 42.7454C85.9661 41.784 86.2567 41.784 86.2567 40.8226C86.2567 39.8611 86.3685 39.8611 86.3685 38.8997C86.3685 38.2737 86.1897 37.6253 86.1449 36.9992C86.1002 36.3732 86.1449 35.7248 86.1002 35.0764C86.0555 34.428 86.0555 33.802 85.9437 33.1536C85.8319 32.5052 85.5636 31.9238 85.4295 31.2978C85.2953 30.6718 85.1612 30.0457 85.0046 29.442C84.8481 28.8384 84.6022 28.2347 84.4233 27.631C84.2445 27.0273 83.7078 26.5578 83.4843 25.9317C83.2607 25.3504 83.283 24.6573 83.0371 24.0536C82.7911 23.4499 82.657 22.8462 82.3887 22.2426C82.1204 21.6389 81.6956 21.1694 81.4049 20.588C81.1142 20.0067 80.913 19.403 80.5776 18.8664C80.2423 18.3298 79.7504 17.8826 79.3926 17.346C79.0349 16.8094 78.9678 16.0716 78.5877 15.5573C78.2076 15.0431 77.4922 14.7972 77.0897 14.3053C76.6872 13.8134 76.3295 13.2991 75.8823 12.8296C75.4352 12.3601 74.988 11.9353 74.5185 11.4881C74.0489 11.0409 73.6465 10.549 73.1546 10.1466C72.6627 9.74411 72.2155 9.25222 71.6789 8.89449C71.1423 8.53675 70.6057 8.17901 70.0467 7.84363C69.4878 7.50825 68.8394 7.3741 68.2804 7.08344C67.7215 6.79278 67.2296 6.30089 66.6482 6.03259C66.0669 5.76428 65.262 6.0773 64.6583 5.85372C64.0546 5.63013 63.6075 5.02645 62.9814 4.84758C62.3554 4.66871 61.6623 4.8923 61.0362 4.73579C60.4102 4.57928 59.8736 4.1321 59.2252 4.02031C58.5768 3.90852 57.9507 3.99795 57.3023 3.93088C56.6539 3.8638 56.0279 3.90852 55.3795 3.8638C54.7311 3.81908 54.1051 3.95324 53.4567 3.93088C52.8083 3.90852 52.1822 3.55078 51.5338 3.55078C50.8854 3.55078 50.2817 3.81908 49.611 3.8638C48.9402 3.90852 48.3365 3.77437 47.6658 3.8638C46.7044 3.99795 47.0397 4.28861 45.8771 4.62399C45.3405 4.75815 44.6921 4.80286 43.999 5.02645C43.44 5.20532 42.7916 5.27239 42.1432 5.51834C41.5843 5.74192 40.8688 5.71957 40.2427 5.98787C39.6838 6.23381 39.2813 6.92693 38.6776 7.21759C38.1187 7.48589 37.6044 7.88835 37.0231 8.20137C36.4641 8.49203 35.9275 8.82741 35.3686 9.16279C34.8096 9.49817 34.0494 9.43109 33.4904 9.78883C32.9315 10.1466 32.4843 10.5937 31.9477 10.9738C31.4111 11.3539 31.0757 11.9353 30.5615 12.3377C30.0472 12.7402 29.5106 13.0755 29.0187 13.5004C28.5268 13.9252 27.9455 14.2158 27.476 14.6854C27.0064 15.1549 26.7158 15.7362 26.2686 16.2057C25.8214 16.6753 25.0836 16.8989 24.6812 17.4131C24.2787 17.9274 24.3458 18.777 23.9657 19.3136C23.5856 19.8502 22.803 20.0738 22.4676 20.6327C22.1323 21.1917 21.8193 21.7507 21.4839 22.332C21.1485 22.9133 20.9696 23.517 20.7013 24.1207C20.433 24.7244 20.1647 25.3057 19.9188 25.9094C19.6728 26.5131 19.494 27.1167 19.2704 27.7428C19.0468 28.3688 18.8008 29.0396 18.622 29.688C18.4431 30.3364 18.622 31.0742 18.4655 31.745C18.309 32.4157 17.9959 33.0418 17.8841 33.7125C17.7723 34.3833 17.7276 35.054 17.6606 35.7472C17.5935 36.4403 17.75 37.111 17.7276 37.8042C17.7053 38.4973 17.6158 39.1457 17.6158 39.8388C17.6158 40.8002 17.6158 40.8002 17.6158 41.7393C17.6158 42.6783 17.6158 42.6783 17.6158 43.6397C17.6158 44.6012 17.3028 44.5788 17.3028 45.5402C17.3028 46.5016 17.4146 46.4793 17.4146 47.4407C17.4146 48.4021 17.4593 48.4021 17.4593 49.3412C17.4593 50.2802 17.1239 50.3026 17.1239 51.2417C17.1239 52.1807 17.4817 52.1807 17.4817 53.1421C17.4817 54.1036 17.2581 54.0812 17.2581 55.0426C17.2581 56.004 17.3699 56.0041 17.3699 56.9431C17.3699 57.8822 17.5935 57.8822 17.5935 58.8436C17.5935 59.805 17.1016 59.7827 17.1016 60.7441C17.1016 61.7055 17.0569 61.6831 17.0569 62.6446C17.0569 63.606 17.5935 63.606 17.5935 64.545C17.5935 65.4841 17.3028 65.5065 17.3028 66.4455C17.3028 67.3846 17.6606 67.4069 17.6606 68.346C17.6606 69.2851 17.5935 69.3074 17.5935 70.2465C17.5935 71.1855 17.3028 71.2079 17.3028 72.147C17.3028 73.086 17.4593 73.1084 17.4593 74.0474C17.4593 74.9865 17.504 74.9865 17.504 75.9479C17.504 76.9093 17.3922 76.9093 17.3922 77.8484C17.3922 78.7875 17.3028 78.8098 17.3028 79.7712C17.3028 80.7327 17.5711 80.7327 17.5711 81.6941C17.5711 82.6555 16.7438 82.8791 17.437 83.5498C18.1301 84.2206 18.3313 83.7063 19.2927 83.6616C20.2542 83.6169 20.2318 83.2368 21.1709 83.1921C22.1099 83.1474 22.1323 83.125 23.0713 83.1027C24.0104 83.0803 24.0328 83.5051 24.9942 83.4604C25.9556 83.4157 25.9556 83.4604 26.8946 83.4604C27.8337 83.4604 27.8561 83.3486 28.7951 83.3039C29.7342 83.2592 29.7342 82.812 30.6956 82.7673C31.657 82.7226 31.657 83.058 32.6185 83.0132C33.5799 82.9685 33.5799 83.2145 34.5413 83.1697C35.5027 83.125 35.4804 82.9909 36.4418 82.9462C37.4032 82.9014 37.4032 83.0803 38.3646 83.0579C39.326 83.0356 39.3037 82.499 40.2427 82.4766C41.1818 82.4543 41.2042 82.7673 42.1656 82.7226C43.127 82.6779 43.127 82.7226 44.0884 82.6555C45.0498 82.5884 45.0498 82.5213 45.9889 82.4766C46.928 82.4319 46.9503 82.5661 47.9117 82.5213C48.8732 82.4766 48.8508 82.2978 49.8122 82.253C50.7736 82.2083 50.7736 82.0742 51.7127 82.0295C52.6518 81.9847 52.6741 81.94 53.6132 81.8953C54.5522 81.8506 54.5746 82.0071 55.536 81.9624C56.4974 81.9177 56.4974 82.1636 57.4589 82.1412C58.4203 82.1189 58.4203 82.0965 59.3817 82.0518C60.3431 82.0071 60.3431 82.0518 61.2822 82.0071C62.2212 81.9624 62.2212 81.8729 63.1827 81.8282C64.1441 81.7835 64.1441 81.7164 65.0831 81.6941C66.0222 81.6717 66.0222 81.3363 66.9836 81.2916C67.945 81.2469 67.9674 81.7835 68.9288 81.7388C69.8902 81.6941 69.8679 81.2245 70.8293 81.1798C71.7907 81.1351 71.8131 81.5599 72.7745 81.5152C73.7359 81.4705 73.7136 81.2245 74.675 81.1798C75.6364 81.1351 75.6364 81.4928 76.5978 81.4481C77.5592 81.4034 77.5369 81.1575 78.4983 81.1351C79.4597 81.1128 79.4597 81.3363 80.4211 81.2916C81.3826 81.2469 81.3602 80.8668 82.3216 80.8221C83.283 80.7774 83.3725 80.3749 84.3115 80.5761C85.4071 80.7997 85.653 81.6494 86.3462 80.9562L86.3014 80.9339Z" fill="#BA6565" stroke="#ED7A7A" stroke-width="2.23586" mask="url(#path-6-inside-2_792_2575)"/>
<path d="M86.3014 80.9339C86.9722 80.2631 86.3238 79.8383 86.3238 78.8769C86.3238 77.9155 85.9437 77.9378 85.9437 76.9764C85.9437 76.015 86.1673 76.0373 86.1673 75.0759C86.1673 74.1145 86.3909 74.1145 86.3909 73.1754C86.3909 72.2364 86.0331 72.214 86.0331 71.275C86.0331 70.3359 85.9213 70.3359 85.9213 69.3745C85.9213 68.4131 85.8096 68.4354 85.8096 67.474C85.8096 66.5126 86.1226 66.5126 86.1226 65.5735C86.1226 64.6345 85.8319 64.6345 85.8319 63.673C85.8319 62.7116 86.0331 62.734 86.0331 61.7726C86.0331 60.8111 86.1897 60.8335 86.1897 59.8721C86.1897 58.9107 86.1673 58.9107 86.1673 57.9716C86.1673 57.0325 85.9213 57.0102 85.9213 56.0711C85.9213 55.1321 85.8096 55.1097 85.8096 54.1706C85.8096 53.2316 86.1449 53.2092 86.1449 52.2702C86.1449 51.3311 86.3462 51.3087 86.3462 50.3697C86.3462 49.4306 86.3014 49.4083 86.3014 48.4692C86.3014 47.5301 86.1897 47.5301 86.1897 46.5687C86.1897 45.6073 86.3685 45.6073 86.3685 44.6682C86.3685 43.7292 85.9661 43.7068 85.9661 42.7454C85.9661 41.784 86.2567 41.784 86.2567 40.8226C86.2567 39.8611 86.3685 39.8611 86.3685 38.8997C86.3685 38.2737 86.1897 37.6253 86.1449 36.9992C86.1002 36.3732 86.1449 35.7248 86.1002 35.0764C86.0555 34.428 86.0555 33.802 85.9437 33.1536C85.8319 32.5052 85.5636 31.9238 85.4295 31.2978C85.2953 30.6718 85.1612 30.0457 85.0046 29.442C84.8481 28.8384 84.6022 28.2347 84.4233 27.631C84.2445 27.0273 83.7078 26.5578 83.4843 25.9317C83.2607 25.3504 83.283 24.6573 83.0371 24.0536C82.7911 23.4499 82.657 22.8462 82.3887 22.2426C82.1204 21.6389 81.6956 21.1694 81.4049 20.588C81.1142 20.0067 80.913 19.403 80.5776 18.8664C80.2423 18.3298 79.7504 17.8826 79.3926 17.346C79.0349 16.8094 78.9678 16.0716 78.5877 15.5573C78.2076 15.0431 77.4922 14.7972 77.0897 14.3053C76.6872 13.8134 76.3295 13.2991 75.8823 12.8296C75.4352 12.3601 74.988 11.9353 74.5185 11.4881C74.0489 11.0409 73.6465 10.549 73.1546 10.1466C72.6627 9.74411 72.2155 9.25222 71.6789 8.89449C71.1423 8.53675 70.6057 8.17901 70.0467 7.84363C69.4878 7.50825 68.8394 7.3741 68.2804 7.08344C67.7215 6.79278 67.2296 6.30089 66.6482 6.03259C66.0669 5.76428 65.262 6.0773 64.6583 5.85372C64.0546 5.63013 63.6075 5.02645 62.9814 4.84758C62.3554 4.66871 61.6623 4.8923 61.0362 4.73579C60.4102 4.57928 59.8736 4.1321 59.2252 4.02031C58.5768 3.90852 57.9507 3.99795 57.3023 3.93088C56.6539 3.8638 56.0279 3.90852 55.3795 3.8638C54.7311 3.81908 54.1051 3.95324 53.4567 3.93088C52.8083 3.90852 52.1822 3.55078 51.5338 3.55078C50.8854 3.55078 50.2817 3.81908 49.611 3.8638C48.9402 3.90852 48.3365 3.77437 47.6658 3.8638C46.7044 3.99795 47.0397 4.28861 45.8771 4.62399C45.3405 4.75815 44.6921 4.80286 43.999 5.02645C43.44 5.20532 42.7916 5.27239 42.1432 5.51834C41.5843 5.74192 40.8688 5.71957 40.2427 5.98787C39.6838 6.23381 39.2813 6.92693 38.6776 7.21759C38.1187 7.48589 37.6044 7.88835 37.0231 8.20137C36.4641 8.49203 35.9275 8.82741 35.3686 9.16279C34.8096 9.49817 34.0494 9.43109 33.4904 9.78883C32.9315 10.1466 32.4843 10.5937 31.9477 10.9738C31.4111 11.3539 31.0757 11.9353 30.5615 12.3377C30.0472 12.7402 29.5106 13.0755 29.0187 13.5004C28.5268 13.9252 27.9455 14.2158 27.476 14.6854C27.0064 15.1549 26.7158 15.7362 26.2686 16.2057C25.8214 16.6753 25.0836 16.8989 24.6812 17.4131C24.2787 17.9274 24.3458 18.777 23.9657 19.3136C23.5856 19.8502 22.803 20.0738 22.4676 20.6327C22.1323 21.1917 21.8193 21.7507 21.4839 22.332C21.1485 22.9133 20.9696 23.517 20.7013 24.1207C20.433 24.7244 20.1647 25.3057 19.9188 25.9094C19.6728 26.5131 19.494 27.1167 19.2704 27.7428C19.0468 28.3688 18.8008 29.0396 18.622 29.688C18.4431 30.3364 18.622 31.0742 18.4655 31.745C18.309 32.4157 17.9959 33.0418 17.8841 33.7125C17.7723 34.3833 17.7276 35.054 17.6606 35.7472C17.5935 36.4403 17.75 37.111 17.7276 37.8042C17.7053 38.4973 17.6158 39.1457 17.6158 39.8388C17.6158 40.8002 17.6158 40.8002 17.6158 41.7393C17.6158 42.6783 17.6158 42.6783 17.6158 43.6397C17.6158 44.6012 17.3028 44.5788 17.3028 45.5402C17.3028 46.5016 17.4146 46.4793 17.4146 47.4407C17.4146 48.4021 17.4593 48.4021 17.4593 49.3412C17.4593 50.2802 17.1239 50.3026 17.1239 51.2417C17.1239 52.1807 17.4817 52.1807 17.4817 53.1421C17.4817 54.1036 17.2581 54.0812 17.2581 55.0426C17.2581 56.004 17.3699 56.0041 17.3699 56.9431C17.3699 57.8822 17.5935 57.8822 17.5935 58.8436C17.5935 59.805 17.1016 59.7827 17.1016 60.7441C17.1016 61.7055 17.0569 61.6831 17.0569 62.6446C17.0569 63.606 17.5935 63.606 17.5935 64.545C17.5935 65.4841 17.3028 65.5065 17.3028 66.4455C17.3028 67.3846 17.6606 67.4069 17.6606 68.346C17.6606 69.2851 17.5935 69.3074 17.5935 70.2465C17.5935 71.1855 17.3028 71.2079 17.3028 72.147C17.3028 73.086 17.4593 73.1084 17.4593 74.0474C17.4593 74.9865 17.504 74.9865 17.504 75.9479C17.504 76.9093 17.3922 76.9093 17.3922 77.8484C17.3922 78.7875 17.3028 78.8098 17.3028 79.7712C17.3028 80.7327 17.5711 80.7327 17.5711 81.6941C17.5711 82.6555 16.7438 82.8791 17.437 83.5498C18.1301 84.2206 18.3313 83.7063 19.2927 83.6616C20.2542 83.6169 20.2318 83.2368 21.1709 83.1921C22.1099 83.1474 22.1323 83.125 23.0713 83.1027C24.0104 83.0803 24.0328 83.5051 24.9942 83.4604C25.9556 83.4157 25.9556 83.4604 26.8946 83.4604C27.8337 83.4604 27.8561 83.3486 28.7951 83.3039C29.7342 83.2592 29.7342 82.812 30.6956 82.7673C31.657 82.7226 31.657 83.058 32.6185 83.0132C33.5799 82.9685 33.5799 83.2145 34.5413 83.1697C35.5027 83.125 35.4804 82.9909 36.4418 82.9462C37.4032 82.9014 37.4032 83.0803 38.3646 83.0579C39.326 83.0356 39.3037 82.499 40.2427 82.4766C41.1818 82.4543 41.2042 82.7673 42.1656 82.7226C43.127 82.6779 43.127 82.7226 44.0884 82.6555C45.0498 82.5884 45.0498 82.5213 45.9889 82.4766C46.928 82.4319 46.9503 82.5661 47.9117 82.5213C48.8732 82.4766 48.8508 82.2978 49.8122 82.253C50.7736 82.2083 50.7736 82.0742 51.7127 82.0295C52.6518 81.9847 52.6741 81.94 53.6132 81.8953C54.5522 81.8506 54.5746 82.0071 55.536 81.9624C56.4974 81.9177 56.4974 82.1636 57.4589 82.1412C58.4203 82.1189 58.4203 82.0965 59.3817 82.0518C60.3431 82.0071 60.3431 82.0518 61.2822 82.0071C62.2212 81.9624 62.2212 81.8729 63.1827 81.8282C64.1441 81.7835 64.1441 81.7164 65.0831 81.6941C66.0222 81.6717 66.0222 81.3363 66.9836 81.2916C67.945 81.2469 67.9674 81.7835 68.9288 81.7388C69.8902 81.6941 69.8679 81.2245 70.8293 81.1798C71.7907 81.1351 71.8131 81.5599 72.7745 81.5152C73.7359 81.4705 73.7136 81.2245 74.675 81.1798C75.6364 81.1351 75.6364 81.4928 76.5978 81.4481C77.5592 81.4034 77.5369 81.1575 78.4983 81.1351C79.4597 81.1128 79.4597 81.3363 80.4211 81.2916C81.3826 81.2469 81.3602 80.8668 82.3216 80.8221C83.283 80.7774 83.3725 80.3749 84.3115 80.5761C85.4071 80.7997 85.653 81.6494 86.3462 80.9562L86.3014 80.9339Z" fill="#BA6565" stroke="#ED7A7A" stroke-width="1.11793" stroke-miterlimit="10"/>
<rect width="89.4344" height="17.8869" transform="matrix(-1 0 0 1 118.34 289.092)" fill="#D8C08B"/>
<rect x="24" y="75" width="59" height="1" fill="#F9F8E6"/>
<rect x="23.9961" y="74.5391" width="59" height="1" transform="rotate(-1.04514 23.9961 74.5391)" fill="#F9F8E6"/>
<rect x="24.0059" y="72" width="59" height="1" transform="rotate(0.348845 24.0059 72)" fill="#F9F8E6"/>
</svg>
