<svg width="24" height="24" viewBox="0 0 24 24" fill="none" xmlns="http://www.w3.org/2000/svg">
<path fill-rule="evenodd" clip-rule="evenodd" d="M2.5192 7.82274C2 8.77128 2 9.91549 2 12.2039V13.725C2 17.6258 2 19.5763 3.17157 20.7881C4.34315 22 6.22876 22 10 22H14C17.7712 22 19.6569 22 20.8284 20.7881C22 19.5763 22 17.6258 22 13.725V12.2039C22 9.91549 22 8.77128 21.4808 7.82274C20.9616 6.87421 20.0131 6.28551 18.116 5.10812L16.116 3.86687C14.1106 2.62229 13.1079 2 12 2C10.8921 2 9.88939 2.62229 7.88403 3.86687L5.88403 5.10813C3.98695 6.28551 3.0384 6.87421 2.5192 7.82274Z" fill="#5E5E5E" stroke="#5E5E5E" stroke-width="2.5"/>
<path fill-rule="evenodd" clip-rule="evenodd" d="M9.44666 15.3975C9.11389 15.1509 8.64418 15.2207 8.39752 15.5534C8.15086 15.8862 8.22067 16.3559 8.55343 16.6026C9.52585 17.3234 10.7151 17.75 12 17.75C13.285 17.75 14.4742 17.3234 15.4467 16.6026C15.7794 16.3559 15.8492 15.8862 15.6026 15.5534C15.3559 15.2207 14.8862 15.1509 14.5534 15.3975C13.8251 15.9374 12.9459 16.25 12 16.25C11.0541 16.25 10.175 15.9374 9.44666 15.3975Z" fill="white"/>
</svg>
