<svg width="37" height="40" viewBox="0 0 37 40" fill="none" xmlns="http://www.w3.org/2000/svg">
<path d="M3.37391 35.3982L2.4189 36.2047L2.4189 36.2047L3.37391 35.3982ZM3.43759 20.9462L4.66544 21.1805L3.43759 20.9462ZM33.5624 20.9462L32.3346 21.1805L33.5624 20.9462ZM33.6261 35.3982L34.5811 36.2047L34.5811 36.2047L33.6261 35.3982ZM29.9198 10.8595L30.7099 9.89086V9.89086L29.9198 10.8595ZM7.08017 10.8595L6.29013 9.89086L6.29013 9.89086L7.08017 10.8595ZM16.7469 26.958L16.0158 27.9719L16.0158 27.9719L16.7469 26.958ZM18.5 20.3444L17.6434 21.2548C18.1247 21.7076 18.8753 21.7076 19.3566 21.2548L18.5 20.3444ZM20.2531 26.958L19.522 25.9441L20.2531 26.958ZM18.5 27.7896L18.5 26.5396H18.5L18.5 27.7896ZM11.7552 9.2C11.7552 9.89036 12.3148 10.45 13.0052 10.45C13.6955 10.45 14.2552 9.89036 14.2552 9.2H13.0052H11.7552ZM22.7448 9.2C22.7448 9.89036 23.3045 10.45 23.9948 10.45C24.6852 10.45 25.2448 9.89036 25.2448 9.2H23.9948H22.7448ZM17.8395 9.2V10.45H19.1605V9.2V7.95H17.8395V9.2ZM19.1605 38V36.75H17.8395V38V39.25H19.1605V38ZM17.8395 38V36.75C13.7122 36.75 10.7494 36.7471 8.53718 36.4369C6.35621 36.1311 5.14235 35.5549 4.32892 34.5917L3.37391 35.3982L2.4189 36.2047C3.80272 37.8433 5.73221 38.568 8.19002 38.9127C10.6166 39.2529 13.7879 39.25 17.8395 39.25V38ZM3.43759 20.9462L2.20974 20.712C1.46344 24.6235 0.874917 27.6915 0.767784 30.1036C0.659014 32.5526 1.03134 34.5616 2.4189 36.2047L3.37391 35.3982L4.32892 34.5917C3.51924 33.6329 3.16977 32.366 3.26532 30.2145C3.36252 28.0261 3.90445 25.1691 4.66544 21.1805L3.43759 20.9462ZM33.5624 20.9462L32.3346 21.1805C33.0956 25.1691 33.6375 28.0261 33.7347 30.2145C33.8302 32.366 33.4808 33.6329 32.6711 34.5917L33.6261 35.3982L34.5811 36.2047C35.9687 34.5616 36.341 32.5526 36.2322 30.1036C36.1251 27.6915 35.5366 24.6235 34.7903 20.712L33.5624 20.9462ZM19.1605 38V39.25C23.2121 39.25 26.3834 39.2529 28.81 38.9127C31.2678 38.568 33.1973 37.8433 34.5811 36.2047L33.6261 35.3982L32.6711 34.5917C31.8576 35.5549 30.6438 36.1311 28.4628 36.4369C26.2506 36.7471 23.2878 36.75 19.1605 36.75V38ZM19.1605 9.2V10.45C22.0998 10.45 24.1919 10.4521 25.8076 10.6483C27.3906 10.8405 28.3653 11.2047 29.1298 11.8282L29.9198 10.8595L30.7099 9.89086C29.4396 8.85487 27.9429 8.38923 26.1089 8.16655C24.3077 7.94785 22.0375 7.95 19.1605 7.95V9.2ZM33.5624 20.9462L34.7903 20.712C34.2603 17.9345 33.8434 15.7369 33.2913 14.0331C32.728 12.2947 31.9824 10.9287 30.7099 9.89086L29.9198 10.8595L29.1298 11.8282C29.892 12.4499 30.4317 13.3182 30.913 14.8037C31.4056 16.3239 31.7926 18.3399 32.3346 21.1805L33.5624 20.9462ZM17.8395 9.2V7.95C14.9625 7.95 12.6923 7.94785 10.8911 8.16655C9.05715 8.38923 7.56035 8.85487 6.29013 9.89086L7.08017 10.8595L7.87022 11.8282C8.63474 11.2047 9.60941 10.8405 11.1924 10.6483C12.8081 10.4521 14.9002 10.45 17.8395 10.45V9.2ZM3.43759 20.9462L4.66544 21.1805C5.20741 18.3399 5.59438 16.3239 6.08695 14.8037C6.56829 13.3182 7.108 12.4499 7.87022 11.8282L7.08017 10.8595L6.29013 9.89086C5.01761 10.9287 4.27198 12.2947 3.70868 14.0331C3.15662 15.7369 2.73966 17.9345 2.20974 20.712L3.43759 20.9462ZM16.7469 26.958L17.478 25.9441C16.7088 25.3895 15.8576 24.6943 15.2113 23.9599C14.5304 23.1862 14.2552 22.5697 14.2552 22.1541H13.0052H11.7552C11.7552 23.5105 12.5467 24.7162 13.3346 25.6115C14.1571 26.5462 15.1768 27.367 16.0158 27.9719L16.7469 26.958ZM13.0052 22.1541H14.2552C14.2552 21.0962 14.7485 20.5959 15.2325 20.4292C15.7558 20.2489 16.6584 20.3279 17.6434 21.2548L18.5 20.3444L19.3566 19.4341C17.869 18.0343 16.0242 17.5123 14.4182 18.0655C12.7729 18.6323 11.7552 20.2002 11.7552 22.1541H13.0052ZM20.2531 26.958L20.9842 27.9719C21.8232 27.367 22.8429 26.5462 23.6654 25.6115C24.4533 24.7162 25.2448 23.5105 25.2448 22.1541H23.9948H22.7448C22.7448 22.5697 22.4696 23.1862 21.7887 23.9599C21.1424 24.6943 20.2912 25.3895 19.522 25.9441L20.2531 26.958ZM23.9948 22.1541H25.2448C25.2448 20.2002 24.2271 18.6323 22.5818 18.0655C20.9758 17.5123 19.131 18.0343 17.6434 19.4341L18.5 20.3444L19.3566 21.2548C20.3416 20.3279 21.2442 20.2489 21.7675 20.4292C22.2515 20.5959 22.7448 21.0962 22.7448 22.1541H23.9948ZM16.7469 26.958L16.0158 27.9719C16.702 28.4667 17.4227 29.0396 18.5 29.0396L18.5 27.7896L18.5 26.5396C18.428 26.5396 18.378 26.5321 18.2624 26.4721C18.0947 26.3851 17.8895 26.2409 17.478 25.9441L16.7469 26.958ZM20.2531 26.958L19.522 25.9441C19.1105 26.2409 18.9054 26.3851 18.7376 26.4721C18.622 26.5321 18.572 26.5396 18.5 26.5396L18.5 27.7896L18.5 29.0396C19.5773 29.0396 20.298 28.4667 20.9842 27.9719L20.2531 26.958ZM13.0052 9.2H14.2552V7.4H13.0052H11.7552V9.2H13.0052ZM23.9948 7.4H22.7448V9.2H23.9948H25.2448V7.4H23.9948ZM18.5 2V3.25C20.865 3.25 22.7448 5.12845 22.7448 7.4H23.9948H25.2448C25.2448 3.70688 22.2045 0.75 18.5 0.75V2ZM13.0052 7.4H14.2552C14.2552 5.12845 16.135 3.25 18.5 3.25V2V0.75C14.7955 0.75 11.7552 3.70688 11.7552 7.4H13.0052Z" fill="#5E5E5E"/>
</svg>
