<svg width="20" height="20" viewBox="0 0 20 20" fill="none" xmlns="http://www.w3.org/2000/svg">
<path d="M11 1C11 0.447715 10.5523 0 10 0C9.44771 0 9 0.447715 9 1H10H11ZM10 14L9.26197 14.6748C9.45142 14.882 9.71924 15 10 15C10.2808 15 10.5486 14.882 10.738 14.6748L10 14ZM14.738 10.2998C15.1107 9.89217 15.0824 9.25964 14.6748 8.88697C14.2672 8.51431 13.6346 8.54263 13.262 8.95023L14 9.625L14.738 10.2998ZM6.73803 8.95023C6.36536 8.54263 5.73283 8.51431 5.32523 8.88697C4.91763 9.25964 4.88931 9.89217 5.26197 10.2998L6 9.625L6.73803 8.95023ZM13 19V18H7V19V20H13V19ZM7 19V18C5.55752 18 4.57625 17.9979 3.84143 17.8991C3.13538 17.8042 2.80836 17.6368 2.58579 17.4142L1.87868 18.1213L1.17157 18.8284C1.82768 19.4845 2.64711 19.7565 3.57494 19.8812C4.474 20.0021 5.61406 20 7 20V19ZM1 13H0C0 14.3859 -0.00212371 15.526 0.118752 16.4251C0.243496 17.3529 0.515464 18.1723 1.17157 18.8284L1.87868 18.1213L2.58579 17.4142C2.36322 17.1916 2.19584 16.8646 2.10092 16.1586C2.00212 15.4237 2 14.4425 2 13H1ZM19 13H18C18 14.4425 17.9979 15.4237 17.8991 16.1586C17.8042 16.8646 17.6368 17.1916 17.4142 17.4142L18.1213 18.1213L18.8284 18.8284C19.4845 18.1723 19.7565 17.3529 19.8812 16.4251C20.0021 15.526 20 14.3859 20 13H19ZM13 19V20C14.3859 20 15.526 20.0021 16.4251 19.8812C17.3529 19.7565 18.1723 19.4845 18.8284 18.8284L18.1213 18.1213L17.4142 17.4142C17.1916 17.6368 16.8646 17.8042 16.1586 17.8991C15.4237 17.9979 14.4425 18 13 18V19ZM10 1H9V14H10H11V1H10ZM10 14L10.738 14.6748L14.738 10.2998L14 9.625L13.262 8.95023L9.26197 13.3252L10 14ZM10 14L10.738 13.3252L6.73803 8.95023L6 9.625L5.26197 10.2998L9.26197 14.6748L10 14Z" fill="#5E5E5E"/>
</svg>
