<svg width="20" height="21" viewBox="0 0 20 21" fill="none" xmlns="http://www.w3.org/2000/svg">
<path d="M7.5 18V20C7.5 20.4142 7.83579 20.75 8.25 20.75C8.66421 20.75 9 20.4142 9 20V18H7.5Z" fill="#5E5E5E"/>
<path d="M13 18H11.5V20C11.5 20.4142 11.8358 20.75 12.25 20.75C12.6642 20.75 13 20.4142 13 20V18Z" fill="#5E5E5E"/>
<path fill-rule="evenodd" clip-rule="evenodd" d="M15.3846 4.58471L15.6407 4.53344C16.0564 4.45022 16.4863 4.48995 16.8814 4.64813C17.5717 4.92453 18.3266 4.97616 19.0458 4.79618L19.1073 4.7808C19.6309 4.64975 20 4.16299 20 3.60336V1.47284C20 0.735027 19.3358 0.191445 18.6454 0.364214C18.249 0.463425 17.8329 0.434962 17.4523 0.282607L17.3793 0.253347C16.7422 -0.00171596 16.0491 -0.0657932 15.3787 0.0684118L14.93 0.158235C14.3901 0.266318 14 0.757217 14 1.32846V8.28072C14 8.67797 14.31 9 14.6923 9C15.0747 9 15.3846 8.67797 15.3846 8.28072V4.58471Z" fill="#5E5E5E"/>
<path d="M12.5 4V8.28072C12.5 9.45183 13.428 10.5 14.6923 10.5C15.9566 10.5 16.8846 9.45183 16.8846 8.28072V6.22795C17.6455 6.43335 18.4446 6.45735 19.22 6.29496C19.7122 7.13671 20 8.15414 20 9.25V15.4253C20 16.8473 19.0119 18 17.7931 18H10.5V9.25C10.5 7.22015 9.66789 5.27604 8.28258 4H12.5Z" fill="#5E5E5E"/>
<path fill-rule="evenodd" clip-rule="evenodd" d="M0 9.25C0 6.35051 2.01472 4 4.5 4C6.98528 4 9 6.35051 9 9.25V18H2.23256C0.99955 18 0 16.8339 0 15.3953V9.25ZM2.25 14C2.25 13.5858 2.58579 13.25 3 13.25H6C6.41421 13.25 6.75 13.5858 6.75 14C6.75 14.4142 6.41421 14.75 6 14.75H3C2.58579 14.75 2.25 14.4142 2.25 14Z" fill="#5E5E5E"/>
</svg>
