<svg width="37" height="40" viewBox="0 0 37 40" fill="none" xmlns="http://www.w3.org/2000/svg">
<path d="M3.43759 20.9455C4.50949 15.3273 5.04544 12.5183 7.08017 10.8588C9.11491 9.19922 12.0231 9.19922 17.8395 9.19922H19.1605C24.9769 9.19922 27.8851 9.19922 29.9198 10.8588C31.9546 12.5183 32.4905 15.3273 33.5624 20.9455C35.0697 28.8455 35.8233 32.7956 33.6261 35.3974C31.4288 37.9992 27.3394 37.9992 19.1605 37.9992H17.8395C9.66062 37.9992 5.57116 37.9992 3.37391 35.3974C1.17667 32.7956 1.93031 28.8455 3.43759 20.9455Z" fill="#5E5E5E" stroke="#5E5E5E" stroke-width="2.5" stroke-linecap="round"/>
<path d="M13.0039 22.1537C13.0039 23.9257 15.1375 25.798 16.7456 26.9576C17.5145 27.512 17.8989 27.7892 18.4988 27.7892C19.0986 27.7892 19.483 27.512 20.2519 26.9576C21.86 25.7981 23.9936 23.9257 23.9936 22.1537C23.9936 19.1419 20.9713 18.0174 18.4988 20.344C16.0262 18.0174 13.0039 19.1419 13.0039 22.1537Z" fill="white"/>
<path d="M13.0039 9.2V7.4C13.0039 4.41766 15.464 2 18.4988 2C21.5335 2 23.9936 4.41766 23.9936 7.4V9.2" stroke="#5E5E5E" stroke-width="2.5" stroke-linecap="round"/>
</svg>
