<svg width="22" height="22" viewBox="0 0 22 22" fill="none" xmlns="http://www.w3.org/2000/svg">
<path d="M12.5 21C12.5 21.5523 12.9477 22 13.5 22C14.0523 22 14.5 21.5523 14.5 21H13.5H12.5ZM14.5 19C14.5 18.4477 14.0523 18 13.5 18C12.9477 18 12.5 18.4477 12.5 19H13.5H14.5ZM10.5 19C10.5 18.4477 10.0523 18 9.5 18C8.94772 18 8.5 18.4477 8.5 19H9.5H10.5ZM8.5 21C8.5 21.5523 8.94772 22 9.5 22C10.0523 22 10.5 21.5523 10.5 21H9.5H8.5ZM10 19V20H11V19H10ZM13 18C12.4477 18 12 18.4477 12 19C12 19.5523 12.4477 20 13 20V19V18ZM16.5 4C15.9477 4 15.5 4.44772 15.5 5C15.5 5.55228 15.9477 6 16.5 6V5V4ZM6 4C5.44772 4 5 4.44772 5 5C5 5.55228 5.44772 6 6 6V5V4ZM8 18C7.44772 18 7 18.4477 7 19C7 19.5523 7.44772 20 8 20V19V18ZM14 20C14.5523 20 15 19.5523 15 19C15 18.4477 14.5523 18 14 18V19V20ZM4 14C3.44772 14 3 14.4477 3 15C3 15.5523 3.44772 16 4 16V15V14ZM7 16C7.55228 16 8 15.5523 8 15C8 14.4477 7.55228 14 7 14V15V16ZM14 8.88432C14 9.43661 14.4477 9.88432 15 9.88432C15.5523 9.88432 16 9.43661 16 8.88432H15H14ZM15.3994 1.15144L15.2102 0.169508H15.2102L15.3994 1.15144ZM15.8855 1.05779L16.0747 2.03972H16.0747L15.8855 1.05779ZM17.6412 1.214L17.2816 2.1471L17.2816 2.1471L17.6412 1.214ZM17.7203 1.24451L18.0799 0.311398L18.0799 0.311397L17.7203 1.24451ZM15.8855 4.24058L15.6963 3.25864H15.6963L15.8855 4.24058ZM19.5407 4.52184L19.3065 3.54964L19.3065 3.54965L19.5407 4.52184ZM19.6073 4.5058L19.8414 5.478L19.8414 5.478L19.6073 4.5058ZM17.6412 4.39679L18.0008 3.46368V3.46368L17.6412 4.39679ZM19.4582 1.35891L19.224 0.386717V0.386717L19.4582 1.35891ZM13.5 21H14.5V19H13.5H12.5V21H13.5ZM9.5 19H8.5V21H9.5H10.5V19H9.5ZM10 10.25H9V19H10H11V10.25H10ZM10 19V18H3.23256V19V20H10V19ZM1 16.3953H2V10.25H1H0V16.3953H1ZM3.23256 19V18C2.6909 18 2 17.4317 2 16.3953H1H0C0 18.236 1.3082 20 3.23256 20V19ZM5.5 5V6C7.29393 6 9 7.75262 9 10.25H10H11C11 6.94839 8.67663 4 5.5 4V5ZM5.5 5V4C2.32337 4 0 6.9484 0 10.25H1H2C2 7.75262 3.70607 6 5.5 6V5ZM21 10.25H20V16.4253H21H22V10.25H21ZM18.7931 19V18H13V19V20H18.7931V19ZM21 16.4253H20C20 17.4452 19.3206 18 18.7931 18V19V20C20.7033 20 22 18.2494 22 16.4253H21ZM21 10.25H22C22 6.94839 19.6766 4 16.5 4V5V6C18.2939 6 20 7.75262 20 10.25H21ZM6 5V6H17V5V4H6V5ZM8 19V20H14V19V18H8V19ZM4 15V16H7V15V14H4V15ZM15 8.88432H16V4.41121H15H14V8.88432H15ZM15 4.41121H16V1.63519H15H14V4.41121H15ZM15.3994 1.15144L15.5886 2.13338L16.0747 2.03972L15.8855 1.05779L15.6963 0.0758486L15.2102 0.169508L15.3994 1.15144ZM17.6412 1.214L17.2816 2.1471L17.3607 2.17761L17.7203 1.24451L18.0799 0.311397L18.0008 0.280887L17.6412 1.214ZM15 4.41121L15.1892 5.39314L16.0747 5.22252L15.8855 4.24058L15.6963 3.25864L14.8108 3.42927L15 4.41121ZM19.5407 4.52184L19.7748 5.49404L19.8414 5.478L19.6073 4.5058L19.3731 3.53361L19.3065 3.54964L19.5407 4.52184ZM19.6073 4.5058L19.8414 5.478C20.521 5.31431 21 4.70628 21 4.00723H20H19C19 3.78212 19.1542 3.58632 19.3731 3.53361L19.6073 4.5058ZM17.6412 4.39679L17.2816 5.3299C18.0767 5.63634 18.9463 5.69359 19.7748 5.49404L19.5407 4.52184L19.3065 3.54965C18.8726 3.65415 18.4172 3.62417 18.0008 3.46368L17.6412 4.39679ZM19.4582 1.35891L19.6923 2.33111C19.3395 2.4161 19 2.1487 19 1.78573H20H21C21 0.854658 20.1292 0.168694 19.224 0.386717L19.4582 1.35891ZM17.7203 1.24451L17.3607 2.17761C18.1044 2.46419 18.9176 2.51772 19.6923 2.33111L19.4582 1.35891L19.224 0.386717C18.8438 0.478284 18.4448 0.452014 18.0799 0.311398L17.7203 1.24451ZM15.8855 1.05779L16.0747 2.03972C16.4791 1.9618 16.8973 1.999 17.2816 2.1471L17.6412 1.214L18.0008 0.280888C17.267 -0.00190282 16.4685 -0.072946 15.6963 0.0758486L15.8855 1.05779ZM15.8855 4.24058L16.0747 5.22252C16.4791 5.14459 16.8973 5.1818 17.2816 5.3299L17.6412 4.39679L18.0008 3.46368C17.267 3.18089 16.4685 3.10985 15.6963 3.25864L15.8855 4.24058ZM15 1.63519H16C16 1.87838 15.8274 2.08737 15.5886 2.13338L15.3994 1.15144L15.2102 0.169508C14.5077 0.30488 14 0.919721 14 1.63519H15ZM20 4.00723H21V1.78573H20H19V4.00723H20Z" fill="#5E5E5E"/>
</svg>
